G04 #@! TF.GenerationSoftware,KiCad,Pcbnew,(5.99.0-12840-g99442350a4)*
G04 #@! TF.CreationDate,2021-11-05T14:17:08+01:00*
G04 #@! TF.ProjectId,stknx,73746b6e-782e-46b6-9963-61645f706362,rev?*
G04 #@! TF.SameCoordinates,Original*
G04 #@! TF.FileFunction,Copper,L2,Bot*
G04 #@! TF.FilePolarity,Positive*
%FSLAX46Y46*%
G04 Gerber Fmt 4.6, Leading zero omitted, Abs format (unit mm)*
G04 Created by KiCad (PCBNEW (5.99.0-12840-g99442350a4)) date 2021-11-05 14:17:08*
%MOMM*%
%LPD*%
G01*
G04 APERTURE LIST*
G04 Aperture macros list*
%AMRoundRect*
0 Rectangle with rounded corners*
0 $1 Rounding radius*
0 $2 $3 $4 $5 $6 $7 $8 $9 X,Y pos of 4 corners*
0 Add a 4 corners polygon primitive as box body*
4,1,4,$2,$3,$4,$5,$6,$7,$8,$9,$2,$3,0*
0 Add four circle primitives for the rounded corners*
1,1,$1+$1,$2,$3*
1,1,$1+$1,$4,$5*
1,1,$1+$1,$6,$7*
1,1,$1+$1,$8,$9*
0 Add four rect primitives between the rounded corners*
20,1,$1+$1,$2,$3,$4,$5,0*
20,1,$1+$1,$4,$5,$6,$7,0*
20,1,$1+$1,$6,$7,$8,$9,0*
20,1,$1+$1,$8,$9,$2,$3,0*%
%AMFreePoly0*
4,1,22,0.500000,-0.750000,0.000000,-0.750000,0.000000,-0.745033,-0.079941,-0.743568,-0.215256,-0.701293,-0.333266,-0.622738,-0.424486,-0.514219,-0.481581,-0.384460,-0.499164,-0.250000,-0.500000,-0.250000,-0.500000,0.250000,-0.499164,0.250000,-0.499963,0.256109,-0.478152,0.396186,-0.417904,0.524511,-0.324060,0.630769,-0.204165,0.706417,-0.067858,0.745374,0.000000,0.744959,0.000000,0.750000,
0.500000,0.750000,0.500000,-0.750000,0.500000,-0.750000,$1*%
%AMFreePoly1*
4,1,20,0.000000,0.744959,0.073905,0.744508,0.209726,0.703889,0.328688,0.626782,0.421226,0.519385,0.479903,0.390333,0.500000,0.250000,0.500000,-0.250000,0.499851,-0.262216,0.476331,-0.402017,0.414519,-0.529596,0.319384,-0.634700,0.198574,-0.708877,0.061801,-0.746166,0.000000,-0.745033,0.000000,-0.750000,-0.500000,-0.750000,-0.500000,0.750000,0.000000,0.750000,0.000000,0.744959,
0.000000,0.744959,$1*%
%AMFreePoly2*
4,1,22,0.550000,-0.750000,0.000000,-0.750000,0.000000,-0.745033,-0.079941,-0.743568,-0.215256,-0.701293,-0.333266,-0.622738,-0.424486,-0.514219,-0.481581,-0.384460,-0.499164,-0.250000,-0.500000,-0.250000,-0.500000,0.250000,-0.499164,0.250000,-0.499963,0.256109,-0.478152,0.396186,-0.417904,0.524511,-0.324060,0.630769,-0.204165,0.706417,-0.067858,0.745374,0.000000,0.744959,0.000000,0.750000,
0.550000,0.750000,0.550000,-0.750000,0.550000,-0.750000,$1*%
%AMFreePoly3*
4,1,20,0.000000,0.744959,0.073905,0.744508,0.209726,0.703889,0.328688,0.626782,0.421226,0.519385,0.479903,0.390333,0.500000,0.250000,0.500000,-0.250000,0.499851,-0.262216,0.476331,-0.402017,0.414519,-0.529596,0.319384,-0.634700,0.198574,-0.708877,0.061801,-0.746166,0.000000,-0.745033,0.000000,-0.750000,-0.550000,-0.750000,-0.550000,0.750000,0.000000,0.750000,0.000000,0.744959,
0.000000,0.744959,$1*%
G04 Aperture macros list end*
G04 #@! TA.AperFunction,ComponentPad*
%ADD10R,1.700000X1.700000*%
G04 #@! TD*
G04 #@! TA.AperFunction,ComponentPad*
%ADD11O,1.700000X1.700000*%
G04 #@! TD*
G04 #@! TA.AperFunction,ComponentPad*
%ADD12C,2.000000*%
G04 #@! TD*
G04 #@! TA.AperFunction,SMDPad,CuDef*
%ADD13FreePoly0,0.000000*%
G04 #@! TD*
G04 #@! TA.AperFunction,SMDPad,CuDef*
%ADD14FreePoly1,0.000000*%
G04 #@! TD*
G04 #@! TA.AperFunction,SMDPad,CuDef*
%ADD15RoundRect,0.135000X-0.185000X0.135000X-0.185000X-0.135000X0.185000X-0.135000X0.185000X0.135000X0*%
G04 #@! TD*
G04 #@! TA.AperFunction,SMDPad,CuDef*
%ADD16RoundRect,0.140000X0.140000X0.170000X-0.140000X0.170000X-0.140000X-0.170000X0.140000X-0.170000X0*%
G04 #@! TD*
G04 #@! TA.AperFunction,SMDPad,CuDef*
%ADD17RoundRect,0.250000X0.475000X-0.250000X0.475000X0.250000X-0.475000X0.250000X-0.475000X-0.250000X0*%
G04 #@! TD*
G04 #@! TA.AperFunction,SMDPad,CuDef*
%ADD18RoundRect,0.135000X-0.135000X-0.185000X0.135000X-0.185000X0.135000X0.185000X-0.135000X0.185000X0*%
G04 #@! TD*
G04 #@! TA.AperFunction,SMDPad,CuDef*
%ADD19FreePoly0,180.000000*%
G04 #@! TD*
G04 #@! TA.AperFunction,SMDPad,CuDef*
%ADD20FreePoly1,180.000000*%
G04 #@! TD*
G04 #@! TA.AperFunction,SMDPad,CuDef*
%ADD21RoundRect,0.135000X0.185000X-0.135000X0.185000X0.135000X-0.185000X0.135000X-0.185000X-0.135000X0*%
G04 #@! TD*
G04 #@! TA.AperFunction,SMDPad,CuDef*
%ADD22FreePoly2,0.000000*%
G04 #@! TD*
G04 #@! TA.AperFunction,SMDPad,CuDef*
%ADD23R,1.000000X1.500000*%
G04 #@! TD*
G04 #@! TA.AperFunction,SMDPad,CuDef*
%ADD24FreePoly3,0.000000*%
G04 #@! TD*
G04 #@! TA.AperFunction,SMDPad,CuDef*
%ADD25R,0.500000X0.500000*%
G04 #@! TD*
G04 #@! TA.AperFunction,SMDPad,CuDef*
%ADD26RoundRect,0.140000X-0.140000X-0.170000X0.140000X-0.170000X0.140000X0.170000X-0.140000X0.170000X0*%
G04 #@! TD*
G04 #@! TA.AperFunction,ViaPad*
%ADD27C,0.600000*%
G04 #@! TD*
G04 #@! TA.AperFunction,ViaPad*
%ADD28C,0.800000*%
G04 #@! TD*
G04 #@! TA.AperFunction,Conductor*
%ADD29C,0.500000*%
G04 #@! TD*
G04 #@! TA.AperFunction,Conductor*
%ADD30C,0.250000*%
G04 #@! TD*
G04 #@! TA.AperFunction,Conductor*
%ADD31C,0.150000*%
G04 #@! TD*
G04 APERTURE END LIST*
D10*
X164375000Y-111600000D03*
D11*
X161835000Y-111600000D03*
D10*
X158475000Y-113284000D03*
D11*
X158475000Y-110744000D03*
X158475000Y-108204000D03*
X158475000Y-105664000D03*
X158475000Y-103124000D03*
X158475000Y-100584000D03*
D12*
X198650000Y-110150000D03*
X198650000Y-104400000D03*
D10*
X176225000Y-98600000D03*
D11*
X178765000Y-98600000D03*
D10*
X164375000Y-115200000D03*
D11*
X161835000Y-115200000D03*
D13*
X182432000Y-108794000D03*
D14*
X183732000Y-108794000D03*
D15*
X173400000Y-103190000D03*
X173400000Y-104210000D03*
D13*
X182432000Y-111294000D03*
D14*
X183732000Y-111294000D03*
D16*
X161780000Y-105700000D03*
X160820000Y-105700000D03*
D17*
X175932000Y-109244000D03*
X175932000Y-107344000D03*
D18*
X179890000Y-111300000D03*
X180910000Y-111300000D03*
D13*
X182438000Y-106294000D03*
D14*
X183738000Y-106294000D03*
D19*
X162750000Y-100600000D03*
D20*
X161450000Y-100600000D03*
D21*
X163200000Y-106810000D03*
X163200000Y-105790000D03*
D22*
X170800000Y-105900000D03*
D23*
X172100000Y-105900000D03*
D24*
X173400000Y-105900000D03*
D25*
X161800000Y-106800000D03*
X161800000Y-109000000D03*
D26*
X179920000Y-112300000D03*
X180880000Y-112300000D03*
D27*
X172132000Y-111894000D03*
D28*
X181032000Y-107494000D03*
D27*
X181432000Y-113894000D03*
D28*
X168632000Y-114094000D03*
X192132000Y-103894000D03*
D27*
X161032000Y-109194000D03*
D28*
X165432000Y-109294000D03*
X189129386Y-102184462D03*
D27*
X185232000Y-114594000D03*
X175332000Y-111894000D03*
D28*
X168532000Y-110694000D03*
D27*
X176932000Y-111894000D03*
D28*
X192132000Y-100494000D03*
X188932000Y-113894000D03*
D27*
X175332000Y-110294000D03*
D28*
X191032000Y-108194000D03*
X173232000Y-108894000D03*
X195132000Y-102194000D03*
X162432000Y-104994000D03*
X168532000Y-109294000D03*
D27*
X181532000Y-116394000D03*
X172632000Y-116494000D03*
D28*
X165832000Y-102194000D03*
X168932000Y-105794000D03*
D27*
X176932000Y-110294000D03*
X179132000Y-113594000D03*
D28*
X183732000Y-103794000D03*
X170832000Y-103994000D03*
D27*
X176951500Y-107994000D03*
D28*
X179532000Y-103594000D03*
X176332000Y-102994000D03*
X187132000Y-111394000D03*
X187132000Y-107694000D03*
X172132000Y-107094000D03*
D27*
X179032000Y-112694000D03*
X176532000Y-114894000D03*
X164332000Y-104594000D03*
X178232000Y-114094000D03*
X174232000Y-113494000D03*
X176026351Y-114198106D03*
X177332000Y-114094000D03*
D29*
X183738000Y-106294000D02*
X183738000Y-103800000D01*
X170832000Y-103994000D02*
X170832000Y-105868000D01*
X183738000Y-103800000D02*
X183732000Y-103794000D01*
X170832000Y-105868000D02*
X170800000Y-105900000D01*
X175932000Y-107344000D02*
X176301500Y-107344000D01*
X176301500Y-107344000D02*
X176951500Y-107994000D01*
X177132000Y-102994000D02*
X176332000Y-102994000D01*
X178932000Y-102994000D02*
X179532000Y-103594000D01*
X177132000Y-102994000D02*
X178932000Y-102994000D01*
X187132000Y-111394000D02*
X187132000Y-107694000D01*
X184732000Y-108794000D02*
X183732000Y-108794000D01*
X182332000Y-115594000D02*
X185032000Y-112894000D01*
X164375000Y-114251000D02*
X166132000Y-112494000D01*
X185032000Y-112894000D02*
X185032000Y-109094000D01*
X166132000Y-112494000D02*
X170632000Y-112494000D01*
X173732000Y-115594000D02*
X182332000Y-115594000D01*
X164375000Y-115200000D02*
X164375000Y-114251000D01*
X185032000Y-109094000D02*
X184732000Y-108794000D01*
X170632000Y-112494000D02*
X173732000Y-115594000D01*
X172132000Y-105932000D02*
X172100000Y-105900000D01*
X172132000Y-107094000D02*
X172132000Y-105932000D01*
D30*
X179920000Y-111330000D02*
X179890000Y-111300000D01*
X179920000Y-112300000D02*
X179920000Y-111330000D01*
X179920000Y-112300000D02*
X179426000Y-112300000D01*
X179426000Y-112300000D02*
X179032000Y-112694000D01*
D29*
X162750000Y-103012000D02*
X164332000Y-104594000D01*
X176532000Y-114894000D02*
X181932000Y-114894000D01*
X181932000Y-114894000D02*
X183732000Y-113094000D01*
X164375000Y-111600000D02*
X170838000Y-111600000D01*
X162750000Y-100600000D02*
X162750000Y-103012000D01*
X183732000Y-113094000D02*
X183732000Y-111294000D01*
X174132000Y-114894000D02*
X176532000Y-114894000D01*
X170838000Y-111600000D02*
X174132000Y-114894000D01*
D30*
X163190000Y-106800000D02*
X163200000Y-106810000D01*
D31*
X177232000Y-113094000D02*
X178232000Y-114094000D01*
D30*
X161800000Y-106800000D02*
X161800000Y-105720000D01*
X161800000Y-105720000D02*
X161780000Y-105700000D01*
D31*
X169430092Y-106810000D02*
X175714092Y-113094000D01*
X163200000Y-106810000D02*
X169430092Y-106810000D01*
X175714092Y-113094000D02*
X177232000Y-113094000D01*
D30*
X161800000Y-106800000D02*
X163190000Y-106800000D01*
X158475000Y-105664000D02*
X160784000Y-105664000D01*
X160784000Y-105664000D02*
X160820000Y-105700000D01*
D31*
X160832000Y-109994000D02*
X171132000Y-109994000D01*
X158475000Y-112351000D02*
X160832000Y-109994000D01*
X174232000Y-113094000D02*
X174232000Y-113494000D01*
X158475000Y-113284000D02*
X158475000Y-112351000D01*
X171132000Y-109994000D02*
X174232000Y-113094000D01*
X170386489Y-108548489D02*
X176026351Y-114188351D01*
X176026351Y-114188351D02*
X176026351Y-114198106D01*
X160670511Y-108548489D02*
X170386489Y-108548489D01*
X158475000Y-110744000D02*
X160670511Y-108548489D01*
X170433046Y-108204000D02*
X175723046Y-113494000D01*
X175723046Y-113494000D02*
X176232000Y-113494000D01*
X176232000Y-113494000D02*
X176832000Y-114094000D01*
X176832000Y-114094000D02*
X177332000Y-114094000D01*
X158475000Y-108204000D02*
X170433046Y-108204000D01*
D29*
X161434000Y-100584000D02*
X161450000Y-100600000D01*
X158475000Y-100584000D02*
X161434000Y-100584000D01*
X173400000Y-105900000D02*
X173400000Y-104210000D01*
X180910000Y-111300000D02*
X182426000Y-111300000D01*
X182432000Y-111294000D02*
X182432000Y-108794000D01*
X182426000Y-111300000D02*
X182432000Y-111294000D01*
X182432000Y-108794000D02*
X182432000Y-106300000D01*
X182432000Y-106300000D02*
X182438000Y-106294000D01*
G04 #@! TA.AperFunction,Conductor*
G36*
X205521694Y-96992306D02*
G01*
X205540000Y-97036500D01*
X205540000Y-116831500D01*
X205521694Y-116875694D01*
X205477500Y-116894000D01*
X154694500Y-116894000D01*
X154650306Y-116875694D01*
X154632000Y-116831500D01*
X154632000Y-115407346D01*
X160802093Y-115407346D01*
X160853169Y-115585467D01*
X160855406Y-115591117D01*
X160946734Y-115768823D01*
X160950034Y-115773943D01*
X161074140Y-115930526D01*
X161078368Y-115934904D01*
X161230522Y-116064397D01*
X161235518Y-116067869D01*
X161409931Y-116165346D01*
X161415508Y-116167782D01*
X161605527Y-116229522D01*
X161611475Y-116230830D01*
X161622654Y-116232164D01*
X161631816Y-116229589D01*
X161635000Y-116223915D01*
X161635000Y-116221934D01*
X162035000Y-116221934D01*
X162038641Y-116230724D01*
X162042426Y-116232292D01*
X162213604Y-116184498D01*
X162219267Y-116182301D01*
X162397621Y-116092208D01*
X162402743Y-116088958D01*
X162560197Y-115965940D01*
X162564601Y-115961747D01*
X162695156Y-115810497D01*
X162698663Y-115805526D01*
X162797356Y-115631795D01*
X162799828Y-115626242D01*
X162862898Y-115436651D01*
X162864245Y-115430720D01*
X162866568Y-115412334D01*
X162864057Y-115403156D01*
X162858523Y-115400000D01*
X162047431Y-115400000D01*
X162038641Y-115403641D01*
X162035000Y-115412431D01*
X162035000Y-116221934D01*
X161635000Y-116221934D01*
X161635000Y-115412431D01*
X161631359Y-115403641D01*
X161622569Y-115400000D01*
X160812418Y-115400000D01*
X160803628Y-115403641D01*
X160802093Y-115407346D01*
X154632000Y-115407346D01*
X154632000Y-114987645D01*
X160802189Y-114987645D01*
X160804828Y-114996789D01*
X160810645Y-115000000D01*
X161622569Y-115000000D01*
X161631359Y-114996359D01*
X161635000Y-114987569D01*
X162035000Y-114987569D01*
X162038641Y-114996359D01*
X162047431Y-115000000D01*
X162858040Y-115000000D01*
X162866830Y-114996359D01*
X162868882Y-114991406D01*
X162811356Y-114800872D01*
X162809034Y-114795238D01*
X162715234Y-114618825D01*
X162711868Y-114613760D01*
X162585587Y-114458923D01*
X162581299Y-114454605D01*
X162427351Y-114327248D01*
X162422302Y-114323843D01*
X162246554Y-114228817D01*
X162240936Y-114226455D01*
X162050075Y-114167373D01*
X162046714Y-114166684D01*
X162038241Y-114169193D01*
X162035000Y-114175163D01*
X162035000Y-114987569D01*
X161635000Y-114987569D01*
X161635000Y-114176714D01*
X161631359Y-114167924D01*
X161627733Y-114166422D01*
X161442688Y-114220884D01*
X161437056Y-114223160D01*
X161259981Y-114315732D01*
X161254899Y-114319058D01*
X161099181Y-114444258D01*
X161094833Y-114448516D01*
X160966402Y-114601574D01*
X160962965Y-114606594D01*
X160866712Y-114781678D01*
X160864313Y-114787276D01*
X160803899Y-114977723D01*
X160802635Y-114983668D01*
X160802189Y-114987645D01*
X154632000Y-114987645D01*
X154632000Y-110730286D01*
X157492866Y-110730286D01*
X157496321Y-110771425D01*
X157505891Y-110885390D01*
X157508907Y-110921311D01*
X157561746Y-111105583D01*
X157603730Y-111187276D01*
X157647603Y-111272643D01*
X157649370Y-111276082D01*
X157768443Y-111426314D01*
X157770773Y-111428297D01*
X157896720Y-111535486D01*
X157914428Y-111550557D01*
X157917092Y-111552046D01*
X157917095Y-111552048D01*
X158074003Y-111639741D01*
X158081765Y-111644079D01*
X158084669Y-111645023D01*
X158084670Y-111645023D01*
X158261168Y-111702371D01*
X158261173Y-111702372D01*
X158264081Y-111703317D01*
X158454430Y-111726015D01*
X158457472Y-111725781D01*
X158457475Y-111725781D01*
X158642514Y-111711543D01*
X158642519Y-111711542D01*
X158645562Y-111711308D01*
X158669644Y-111704584D01*
X158717133Y-111710331D01*
X158746650Y-111747974D01*
X158740903Y-111795463D01*
X158730646Y-111808976D01*
X158363771Y-112175851D01*
X158357166Y-112180532D01*
X158357552Y-112181017D01*
X158352041Y-112185400D01*
X158345699Y-112188446D01*
X158341306Y-112193940D01*
X158341304Y-112193941D01*
X158325994Y-112213086D01*
X158321377Y-112218245D01*
X158315667Y-112223955D01*
X158313802Y-112226923D01*
X158313800Y-112226925D01*
X158311556Y-112230496D01*
X158307451Y-112236272D01*
X158292392Y-112255102D01*
X158292390Y-112255106D01*
X158287997Y-112260599D01*
X158286420Y-112267456D01*
X158284610Y-112271201D01*
X158248895Y-112303023D01*
X158228340Y-112306500D01*
X157612442Y-112306500D01*
X157609431Y-112307099D01*
X157581287Y-112312697D01*
X157581285Y-112312698D01*
X157575252Y-112313898D01*
X157533078Y-112342078D01*
X157504898Y-112384252D01*
X157497500Y-112421442D01*
X157497500Y-114146558D01*
X157498099Y-114149569D01*
X157503499Y-114176714D01*
X157504898Y-114183748D01*
X157533078Y-114225922D01*
X157575252Y-114254102D01*
X157581285Y-114255302D01*
X157581287Y-114255303D01*
X157601558Y-114259335D01*
X157612442Y-114261500D01*
X159337558Y-114261500D01*
X159348442Y-114259335D01*
X159368713Y-114255303D01*
X159368715Y-114255302D01*
X159374748Y-114254102D01*
X159416922Y-114225922D01*
X159445102Y-114183748D01*
X159446502Y-114176714D01*
X159451901Y-114149569D01*
X159452500Y-114146558D01*
X159452500Y-112421442D01*
X159445102Y-112384252D01*
X159416922Y-112342078D01*
X159374748Y-112313898D01*
X159368715Y-112312698D01*
X159368713Y-112312697D01*
X159340569Y-112307099D01*
X159337558Y-112306500D01*
X158956766Y-112306500D01*
X158912572Y-112288194D01*
X158894266Y-112244000D01*
X158912572Y-112199806D01*
X159305032Y-111807346D01*
X160802093Y-111807346D01*
X160853169Y-111985467D01*
X160855406Y-111991117D01*
X160946734Y-112168823D01*
X160950034Y-112173943D01*
X161074140Y-112330526D01*
X161078368Y-112334904D01*
X161230522Y-112464397D01*
X161235518Y-112467869D01*
X161409931Y-112565346D01*
X161415508Y-112567782D01*
X161605527Y-112629522D01*
X161611475Y-112630830D01*
X161622654Y-112632164D01*
X161631816Y-112629589D01*
X161635000Y-112623915D01*
X161635000Y-112621934D01*
X162035000Y-112621934D01*
X162038641Y-112630724D01*
X162042426Y-112632292D01*
X162213604Y-112584498D01*
X162219267Y-112582301D01*
X162397621Y-112492208D01*
X162402743Y-112488958D01*
X162560197Y-112365940D01*
X162564601Y-112361747D01*
X162695156Y-112210497D01*
X162698663Y-112205526D01*
X162797356Y-112031795D01*
X162799828Y-112026242D01*
X162862898Y-111836651D01*
X162864245Y-111830720D01*
X162866568Y-111812334D01*
X162864057Y-111803156D01*
X162858523Y-111800000D01*
X162047431Y-111800000D01*
X162038641Y-111803641D01*
X162035000Y-111812431D01*
X162035000Y-112621934D01*
X161635000Y-112621934D01*
X161635000Y-111812431D01*
X161631359Y-111803641D01*
X161622569Y-111800000D01*
X160812418Y-111800000D01*
X160803628Y-111803641D01*
X160802093Y-111807346D01*
X159305032Y-111807346D01*
X159724733Y-111387645D01*
X160802189Y-111387645D01*
X160804828Y-111396789D01*
X160810645Y-111400000D01*
X161622569Y-111400000D01*
X161631359Y-111396359D01*
X161635000Y-111387569D01*
X162035000Y-111387569D01*
X162038641Y-111396359D01*
X162047431Y-111400000D01*
X162858040Y-111400000D01*
X162866830Y-111396359D01*
X162868882Y-111391406D01*
X162811356Y-111200872D01*
X162809034Y-111195238D01*
X162715234Y-111018825D01*
X162711868Y-111013760D01*
X162585587Y-110858923D01*
X162581299Y-110854605D01*
X162427351Y-110727248D01*
X162422302Y-110723843D01*
X162246554Y-110628817D01*
X162240936Y-110626455D01*
X162050075Y-110567373D01*
X162046714Y-110566684D01*
X162038241Y-110569193D01*
X162035000Y-110575163D01*
X162035000Y-111387569D01*
X161635000Y-111387569D01*
X161635000Y-110576714D01*
X161631359Y-110567924D01*
X161627733Y-110566422D01*
X161442688Y-110620884D01*
X161437056Y-110623160D01*
X161259981Y-110715732D01*
X161254899Y-110719058D01*
X161099181Y-110844258D01*
X161094833Y-110848516D01*
X160966402Y-111001574D01*
X160962965Y-111006594D01*
X160866712Y-111181678D01*
X160864313Y-111187276D01*
X160803899Y-111377723D01*
X160802635Y-111383668D01*
X160802189Y-111387645D01*
X159724733Y-111387645D01*
X160897572Y-110214806D01*
X160941766Y-110196500D01*
X171022234Y-110196500D01*
X171066428Y-110214806D01*
X173940856Y-113089234D01*
X173959162Y-113133428D01*
X173943508Y-113174801D01*
X173871018Y-113256879D01*
X173869126Y-113260909D01*
X173820868Y-113363695D01*
X173820867Y-113363698D01*
X173818976Y-113367726D01*
X173800136Y-113488724D01*
X173800713Y-113493137D01*
X173800713Y-113493138D01*
X173805255Y-113527870D01*
X173816014Y-113610145D01*
X173817807Y-113614220D01*
X173854904Y-113698528D01*
X173865333Y-113722230D01*
X173879272Y-113738813D01*
X173935783Y-113806041D01*
X173944127Y-113815968D01*
X173947832Y-113818434D01*
X173947834Y-113818436D01*
X174012239Y-113861307D01*
X174046064Y-113883823D01*
X174162948Y-113920340D01*
X174167398Y-113920422D01*
X174167401Y-113920422D01*
X174217074Y-113921332D01*
X174285383Y-113922584D01*
X174338088Y-113908215D01*
X174399226Y-113891548D01*
X174399229Y-113891547D01*
X174403527Y-113890375D01*
X174407323Y-113888044D01*
X174407326Y-113888043D01*
X174504083Y-113828633D01*
X174507881Y-113826301D01*
X174590058Y-113735513D01*
X174643451Y-113625311D01*
X174646003Y-113610145D01*
X174663367Y-113506928D01*
X174663767Y-113504552D01*
X174663896Y-113494000D01*
X174646536Y-113372781D01*
X174603613Y-113278377D01*
X174597696Y-113265362D01*
X174597695Y-113265360D01*
X174595852Y-113261307D01*
X174515918Y-113168539D01*
X174463311Y-113134441D01*
X174436182Y-113095042D01*
X174435188Y-113088898D01*
X174434883Y-113086154D01*
X174434500Y-113079250D01*
X174434500Y-113071169D01*
X174432779Y-113063625D01*
X174431599Y-113056651D01*
X174429188Y-113034983D01*
X174442495Y-112989035D01*
X174484393Y-112965954D01*
X174530341Y-112979261D01*
X174535499Y-112983877D01*
X175592246Y-114040624D01*
X175610552Y-114084818D01*
X175609808Y-114094431D01*
X175594487Y-114192830D01*
X175595064Y-114197243D01*
X175595064Y-114197244D01*
X175596922Y-114211448D01*
X175610365Y-114314251D01*
X175612158Y-114318326D01*
X175659684Y-114426336D01*
X175658093Y-114427036D01*
X175664901Y-114468168D01*
X175637053Y-114507062D01*
X175604028Y-114516500D01*
X174314254Y-114516500D01*
X174270060Y-114498194D01*
X171138133Y-111366267D01*
X171129821Y-111355975D01*
X171123877Y-111346769D01*
X171123876Y-111346768D01*
X171121072Y-111342425D01*
X171117013Y-111339225D01*
X171117011Y-111339223D01*
X171091931Y-111319452D01*
X171086430Y-111314564D01*
X171082757Y-111310891D01*
X171080665Y-111309396D01*
X171080659Y-111309391D01*
X171065922Y-111298860D01*
X171063589Y-111297108D01*
X171022377Y-111264620D01*
X171017499Y-111262907D01*
X171014079Y-111261027D01*
X171010577Y-111259312D01*
X171006373Y-111256307D01*
X170956100Y-111241273D01*
X170953299Y-111240362D01*
X170903801Y-111222979D01*
X170899883Y-111222640D01*
X170899880Y-111222639D01*
X170899734Y-111222627D01*
X170898270Y-111222500D01*
X170897969Y-111222500D01*
X170893927Y-111222158D01*
X170890914Y-111221777D01*
X170885967Y-111220298D01*
X170831145Y-111222452D01*
X170828691Y-111222500D01*
X165415000Y-111222500D01*
X165370806Y-111204194D01*
X165352500Y-111160000D01*
X165352500Y-110737442D01*
X165351494Y-110732384D01*
X165346303Y-110706287D01*
X165346302Y-110706285D01*
X165345102Y-110700252D01*
X165316922Y-110658078D01*
X165274748Y-110629898D01*
X165268715Y-110628698D01*
X165268713Y-110628697D01*
X165240569Y-110623099D01*
X165237558Y-110622500D01*
X163512442Y-110622500D01*
X163509431Y-110623099D01*
X163481287Y-110628697D01*
X163481285Y-110628698D01*
X163475252Y-110629898D01*
X163433078Y-110658078D01*
X163404898Y-110700252D01*
X163403698Y-110706285D01*
X163403697Y-110706287D01*
X163398506Y-110732384D01*
X163397500Y-110737442D01*
X163397500Y-112462558D01*
X163398099Y-112465569D01*
X163402752Y-112488958D01*
X163404898Y-112499748D01*
X163433078Y-112541922D01*
X163475252Y-112570102D01*
X163481285Y-112571302D01*
X163481287Y-112571303D01*
X163507384Y-112576494D01*
X163512442Y-112577500D01*
X165237558Y-112577500D01*
X165242616Y-112576494D01*
X165268713Y-112571303D01*
X165268715Y-112571302D01*
X165274748Y-112570102D01*
X165316922Y-112541922D01*
X165345102Y-112499748D01*
X165347249Y-112488958D01*
X165351901Y-112465569D01*
X165352500Y-112462558D01*
X165352500Y-112040000D01*
X165370806Y-111995806D01*
X165415000Y-111977500D01*
X170655747Y-111977500D01*
X170699941Y-111995806D01*
X170712162Y-112008027D01*
X170730468Y-112052221D01*
X170712162Y-112096415D01*
X170670422Y-112114673D01*
X170659555Y-112115100D01*
X170634944Y-112116067D01*
X170625145Y-112116452D01*
X170622691Y-112116500D01*
X166178952Y-112116500D01*
X166165799Y-112115100D01*
X166150029Y-112111705D01*
X166144899Y-112112312D01*
X166144897Y-112112312D01*
X166113174Y-112116067D01*
X166105828Y-112116500D01*
X166100638Y-112116500D01*
X166080228Y-112119897D01*
X166077345Y-112120307D01*
X166025225Y-112126476D01*
X166020568Y-112128713D01*
X166016837Y-112129797D01*
X166013132Y-112131065D01*
X166008030Y-112131914D01*
X165961840Y-112156837D01*
X165959225Y-112158169D01*
X165915482Y-112179174D01*
X165915480Y-112179175D01*
X165911934Y-112180878D01*
X165907684Y-112184450D01*
X165907463Y-112184671D01*
X165904368Y-112187283D01*
X165901977Y-112189137D01*
X165897428Y-112191592D01*
X165893919Y-112195388D01*
X165860189Y-112231877D01*
X165858488Y-112233646D01*
X164141267Y-113950867D01*
X164130975Y-113959179D01*
X164117425Y-113967928D01*
X164114225Y-113971987D01*
X164114223Y-113971989D01*
X164094452Y-113997069D01*
X164089564Y-114002570D01*
X164085891Y-114006243D01*
X164084396Y-114008335D01*
X164084391Y-114008341D01*
X164073860Y-114023078D01*
X164072108Y-114025411D01*
X164039620Y-114066623D01*
X164037907Y-114071501D01*
X164036027Y-114074921D01*
X164034312Y-114078423D01*
X164031307Y-114082627D01*
X164024040Y-114106928D01*
X164016273Y-114132899D01*
X164015362Y-114135701D01*
X164001504Y-114175163D01*
X163999556Y-114180709D01*
X163967641Y-114216341D01*
X163940587Y-114222500D01*
X163512442Y-114222500D01*
X163509431Y-114223099D01*
X163481287Y-114228697D01*
X163481285Y-114228698D01*
X163475252Y-114229898D01*
X163433078Y-114258078D01*
X163404898Y-114300252D01*
X163403698Y-114306285D01*
X163403697Y-114306287D01*
X163401157Y-114319058D01*
X163397500Y-114337442D01*
X163397500Y-116062558D01*
X163398099Y-116065569D01*
X163402752Y-116088958D01*
X163404898Y-116099748D01*
X163433078Y-116141922D01*
X163475252Y-116170102D01*
X163481285Y-116171302D01*
X163481287Y-116171303D01*
X163507384Y-116176494D01*
X163512442Y-116177500D01*
X165237558Y-116177500D01*
X165242616Y-116176494D01*
X165268713Y-116171303D01*
X165268715Y-116171302D01*
X165274748Y-116170102D01*
X165316922Y-116141922D01*
X165345102Y-116099748D01*
X165347249Y-116088958D01*
X165351901Y-116065569D01*
X165352500Y-116062558D01*
X165352500Y-114337442D01*
X165348843Y-114319058D01*
X165346303Y-114306287D01*
X165346302Y-114306285D01*
X165345102Y-114300252D01*
X165316922Y-114258078D01*
X165274748Y-114229898D01*
X165268715Y-114228698D01*
X165268713Y-114228697D01*
X165240569Y-114223099D01*
X165237558Y-114222500D01*
X165088253Y-114222500D01*
X165044059Y-114204194D01*
X165025753Y-114160000D01*
X165044059Y-114115806D01*
X165652938Y-113506928D01*
X166270060Y-112889806D01*
X166314254Y-112871500D01*
X170449747Y-112871500D01*
X170493941Y-112889806D01*
X173431867Y-115827733D01*
X173440179Y-115838025D01*
X173448928Y-115851575D01*
X173452987Y-115854775D01*
X173452989Y-115854777D01*
X173478069Y-115874548D01*
X173483570Y-115879436D01*
X173487243Y-115883109D01*
X173489335Y-115884604D01*
X173489341Y-115884609D01*
X173504078Y-115895140D01*
X173506411Y-115896892D01*
X173547623Y-115929380D01*
X173552501Y-115931093D01*
X173555921Y-115932973D01*
X173559423Y-115934688D01*
X173563627Y-115937693D01*
X173613899Y-115952727D01*
X173616701Y-115953638D01*
X173666199Y-115971021D01*
X173670117Y-115971360D01*
X173670120Y-115971361D01*
X173670266Y-115971373D01*
X173671730Y-115971500D01*
X173672031Y-115971500D01*
X173676073Y-115971842D01*
X173679086Y-115972223D01*
X173684033Y-115973702D01*
X173738856Y-115971548D01*
X173741309Y-115971500D01*
X182285048Y-115971500D01*
X182298201Y-115972900D01*
X182313971Y-115976295D01*
X182319101Y-115975688D01*
X182319103Y-115975688D01*
X182350826Y-115971933D01*
X182358172Y-115971500D01*
X182363362Y-115971500D01*
X182383772Y-115968103D01*
X182386655Y-115967693D01*
X182438775Y-115961524D01*
X182443432Y-115959287D01*
X182447163Y-115958203D01*
X182450868Y-115956935D01*
X182455970Y-115956086D01*
X182502160Y-115931163D01*
X182504775Y-115929831D01*
X182548521Y-115908825D01*
X182548525Y-115908822D01*
X182552066Y-115907122D01*
X182555139Y-115904538D01*
X182555282Y-115904419D01*
X182555290Y-115904412D01*
X182556315Y-115903550D01*
X182556528Y-115903337D01*
X182559627Y-115900721D01*
X182562023Y-115898862D01*
X182566572Y-115896408D01*
X182603823Y-115856110D01*
X182605524Y-115854341D01*
X185265730Y-113194135D01*
X185276022Y-113185823D01*
X185285231Y-113179877D01*
X185285232Y-113179876D01*
X185289575Y-113177072D01*
X185312559Y-113147917D01*
X185317440Y-113142425D01*
X185321109Y-113138756D01*
X185333145Y-113121914D01*
X185334883Y-113119599D01*
X185367380Y-113078377D01*
X185369093Y-113073500D01*
X185370982Y-113070063D01*
X185372690Y-113066576D01*
X185375694Y-113062373D01*
X185390735Y-113012076D01*
X185391642Y-113009287D01*
X185398755Y-112989035D01*
X185409021Y-112959801D01*
X185409500Y-112954270D01*
X185409500Y-112953969D01*
X185409842Y-112949927D01*
X185410223Y-112946914D01*
X185411702Y-112941967D01*
X185409548Y-112887144D01*
X185409500Y-112884691D01*
X185409500Y-111394000D01*
X186599948Y-111394000D01*
X186600483Y-111398064D01*
X186617428Y-111526772D01*
X186618077Y-111531705D01*
X186619643Y-111535485D01*
X186619643Y-111535486D01*
X186636723Y-111576720D01*
X186671229Y-111660026D01*
X186673722Y-111663275D01*
X186750593Y-111763455D01*
X186755782Y-111770218D01*
X186759027Y-111772708D01*
X186762859Y-111775648D01*
X186865974Y-111854771D01*
X186869757Y-111856338D01*
X186980020Y-111902010D01*
X186994295Y-111907923D01*
X186998351Y-111908457D01*
X186998355Y-111908458D01*
X187127936Y-111925517D01*
X187132000Y-111926052D01*
X187136064Y-111925517D01*
X187265645Y-111908458D01*
X187265649Y-111908457D01*
X187269705Y-111907923D01*
X187283981Y-111902010D01*
X187394243Y-111856338D01*
X187398026Y-111854771D01*
X187501142Y-111775648D01*
X187504973Y-111772708D01*
X187508218Y-111770218D01*
X187513407Y-111763455D01*
X187590278Y-111663275D01*
X187592771Y-111660026D01*
X187627277Y-111576720D01*
X187644357Y-111535486D01*
X187644357Y-111535485D01*
X187645923Y-111531705D01*
X187646573Y-111526772D01*
X187663517Y-111398064D01*
X187664052Y-111394000D01*
X187651527Y-111298860D01*
X187646458Y-111260355D01*
X187646457Y-111260351D01*
X187645923Y-111256295D01*
X187643367Y-111250123D01*
X187594338Y-111131757D01*
X187592771Y-111127974D01*
X187558402Y-111083183D01*
X187522415Y-111036284D01*
X187509500Y-110998236D01*
X187509500Y-110120359D01*
X197518058Y-110120359D01*
X197531611Y-110327135D01*
X197532317Y-110329915D01*
X197572415Y-110487800D01*
X197582619Y-110527980D01*
X197669373Y-110716165D01*
X197671023Y-110718500D01*
X197671025Y-110718503D01*
X197762840Y-110848417D01*
X197788970Y-110885390D01*
X197937402Y-111029986D01*
X198109699Y-111145111D01*
X198300091Y-111226910D01*
X198302877Y-111227540D01*
X198302882Y-111227542D01*
X198499411Y-111272012D01*
X198499414Y-111272012D01*
X198502201Y-111272643D01*
X198593531Y-111276231D01*
X198706402Y-111280666D01*
X198706406Y-111280666D01*
X198709262Y-111280778D01*
X198914337Y-111251044D01*
X199110560Y-111184435D01*
X199291359Y-111083183D01*
X199450678Y-110950678D01*
X199583183Y-110791359D01*
X199684435Y-110610560D01*
X199751044Y-110414337D01*
X199763284Y-110329915D01*
X199780515Y-110211078D01*
X199780515Y-110211073D01*
X199780778Y-110209262D01*
X199782330Y-110150000D01*
X199779607Y-110120359D01*
X199763631Y-109946504D01*
X199763369Y-109943649D01*
X199762441Y-109940358D01*
X199707899Y-109746966D01*
X199707897Y-109746962D01*
X199707121Y-109744209D01*
X199615470Y-109558359D01*
X199598643Y-109535825D01*
X199493202Y-109394622D01*
X199493201Y-109394620D01*
X199491485Y-109392323D01*
X199339319Y-109251662D01*
X199164067Y-109141087D01*
X198971599Y-109064300D01*
X198968793Y-109063742D01*
X198968790Y-109063741D01*
X198771167Y-109024431D01*
X198771165Y-109024431D01*
X198768361Y-109023873D01*
X198670846Y-109022597D01*
X198564020Y-109021198D01*
X198564015Y-109021198D01*
X198561158Y-109021161D01*
X198558337Y-109021646D01*
X198558333Y-109021646D01*
X198455407Y-109039332D01*
X198356931Y-109056253D01*
X198354243Y-109057245D01*
X198354238Y-109057246D01*
X198165207Y-109126984D01*
X198165204Y-109126985D01*
X198162519Y-109127976D01*
X198160059Y-109129439D01*
X198160058Y-109129440D01*
X198142263Y-109140027D01*
X197984433Y-109233926D01*
X197958960Y-109256265D01*
X197836918Y-109363293D01*
X197828637Y-109370555D01*
X197826861Y-109372808D01*
X197826860Y-109372809D01*
X197794616Y-109413711D01*
X197700348Y-109533289D01*
X197656189Y-109617221D01*
X197617597Y-109690573D01*
X197603863Y-109716676D01*
X197603016Y-109719403D01*
X197603015Y-109719406D01*
X197550272Y-109889268D01*
X197542414Y-109914575D01*
X197518058Y-110120359D01*
X187509500Y-110120359D01*
X187509500Y-108089764D01*
X187522415Y-108051716D01*
X187590278Y-107963275D01*
X187592771Y-107960026D01*
X187628909Y-107872781D01*
X187644357Y-107835486D01*
X187644357Y-107835485D01*
X187645923Y-107831705D01*
X187647407Y-107820437D01*
X187663517Y-107698064D01*
X187664052Y-107694000D01*
X187659634Y-107660442D01*
X187646458Y-107560355D01*
X187646457Y-107560351D01*
X187645923Y-107556295D01*
X187626722Y-107509938D01*
X187594338Y-107431757D01*
X187592771Y-107427974D01*
X187508218Y-107317782D01*
X187398026Y-107233229D01*
X187384545Y-107227645D01*
X187273486Y-107181643D01*
X187273485Y-107181643D01*
X187269705Y-107180077D01*
X187265649Y-107179543D01*
X187265645Y-107179542D01*
X187136064Y-107162483D01*
X187132000Y-107161948D01*
X187127936Y-107162483D01*
X186998355Y-107179542D01*
X186998351Y-107179543D01*
X186994295Y-107180077D01*
X186990515Y-107181643D01*
X186990514Y-107181643D01*
X186879455Y-107227645D01*
X186865974Y-107233229D01*
X186755782Y-107317782D01*
X186671229Y-107427974D01*
X186669662Y-107431757D01*
X186637279Y-107509938D01*
X186618077Y-107556295D01*
X186617543Y-107560351D01*
X186617542Y-107560355D01*
X186604366Y-107660442D01*
X186599948Y-107694000D01*
X186600483Y-107698064D01*
X186616594Y-107820437D01*
X186618077Y-107831705D01*
X186619643Y-107835485D01*
X186619643Y-107835486D01*
X186635091Y-107872781D01*
X186671229Y-107960026D01*
X186673722Y-107963275D01*
X186741585Y-108051716D01*
X186754500Y-108089764D01*
X186754500Y-110998236D01*
X186741585Y-111036284D01*
X186705598Y-111083183D01*
X186671229Y-111127974D01*
X186669662Y-111131757D01*
X186620634Y-111250123D01*
X186618077Y-111256295D01*
X186617543Y-111260351D01*
X186617542Y-111260355D01*
X186612473Y-111298860D01*
X186599948Y-111394000D01*
X185409500Y-111394000D01*
X185409500Y-109140952D01*
X185410900Y-109127797D01*
X185411075Y-109126984D01*
X185414295Y-109112029D01*
X185412501Y-109096865D01*
X185409933Y-109075174D01*
X185409500Y-109067828D01*
X185409500Y-109062638D01*
X185406103Y-109042228D01*
X185405691Y-109039332D01*
X185404063Y-109025571D01*
X185399524Y-108987225D01*
X185397287Y-108982568D01*
X185396203Y-108978837D01*
X185394935Y-108975132D01*
X185394086Y-108970030D01*
X185369163Y-108923840D01*
X185367831Y-108921225D01*
X185346826Y-108877482D01*
X185346825Y-108877480D01*
X185345122Y-108873934D01*
X185341550Y-108869684D01*
X185341329Y-108869463D01*
X185338717Y-108866368D01*
X185336863Y-108863977D01*
X185334408Y-108859428D01*
X185294123Y-108822189D01*
X185292354Y-108820488D01*
X185032133Y-108560267D01*
X185023821Y-108549975D01*
X185017877Y-108540769D01*
X185017876Y-108540768D01*
X185015072Y-108536425D01*
X185011013Y-108533225D01*
X185011011Y-108533223D01*
X184985931Y-108513452D01*
X184980430Y-108508564D01*
X184976757Y-108504891D01*
X184974665Y-108503396D01*
X184974659Y-108503391D01*
X184959922Y-108492860D01*
X184957589Y-108491108D01*
X184916377Y-108458620D01*
X184911499Y-108456907D01*
X184908079Y-108455027D01*
X184904577Y-108453312D01*
X184900373Y-108450307D01*
X184850100Y-108435273D01*
X184847299Y-108434362D01*
X184820088Y-108424806D01*
X184797801Y-108416979D01*
X184793883Y-108416640D01*
X184793880Y-108416639D01*
X184793734Y-108416627D01*
X184792270Y-108416500D01*
X184791969Y-108416500D01*
X184787927Y-108416158D01*
X184784914Y-108415777D01*
X184779967Y-108414298D01*
X184725145Y-108416452D01*
X184722691Y-108416500D01*
X184401928Y-108416500D01*
X184357734Y-108398194D01*
X184341940Y-108371541D01*
X184335803Y-108350553D01*
X184335801Y-108350548D01*
X184335178Y-108348417D01*
X184332803Y-108343192D01*
X184276818Y-108220061D01*
X184276817Y-108220059D01*
X184275898Y-108218038D01*
X184256040Y-108186987D01*
X184162550Y-108078486D01*
X184158472Y-108074928D01*
X184151157Y-108068547D01*
X184134775Y-108054256D01*
X184014590Y-107976356D01*
X183981130Y-107960895D01*
X183843912Y-107919859D01*
X183807459Y-107914411D01*
X183805246Y-107914397D01*
X183805240Y-107914397D01*
X183734879Y-107913968D01*
X183664238Y-107913536D01*
X183662037Y-107913837D01*
X183661537Y-107913870D01*
X183657477Y-107914002D01*
X183232000Y-107914002D01*
X183228989Y-107914601D01*
X183188287Y-107922697D01*
X183188285Y-107922698D01*
X183182252Y-107923898D01*
X183140078Y-107952078D01*
X183136659Y-107957195D01*
X183133967Y-107961224D01*
X183094194Y-107987800D01*
X183047277Y-107978468D01*
X183030033Y-107961224D01*
X183027341Y-107957195D01*
X183023922Y-107952078D01*
X182981748Y-107923898D01*
X182975715Y-107922698D01*
X182975713Y-107922697D01*
X182935011Y-107914601D01*
X182932000Y-107914002D01*
X182872000Y-107914002D01*
X182827806Y-107895696D01*
X182809500Y-107851502D01*
X182809500Y-107236498D01*
X182827806Y-107192304D01*
X182872000Y-107173998D01*
X182938000Y-107173998D01*
X182951548Y-107171303D01*
X182981713Y-107165303D01*
X182981715Y-107165302D01*
X182987748Y-107164102D01*
X183029922Y-107135922D01*
X183036033Y-107126776D01*
X183075806Y-107100200D01*
X183122723Y-107109532D01*
X183139966Y-107126775D01*
X183146078Y-107135922D01*
X183188252Y-107164102D01*
X183194285Y-107165302D01*
X183194287Y-107165303D01*
X183224452Y-107171303D01*
X183238000Y-107173998D01*
X183729427Y-107173998D01*
X183730572Y-107174008D01*
X183798053Y-107175245D01*
X183834630Y-107170689D01*
X183836775Y-107170104D01*
X183836781Y-107170103D01*
X183940144Y-107141922D01*
X183972810Y-107133016D01*
X184006636Y-107118378D01*
X184008517Y-107117223D01*
X184008521Y-107117221D01*
X184126798Y-107044599D01*
X184126803Y-107044595D01*
X184128688Y-107043438D01*
X184157047Y-107019895D01*
X184253161Y-106913711D01*
X184273772Y-106883153D01*
X184277048Y-106876393D01*
X184335248Y-106756265D01*
X184336219Y-106754261D01*
X184343744Y-106730682D01*
X184346750Y-106721264D01*
X184346751Y-106721260D01*
X184347425Y-106719148D01*
X184371187Y-106577910D01*
X184372979Y-106557932D01*
X184373130Y-106545590D01*
X184371827Y-106525571D01*
X184370719Y-106517830D01*
X184368629Y-106503240D01*
X184367998Y-106494380D01*
X184367998Y-106102087D01*
X184368864Y-106091718D01*
X184370057Y-106084626D01*
X184371187Y-106077910D01*
X184372979Y-106057932D01*
X184373130Y-106045590D01*
X184371827Y-106025571D01*
X184371409Y-106022648D01*
X184351838Y-105885995D01*
X184351523Y-105883794D01*
X184341178Y-105848417D01*
X184338803Y-105843192D01*
X184282818Y-105720061D01*
X184282817Y-105720059D01*
X184281898Y-105718038D01*
X184262040Y-105686987D01*
X184168550Y-105578486D01*
X184164472Y-105574928D01*
X184142458Y-105555724D01*
X184142456Y-105555723D01*
X184140775Y-105554256D01*
X184140211Y-105553890D01*
X184116103Y-105512908D01*
X184115500Y-105504246D01*
X184115500Y-105378504D01*
X197959488Y-105378504D01*
X197961459Y-105383261D01*
X198072577Y-105457509D01*
X198077587Y-105460229D01*
X198274964Y-105545028D01*
X198280381Y-105546788D01*
X198489908Y-105594200D01*
X198495556Y-105594943D01*
X198710212Y-105603377D01*
X198715907Y-105603078D01*
X198928499Y-105572254D01*
X198934048Y-105570922D01*
X199137461Y-105501872D01*
X199142674Y-105499551D01*
X199330097Y-105394589D01*
X199334805Y-105391353D01*
X199338189Y-105388539D01*
X199342619Y-105380119D01*
X199340522Y-105373365D01*
X198658790Y-104691633D01*
X198650000Y-104687992D01*
X198641210Y-104691633D01*
X197963129Y-105369714D01*
X197959488Y-105378504D01*
X184115500Y-105378504D01*
X184115500Y-104371317D01*
X197445460Y-104371317D01*
X197459508Y-104585663D01*
X197460402Y-104591306D01*
X197513278Y-104799505D01*
X197515185Y-104804889D01*
X197605117Y-104999966D01*
X197607973Y-105004913D01*
X197664678Y-105085149D01*
X197672726Y-105090227D01*
X197678159Y-105088998D01*
X198358367Y-104408790D01*
X198362008Y-104400000D01*
X198937992Y-104400000D01*
X198941633Y-104408790D01*
X199621800Y-105088957D01*
X199630590Y-105092598D01*
X199637123Y-105089892D01*
X199641353Y-105084805D01*
X199644589Y-105080097D01*
X199749551Y-104892674D01*
X199751872Y-104887461D01*
X199820922Y-104684048D01*
X199822254Y-104678499D01*
X199853226Y-104464888D01*
X199853537Y-104461243D01*
X199855093Y-104401826D01*
X199854974Y-104398179D01*
X199835223Y-104183235D01*
X199834182Y-104177617D01*
X199775874Y-103970873D01*
X199773831Y-103965551D01*
X199678818Y-103772884D01*
X199675838Y-103768021D01*
X199635816Y-103714425D01*
X199627640Y-103709561D01*
X199621798Y-103711045D01*
X198941633Y-104391210D01*
X198937992Y-104400000D01*
X198362008Y-104400000D01*
X198358367Y-104391210D01*
X197679595Y-103712438D01*
X197670805Y-103708797D01*
X197664778Y-103711294D01*
X197641053Y-103741389D01*
X197637954Y-103746162D01*
X197537926Y-103936283D01*
X197535747Y-103941543D01*
X197472042Y-104146707D01*
X197470858Y-104152277D01*
X197445609Y-104365605D01*
X197445460Y-104371317D01*
X184115500Y-104371317D01*
X184115500Y-104181944D01*
X184128415Y-104143897D01*
X184190276Y-104063278D01*
X184190278Y-104063275D01*
X184192771Y-104060026D01*
X184195981Y-104052278D01*
X184244357Y-103935486D01*
X184244357Y-103935485D01*
X184245923Y-103931705D01*
X184251422Y-103889940D01*
X184263517Y-103798064D01*
X184264052Y-103794000D01*
X184256349Y-103735486D01*
X184246458Y-103660355D01*
X184246457Y-103660351D01*
X184245923Y-103656295D01*
X184243961Y-103651557D01*
X184194338Y-103531757D01*
X184192771Y-103527974D01*
X184156019Y-103480077D01*
X184110708Y-103421027D01*
X184110100Y-103420234D01*
X197956801Y-103420234D01*
X197957432Y-103424589D01*
X198641210Y-104108367D01*
X198650000Y-104112008D01*
X198658790Y-104108367D01*
X199337830Y-103429327D01*
X199341471Y-103420537D01*
X199339649Y-103416139D01*
X199199544Y-103327740D01*
X199194466Y-103325152D01*
X198994936Y-103245547D01*
X198989470Y-103243928D01*
X198778778Y-103202019D01*
X198773114Y-103201424D01*
X198558308Y-103198611D01*
X198552621Y-103199059D01*
X198340917Y-103235437D01*
X198335394Y-103236916D01*
X198133861Y-103311265D01*
X198128712Y-103313721D01*
X197962493Y-103412611D01*
X197956801Y-103420234D01*
X184110100Y-103420234D01*
X184108218Y-103417782D01*
X183998026Y-103333229D01*
X183984535Y-103327641D01*
X183873486Y-103281643D01*
X183873485Y-103281643D01*
X183869705Y-103280077D01*
X183865649Y-103279543D01*
X183865645Y-103279542D01*
X183736064Y-103262483D01*
X183732000Y-103261948D01*
X183727936Y-103262483D01*
X183598355Y-103279542D01*
X183598351Y-103279543D01*
X183594295Y-103280077D01*
X183590515Y-103281643D01*
X183590514Y-103281643D01*
X183479465Y-103327641D01*
X183465974Y-103333229D01*
X183355782Y-103417782D01*
X183353292Y-103421027D01*
X183307982Y-103480077D01*
X183271229Y-103527974D01*
X183269662Y-103531757D01*
X183220040Y-103651557D01*
X183218077Y-103656295D01*
X183217543Y-103660351D01*
X183217542Y-103660355D01*
X183207651Y-103735486D01*
X183199948Y-103794000D01*
X183200483Y-103798064D01*
X183212579Y-103889940D01*
X183218077Y-103931705D01*
X183219643Y-103935485D01*
X183219643Y-103935486D01*
X183266722Y-104049144D01*
X183271229Y-104060026D01*
X183345097Y-104156292D01*
X183347585Y-104159535D01*
X183360500Y-104197583D01*
X183360500Y-105351502D01*
X183342194Y-105395696D01*
X183298000Y-105414002D01*
X183238000Y-105414002D01*
X183234989Y-105414601D01*
X183194287Y-105422697D01*
X183194285Y-105422698D01*
X183188252Y-105423898D01*
X183146078Y-105452078D01*
X183142659Y-105457195D01*
X183139967Y-105461224D01*
X183100194Y-105487800D01*
X183053277Y-105478468D01*
X183036033Y-105461224D01*
X183033341Y-105457195D01*
X183029922Y-105452078D01*
X182987748Y-105423898D01*
X182981715Y-105422698D01*
X182981713Y-105422697D01*
X182941011Y-105414601D01*
X182938000Y-105414002D01*
X182446732Y-105414002D01*
X182446350Y-105414001D01*
X182370238Y-105413536D01*
X182333721Y-105418539D01*
X182196012Y-105457896D01*
X182162366Y-105472946D01*
X182041238Y-105549372D01*
X182013169Y-105573261D01*
X181918361Y-105680612D01*
X181917140Y-105682470D01*
X181917139Y-105682472D01*
X181907124Y-105697718D01*
X181898125Y-105711418D01*
X181897180Y-105713431D01*
X181838200Y-105839051D01*
X181838197Y-105839059D01*
X181837256Y-105841063D01*
X181836606Y-105843190D01*
X181836605Y-105843192D01*
X181835627Y-105846393D01*
X181826480Y-105876312D01*
X181804446Y-106017830D01*
X181804419Y-106020053D01*
X181804092Y-106046795D01*
X181803995Y-106054684D01*
X181807032Y-106077910D01*
X181807474Y-106081289D01*
X181808002Y-106089393D01*
X181808002Y-106490154D01*
X181807258Y-106499769D01*
X181804446Y-106517830D01*
X181804419Y-106520053D01*
X181804092Y-106546795D01*
X181803995Y-106554684D01*
X181822565Y-106696698D01*
X181832478Y-106732200D01*
X181833373Y-106734233D01*
X181833374Y-106734237D01*
X181860466Y-106795806D01*
X181890161Y-106863293D01*
X181909637Y-106894584D01*
X182001794Y-107004219D01*
X182029272Y-107028786D01*
X182030335Y-107029493D01*
X182053998Y-107070865D01*
X182054500Y-107078772D01*
X182054500Y-108004099D01*
X182036194Y-108048293D01*
X182032508Y-108051694D01*
X182008871Y-108071812D01*
X182008867Y-108071815D01*
X182007169Y-108073261D01*
X181912361Y-108180612D01*
X181892125Y-108211418D01*
X181888067Y-108220061D01*
X181832200Y-108339051D01*
X181832197Y-108339059D01*
X181831256Y-108341063D01*
X181830606Y-108343190D01*
X181830605Y-108343192D01*
X181821939Y-108371541D01*
X181820480Y-108376312D01*
X181798446Y-108517830D01*
X181798419Y-108520053D01*
X181798053Y-108549975D01*
X181797995Y-108554684D01*
X181799420Y-108565583D01*
X181801474Y-108581289D01*
X181802002Y-108589393D01*
X181802002Y-108990154D01*
X181801258Y-108999769D01*
X181798446Y-109017830D01*
X181797995Y-109054684D01*
X181816565Y-109196698D01*
X181826478Y-109232200D01*
X181827373Y-109234233D01*
X181827374Y-109234237D01*
X181835251Y-109252138D01*
X181884161Y-109363293D01*
X181903637Y-109394584D01*
X181995794Y-109504219D01*
X182023272Y-109528786D01*
X182026638Y-109531027D01*
X182026866Y-109531366D01*
X182026880Y-109531377D01*
X182026876Y-109531382D01*
X182053279Y-109570755D01*
X182054500Y-109583050D01*
X182054500Y-110504099D01*
X182036194Y-110548293D01*
X182032508Y-110551694D01*
X182008871Y-110571812D01*
X182008867Y-110571815D01*
X182007169Y-110573261D01*
X181912361Y-110680612D01*
X181892125Y-110711418D01*
X181890100Y-110715732D01*
X181832200Y-110839051D01*
X181832197Y-110839059D01*
X181831256Y-110841063D01*
X181830606Y-110843190D01*
X181830605Y-110843192D01*
X181827576Y-110853099D01*
X181820480Y-110876312D01*
X181819692Y-110876071D01*
X181793445Y-110912963D01*
X181760261Y-110922500D01*
X181248350Y-110922500D01*
X181213629Y-110911968D01*
X181147423Y-110867730D01*
X181103147Y-110858923D01*
X181073869Y-110853099D01*
X181073866Y-110853099D01*
X181070856Y-110852500D01*
X180749144Y-110852500D01*
X180746134Y-110853099D01*
X180746131Y-110853099D01*
X180716853Y-110858923D01*
X180672577Y-110867730D01*
X180667460Y-110871149D01*
X180667458Y-110871150D01*
X180643157Y-110887388D01*
X180585748Y-110925748D01*
X180582329Y-110930865D01*
X180531728Y-111006594D01*
X180527730Y-111012577D01*
X180521402Y-111044392D01*
X180513686Y-111083183D01*
X180512500Y-111089144D01*
X180512500Y-111510856D01*
X180513099Y-111513866D01*
X180513099Y-111513869D01*
X180516647Y-111531705D01*
X180527730Y-111587423D01*
X180585748Y-111674252D01*
X180619340Y-111696698D01*
X180627874Y-111702400D01*
X180654450Y-111742174D01*
X180645118Y-111789090D01*
X180619565Y-111811011D01*
X180546934Y-111844880D01*
X180538108Y-111851060D01*
X180461060Y-111928108D01*
X180454880Y-111936934D01*
X180418709Y-112014502D01*
X180383441Y-112046819D01*
X180335651Y-112044732D01*
X180310098Y-112022811D01*
X180304547Y-112014502D01*
X180252857Y-111937143D01*
X180200277Y-111902010D01*
X180173701Y-111862236D01*
X180172500Y-111850043D01*
X180172500Y-111735557D01*
X180190806Y-111691363D01*
X180200273Y-111683593D01*
X180214252Y-111674252D01*
X180272270Y-111587423D01*
X180283353Y-111531705D01*
X180286901Y-111513869D01*
X180286901Y-111513866D01*
X180287500Y-111510856D01*
X180287500Y-111089144D01*
X180286315Y-111083183D01*
X180278598Y-111044392D01*
X180272270Y-111012577D01*
X180268273Y-111006594D01*
X180217671Y-110930865D01*
X180214252Y-110925748D01*
X180156843Y-110887388D01*
X180132542Y-110871150D01*
X180132540Y-110871149D01*
X180127423Y-110867730D01*
X180083147Y-110858923D01*
X180053869Y-110853099D01*
X180053866Y-110853099D01*
X180050856Y-110852500D01*
X179729144Y-110852500D01*
X179726134Y-110853099D01*
X179726131Y-110853099D01*
X179696853Y-110858923D01*
X179652577Y-110867730D01*
X179647460Y-110871149D01*
X179647458Y-110871150D01*
X179623157Y-110887388D01*
X179565748Y-110925748D01*
X179562329Y-110930865D01*
X179511728Y-111006594D01*
X179507730Y-111012577D01*
X179501402Y-111044392D01*
X179493686Y-111083183D01*
X179492500Y-111089144D01*
X179492500Y-111510856D01*
X179493099Y-111513866D01*
X179493099Y-111513869D01*
X179496647Y-111531705D01*
X179507730Y-111587423D01*
X179565748Y-111674252D01*
X179638987Y-111723189D01*
X179639723Y-111723681D01*
X179666299Y-111763455D01*
X179667500Y-111775648D01*
X179667500Y-111850043D01*
X179649194Y-111894237D01*
X179639723Y-111902010D01*
X179587143Y-111937143D01*
X179535454Y-112014502D01*
X179531965Y-112019723D01*
X179492191Y-112046299D01*
X179479998Y-112047500D01*
X179457030Y-112047500D01*
X179444836Y-112046299D01*
X179426000Y-112042552D01*
X179419962Y-112043753D01*
X179415041Y-112044732D01*
X179327479Y-112062150D01*
X179243957Y-112117957D01*
X179240538Y-112123074D01*
X179233287Y-112133926D01*
X179225514Y-112143397D01*
X179120490Y-112248421D01*
X179075914Y-112266726D01*
X178977838Y-112266127D01*
X178977837Y-112266127D01*
X178973385Y-112266100D01*
X178855644Y-112299751D01*
X178752080Y-112365095D01*
X178749137Y-112368427D01*
X178749135Y-112368429D01*
X178702315Y-112421442D01*
X178671018Y-112456879D01*
X178669126Y-112460909D01*
X178620868Y-112563695D01*
X178620867Y-112563698D01*
X178618976Y-112567726D01*
X178600136Y-112688724D01*
X178600713Y-112693137D01*
X178600713Y-112693138D01*
X178603147Y-112711747D01*
X178616014Y-112810145D01*
X178617807Y-112814220D01*
X178660565Y-112911393D01*
X178665333Y-112922230D01*
X178692265Y-112954270D01*
X178739690Y-113010689D01*
X178744127Y-113015968D01*
X178747832Y-113018434D01*
X178747834Y-113018436D01*
X178805244Y-113056651D01*
X178846064Y-113083823D01*
X178962948Y-113120340D01*
X178967398Y-113120422D01*
X178967401Y-113120422D01*
X179017074Y-113121332D01*
X179085383Y-113122584D01*
X179138088Y-113108215D01*
X179199226Y-113091548D01*
X179199229Y-113091547D01*
X179203527Y-113090375D01*
X179207323Y-113088044D01*
X179207326Y-113088043D01*
X179304083Y-113028633D01*
X179307881Y-113026301D01*
X179390058Y-112935513D01*
X179443451Y-112825311D01*
X179446003Y-112810145D01*
X179461410Y-112718560D01*
X179463767Y-112704552D01*
X179463896Y-112694000D01*
X179463554Y-112691611D01*
X179463397Y-112689197D01*
X179464307Y-112689138D01*
X179475447Y-112645570D01*
X179516597Y-112621179D01*
X179562942Y-112633029D01*
X179577431Y-112648323D01*
X179583722Y-112657738D01*
X179583724Y-112657740D01*
X179587143Y-112662857D01*
X179592260Y-112666276D01*
X179670508Y-112718560D01*
X179670510Y-112718561D01*
X179675627Y-112721980D01*
X179709975Y-112728812D01*
X179750639Y-112736901D01*
X179750642Y-112736901D01*
X179753652Y-112737500D01*
X180086348Y-112737500D01*
X180089358Y-112736901D01*
X180089361Y-112736901D01*
X180130025Y-112728812D01*
X180164373Y-112721980D01*
X180169490Y-112718561D01*
X180169492Y-112718560D01*
X180247740Y-112666276D01*
X180252857Y-112662857D01*
X180310099Y-112577189D01*
X180349872Y-112550613D01*
X180396788Y-112559945D01*
X180418709Y-112585498D01*
X180454880Y-112663066D01*
X180461060Y-112671892D01*
X180538108Y-112748940D01*
X180546933Y-112755120D01*
X180646311Y-112801460D01*
X180655385Y-112804105D01*
X180667673Y-112805723D01*
X180676865Y-112803260D01*
X180680000Y-112797830D01*
X180680000Y-112794915D01*
X181080000Y-112794915D01*
X181083641Y-112803705D01*
X181089433Y-112806104D01*
X181104615Y-112804105D01*
X181113689Y-112801460D01*
X181213067Y-112755120D01*
X181221892Y-112748940D01*
X181298940Y-112671892D01*
X181305120Y-112663067D01*
X181351460Y-112563689D01*
X181354105Y-112554615D01*
X181359733Y-112511871D01*
X181359737Y-112511797D01*
X181356359Y-112503641D01*
X181347569Y-112500000D01*
X181092431Y-112500000D01*
X181083641Y-112503641D01*
X181080000Y-112512431D01*
X181080000Y-112794915D01*
X180680000Y-112794915D01*
X180680000Y-112162500D01*
X180698306Y-112118306D01*
X180742500Y-112100000D01*
X181347569Y-112100000D01*
X181356359Y-112096359D01*
X181359737Y-112088203D01*
X181359733Y-112088129D01*
X181354105Y-112045385D01*
X181351460Y-112036311D01*
X181305120Y-111936933D01*
X181298940Y-111928108D01*
X181221892Y-111851060D01*
X181213067Y-111844880D01*
X181175773Y-111827490D01*
X181143456Y-111792222D01*
X181145543Y-111744432D01*
X181167463Y-111718880D01*
X181213626Y-111688034D01*
X181248350Y-111677500D01*
X181763765Y-111677500D01*
X181807959Y-111695806D01*
X181823962Y-111723189D01*
X181826478Y-111732200D01*
X181827373Y-111734233D01*
X181827374Y-111734237D01*
X181852889Y-111792222D01*
X181884161Y-111863293D01*
X181903637Y-111894584D01*
X181995794Y-112004219D01*
X182023272Y-112028786D01*
X182058478Y-112052221D01*
X182140641Y-112106914D01*
X182140646Y-112106917D01*
X182142497Y-112108149D01*
X182144501Y-112109105D01*
X182144503Y-112109106D01*
X182149952Y-112111705D01*
X182175765Y-112124017D01*
X182177891Y-112124681D01*
X182177893Y-112124682D01*
X182310351Y-112166065D01*
X182310355Y-112166066D01*
X182312471Y-112166727D01*
X182314657Y-112167081D01*
X182314661Y-112167082D01*
X182329901Y-112169550D01*
X182348854Y-112172620D01*
X182351070Y-112172661D01*
X182351074Y-112172661D01*
X182420454Y-112173933D01*
X182492053Y-112175245D01*
X182498220Y-112174477D01*
X182505944Y-112173998D01*
X182932000Y-112173998D01*
X182940717Y-112172264D01*
X182975713Y-112165303D01*
X182975715Y-112165302D01*
X182981748Y-112164102D01*
X183023922Y-112135922D01*
X183030033Y-112126776D01*
X183069806Y-112100200D01*
X183116723Y-112109532D01*
X183133966Y-112126775D01*
X183140078Y-112135922D01*
X183182252Y-112164102D01*
X183188285Y-112165302D01*
X183188287Y-112165303D01*
X183223283Y-112172264D01*
X183232000Y-112173998D01*
X183292000Y-112173998D01*
X183336194Y-112192304D01*
X183354500Y-112236498D01*
X183354500Y-112911746D01*
X183336194Y-112955940D01*
X181793940Y-114498194D01*
X181749746Y-114516500D01*
X178567110Y-114516500D01*
X178522916Y-114498194D01*
X178504610Y-114454000D01*
X178520773Y-114412058D01*
X178552768Y-114376711D01*
X178590058Y-114335513D01*
X178643451Y-114225311D01*
X178644210Y-114220805D01*
X178658998Y-114132899D01*
X178663767Y-114104552D01*
X178663896Y-114094000D01*
X178646536Y-113972781D01*
X178609580Y-113891500D01*
X178597696Y-113865362D01*
X178597695Y-113865360D01*
X178595852Y-113861307D01*
X178592592Y-113857523D01*
X178518826Y-113771914D01*
X178515918Y-113768539D01*
X178413160Y-113701935D01*
X178295838Y-113666848D01*
X178234612Y-113666474D01*
X178177838Y-113666127D01*
X178177837Y-113666127D01*
X178173385Y-113666100D01*
X178169104Y-113667324D01*
X178169101Y-113667324D01*
X178144268Y-113674421D01*
X178096745Y-113668964D01*
X178082900Y-113658521D01*
X177407149Y-112982771D01*
X177402469Y-112976167D01*
X177401983Y-112976553D01*
X177397600Y-112971042D01*
X177394554Y-112964699D01*
X177389060Y-112960305D01*
X177389058Y-112960303D01*
X177369914Y-112944994D01*
X177364755Y-112940377D01*
X177359045Y-112934667D01*
X177356077Y-112932802D01*
X177356075Y-112932800D01*
X177352504Y-112930556D01*
X177346728Y-112926451D01*
X177327899Y-112911393D01*
X177327896Y-112911392D01*
X177322401Y-112906997D01*
X177315543Y-112905420D01*
X177311182Y-112903312D01*
X177306610Y-112901711D01*
X177300651Y-112897965D01*
X177293658Y-112897174D01*
X177293657Y-112897174D01*
X177269706Y-112894466D01*
X177262724Y-112893273D01*
X177258460Y-112892293D01*
X177255011Y-112891500D01*
X177246985Y-112891500D01*
X177239964Y-112891104D01*
X177236311Y-112890691D01*
X177208847Y-112887586D01*
X177202202Y-112889907D01*
X177195206Y-112890691D01*
X177195143Y-112890126D01*
X177187038Y-112891500D01*
X175823858Y-112891500D01*
X175779664Y-112873194D01*
X172452764Y-109546294D01*
X175007001Y-109546294D01*
X175007140Y-109549238D01*
X175009620Y-109575485D01*
X175011239Y-109582865D01*
X175053264Y-109702537D01*
X175057591Y-109710707D01*
X175132433Y-109812035D01*
X175138965Y-109818567D01*
X175240293Y-109893409D01*
X175248463Y-109897736D01*
X175368133Y-109939760D01*
X175375517Y-109941380D01*
X175401765Y-109943862D01*
X175404704Y-109944000D01*
X175719569Y-109944000D01*
X175728359Y-109940359D01*
X175732000Y-109931569D01*
X175732000Y-109931568D01*
X176132000Y-109931568D01*
X176135641Y-109940358D01*
X176144431Y-109943999D01*
X176459294Y-109943999D01*
X176462238Y-109943860D01*
X176488485Y-109941380D01*
X176495865Y-109939761D01*
X176615537Y-109897736D01*
X176623707Y-109893409D01*
X176725035Y-109818567D01*
X176731567Y-109812035D01*
X176806409Y-109710707D01*
X176810736Y-109702537D01*
X176852760Y-109582867D01*
X176854380Y-109575483D01*
X176856862Y-109549235D01*
X176857000Y-109546296D01*
X176857000Y-109456431D01*
X176853359Y-109447641D01*
X176844569Y-109444000D01*
X176144431Y-109444000D01*
X176135641Y-109447641D01*
X176132000Y-109456431D01*
X176132000Y-109931568D01*
X175732000Y-109931568D01*
X175732000Y-109456431D01*
X175728359Y-109447641D01*
X175719569Y-109444000D01*
X175019432Y-109444000D01*
X175010642Y-109447641D01*
X175007001Y-109456431D01*
X175007001Y-109546294D01*
X172452764Y-109546294D01*
X171938039Y-109031569D01*
X175007000Y-109031569D01*
X175010641Y-109040359D01*
X175019431Y-109044000D01*
X175719569Y-109044000D01*
X175728359Y-109040359D01*
X175732000Y-109031569D01*
X176132000Y-109031569D01*
X176135641Y-109040359D01*
X176144431Y-109044000D01*
X176844568Y-109044000D01*
X176853358Y-109040359D01*
X176856999Y-109031569D01*
X176856999Y-108941706D01*
X176856860Y-108938762D01*
X176854380Y-108912515D01*
X176852761Y-108905135D01*
X176810736Y-108785463D01*
X176806409Y-108777293D01*
X176731567Y-108675965D01*
X176725035Y-108669433D01*
X176623707Y-108594591D01*
X176615537Y-108590264D01*
X176495867Y-108548240D01*
X176488483Y-108546620D01*
X176462235Y-108544138D01*
X176459296Y-108544000D01*
X176144431Y-108544000D01*
X176135641Y-108547641D01*
X176132000Y-108556431D01*
X176132000Y-109031569D01*
X175732000Y-109031569D01*
X175732000Y-108556432D01*
X175728359Y-108547642D01*
X175719569Y-108544001D01*
X175404706Y-108544001D01*
X175401762Y-108544140D01*
X175375515Y-108546620D01*
X175368135Y-108548239D01*
X175248463Y-108590264D01*
X175240293Y-108594591D01*
X175138965Y-108669433D01*
X175132433Y-108675965D01*
X175057591Y-108777293D01*
X175053264Y-108785463D01*
X175011240Y-108905133D01*
X175009620Y-108912517D01*
X175007138Y-108938765D01*
X175007000Y-108941704D01*
X175007000Y-109031569D01*
X171938039Y-109031569D01*
X169605241Y-106698771D01*
X169600560Y-106692166D01*
X169600075Y-106692552D01*
X169595692Y-106687041D01*
X169592646Y-106680699D01*
X169587152Y-106676306D01*
X169587151Y-106676304D01*
X169568006Y-106660994D01*
X169562847Y-106656377D01*
X169557137Y-106650667D01*
X169554169Y-106648802D01*
X169554167Y-106648800D01*
X169550596Y-106646556D01*
X169544820Y-106642451D01*
X169525991Y-106627393D01*
X169525988Y-106627392D01*
X169520493Y-106622997D01*
X169513635Y-106621420D01*
X169509274Y-106619312D01*
X169504702Y-106617711D01*
X169498743Y-106613965D01*
X169491750Y-106613174D01*
X169491749Y-106613174D01*
X169467798Y-106610466D01*
X169460816Y-106609273D01*
X169456552Y-106608293D01*
X169453103Y-106607500D01*
X169445077Y-106607500D01*
X169438056Y-106607104D01*
X169434403Y-106606691D01*
X169406939Y-106603586D01*
X169400294Y-106605907D01*
X169393298Y-106606691D01*
X169393235Y-106606126D01*
X169385130Y-106607500D01*
X163687197Y-106607500D01*
X163643003Y-106589194D01*
X163632427Y-106573366D01*
X163632270Y-106572577D01*
X163574252Y-106485748D01*
X163546574Y-106467254D01*
X163492542Y-106431150D01*
X163492540Y-106431149D01*
X163487423Y-106427730D01*
X163453629Y-106421008D01*
X163413869Y-106413099D01*
X163413866Y-106413099D01*
X163410856Y-106412500D01*
X162989144Y-106412500D01*
X162986134Y-106413099D01*
X162986131Y-106413099D01*
X162946371Y-106421008D01*
X162912577Y-106427730D01*
X162907460Y-106431149D01*
X162907458Y-106431150D01*
X162853426Y-106467254D01*
X162825748Y-106485748D01*
X162822331Y-106490862D01*
X162822328Y-106490865D01*
X162803046Y-106519723D01*
X162763272Y-106546299D01*
X162751079Y-106547500D01*
X162230134Y-106547500D01*
X162185940Y-106529194D01*
X162172391Y-106508917D01*
X162171303Y-106506291D01*
X162170102Y-106500252D01*
X162166179Y-106494380D01*
X162145341Y-106463195D01*
X162141922Y-106458078D01*
X162130907Y-106450718D01*
X162104867Y-106433318D01*
X162104865Y-106433317D01*
X162099748Y-106429898D01*
X162093709Y-106428697D01*
X162091083Y-106427609D01*
X162057258Y-106393784D01*
X162052500Y-106369866D01*
X162052500Y-106136593D01*
X162070806Y-106092399D01*
X162080277Y-106084626D01*
X162107740Y-106066276D01*
X162112857Y-106062857D01*
X162137771Y-106025571D01*
X162155235Y-105999434D01*
X162684632Y-105999434D01*
X162685798Y-106008296D01*
X162688445Y-106017379D01*
X162734039Y-106115155D01*
X162740219Y-106123980D01*
X162816020Y-106199781D01*
X162824845Y-106205961D01*
X162922625Y-106251556D01*
X162931699Y-106254201D01*
X162973714Y-106259733D01*
X162977792Y-106260000D01*
X162987569Y-106260000D01*
X162996359Y-106256359D01*
X163000000Y-106247569D01*
X163000000Y-106247568D01*
X163400000Y-106247568D01*
X163403641Y-106256358D01*
X163412431Y-106259999D01*
X163422207Y-106259999D01*
X163426287Y-106259731D01*
X163468302Y-106254201D01*
X163477374Y-106251557D01*
X163575155Y-106205961D01*
X163583980Y-106199781D01*
X163623077Y-106160684D01*
X170165995Y-106160684D01*
X170184565Y-106302698D01*
X170194478Y-106338200D01*
X170195373Y-106340233D01*
X170195374Y-106340237D01*
X170209786Y-106372990D01*
X170252161Y-106469293D01*
X170271637Y-106500584D01*
X170363794Y-106610219D01*
X170391272Y-106634786D01*
X170415130Y-106650667D01*
X170508641Y-106712914D01*
X170508646Y-106712917D01*
X170510497Y-106714149D01*
X170512501Y-106715105D01*
X170512503Y-106715106D01*
X170525414Y-106721264D01*
X170543765Y-106730017D01*
X170545891Y-106730681D01*
X170545893Y-106730682D01*
X170678351Y-106772065D01*
X170678355Y-106772066D01*
X170680471Y-106772727D01*
X170682657Y-106773081D01*
X170682661Y-106773082D01*
X170697901Y-106775550D01*
X170716854Y-106778620D01*
X170719070Y-106778661D01*
X170719074Y-106778661D01*
X170788454Y-106779933D01*
X170860053Y-106781245D01*
X170866220Y-106780477D01*
X170873944Y-106779998D01*
X171350000Y-106779998D01*
X171362558Y-106777500D01*
X171393713Y-106771303D01*
X171393715Y-106771302D01*
X171399748Y-106770102D01*
X171440277Y-106743021D01*
X171487193Y-106733689D01*
X171509722Y-106743021D01*
X171550252Y-106770102D01*
X171556285Y-106771302D01*
X171556287Y-106771303D01*
X171580419Y-106776103D01*
X171587442Y-106777500D01*
X171598598Y-106777500D01*
X171642792Y-106795806D01*
X171661098Y-106840000D01*
X171656340Y-106863918D01*
X171619645Y-106952508D01*
X171619644Y-106952512D01*
X171618077Y-106956295D01*
X171617543Y-106960351D01*
X171617542Y-106960355D01*
X171602994Y-107070865D01*
X171599948Y-107094000D01*
X171600483Y-107098064D01*
X171616809Y-107222070D01*
X171618077Y-107231705D01*
X171619643Y-107235485D01*
X171619643Y-107235486D01*
X171643587Y-107293292D01*
X171671229Y-107360026D01*
X171673722Y-107363275D01*
X171693994Y-107389694D01*
X171755782Y-107470218D01*
X171865974Y-107554771D01*
X171869757Y-107556338D01*
X171979839Y-107601935D01*
X171994295Y-107607923D01*
X171998351Y-107608457D01*
X171998355Y-107608458D01*
X172127936Y-107625517D01*
X172132000Y-107626052D01*
X172136064Y-107625517D01*
X172265645Y-107608458D01*
X172265649Y-107608457D01*
X172269705Y-107607923D01*
X172284162Y-107601935D01*
X172394243Y-107556338D01*
X172398026Y-107554771D01*
X172508218Y-107470218D01*
X172570006Y-107389694D01*
X172590278Y-107363275D01*
X172592771Y-107360026D01*
X172620413Y-107293292D01*
X172644357Y-107235486D01*
X172644357Y-107235485D01*
X172645923Y-107231705D01*
X172647192Y-107222070D01*
X172663517Y-107098064D01*
X172664052Y-107094000D01*
X172661006Y-107070865D01*
X172659341Y-107058219D01*
X175079500Y-107058219D01*
X175079501Y-107629780D01*
X175090422Y-107703979D01*
X175145810Y-107816790D01*
X175149462Y-107820436D01*
X175149463Y-107820437D01*
X175231098Y-107901930D01*
X175231100Y-107901932D01*
X175234753Y-107905578D01*
X175239393Y-107907846D01*
X175338402Y-107956243D01*
X175347661Y-107960769D01*
X175352464Y-107961470D01*
X175352465Y-107961470D01*
X175374440Y-107964676D01*
X175421219Y-107971500D01*
X175499637Y-107971500D01*
X176369246Y-107971499D01*
X176413440Y-107989805D01*
X176528586Y-108104951D01*
X176541599Y-108123973D01*
X176580076Y-108211418D01*
X176584833Y-108222230D01*
X176663627Y-108315968D01*
X176667332Y-108318434D01*
X176667334Y-108318436D01*
X176712374Y-108348417D01*
X176765564Y-108383823D01*
X176882448Y-108420340D01*
X176886898Y-108420422D01*
X176886901Y-108420422D01*
X176936574Y-108421332D01*
X177004883Y-108422584D01*
X177063880Y-108406500D01*
X177118726Y-108391548D01*
X177118729Y-108391547D01*
X177123027Y-108390375D01*
X177126823Y-108388044D01*
X177126826Y-108388043D01*
X177223583Y-108328633D01*
X177227381Y-108326301D01*
X177309558Y-108235513D01*
X177362951Y-108125311D01*
X177364982Y-108113242D01*
X177382867Y-108006928D01*
X177383267Y-108004552D01*
X177383396Y-107994000D01*
X177366036Y-107872781D01*
X177315352Y-107761307D01*
X177235418Y-107668539D01*
X177132660Y-107601935D01*
X177091630Y-107589664D01*
X177065345Y-107573979D01*
X176802805Y-107311440D01*
X176784499Y-107267246D01*
X176784499Y-107058220D01*
X176773578Y-106984021D01*
X176771438Y-106979662D01*
X176720466Y-106875845D01*
X176720465Y-106875844D01*
X176718190Y-106871210D01*
X176714537Y-106867563D01*
X176632902Y-106786070D01*
X176632900Y-106786068D01*
X176629247Y-106782422D01*
X176548642Y-106743021D01*
X176520699Y-106729362D01*
X176520698Y-106729362D01*
X176516339Y-106727231D01*
X176511536Y-106726530D01*
X176511535Y-106726530D01*
X176488852Y-106723221D01*
X176442781Y-106716500D01*
X175933349Y-106716500D01*
X175421220Y-106716501D01*
X175347021Y-106727422D01*
X175342663Y-106729562D01*
X175342662Y-106729562D01*
X175238845Y-106780534D01*
X175238844Y-106780535D01*
X175234210Y-106782810D01*
X175230564Y-106786462D01*
X175230563Y-106786463D01*
X175149070Y-106868098D01*
X175149068Y-106868100D01*
X175145422Y-106871753D01*
X175143154Y-106876393D01*
X175092675Y-106979662D01*
X175090231Y-106984661D01*
X175079500Y-107058219D01*
X172659341Y-107058219D01*
X172646458Y-106960355D01*
X172646457Y-106960351D01*
X172645923Y-106956295D01*
X172644356Y-106952512D01*
X172644355Y-106952508D01*
X172604106Y-106855338D01*
X172604105Y-106807502D01*
X172637930Y-106773678D01*
X172638113Y-106773622D01*
X172643712Y-106771303D01*
X172649748Y-106770102D01*
X172690277Y-106743021D01*
X172737193Y-106733689D01*
X172759722Y-106743021D01*
X172800252Y-106770102D01*
X172806285Y-106771302D01*
X172806287Y-106771303D01*
X172837442Y-106777500D01*
X172850000Y-106779998D01*
X173391427Y-106779998D01*
X173392572Y-106780008D01*
X173460053Y-106781245D01*
X173496630Y-106776689D01*
X173498775Y-106776104D01*
X173498781Y-106776103D01*
X173624151Y-106741922D01*
X173634810Y-106739016D01*
X173668636Y-106724378D01*
X173670517Y-106723223D01*
X173670521Y-106723221D01*
X173788798Y-106650599D01*
X173788803Y-106650595D01*
X173790688Y-106649438D01*
X173819047Y-106625895D01*
X173915161Y-106519711D01*
X173935772Y-106489153D01*
X173939079Y-106482329D01*
X173997248Y-106362265D01*
X173998219Y-106360261D01*
X174005260Y-106338200D01*
X174008750Y-106327264D01*
X174008751Y-106327260D01*
X174009425Y-106325148D01*
X174033187Y-106183910D01*
X174034979Y-106163932D01*
X174035130Y-106151590D01*
X174033827Y-106131571D01*
X174032719Y-106123830D01*
X174030629Y-106109240D01*
X174029998Y-106100380D01*
X174029998Y-105708087D01*
X174030864Y-105697718D01*
X174032353Y-105688865D01*
X174033187Y-105683910D01*
X174033633Y-105678945D01*
X174034872Y-105665127D01*
X174034872Y-105665122D01*
X174034979Y-105663932D01*
X174035130Y-105651590D01*
X174033827Y-105631571D01*
X174032719Y-105623830D01*
X174021286Y-105544000D01*
X174013523Y-105489794D01*
X174003178Y-105454417D01*
X174000803Y-105449192D01*
X173944818Y-105326061D01*
X173944817Y-105326059D01*
X173943898Y-105324038D01*
X173924040Y-105292987D01*
X173830550Y-105184486D01*
X173826472Y-105180928D01*
X173804458Y-105161724D01*
X173804456Y-105161723D01*
X173802775Y-105160256D01*
X173802211Y-105159890D01*
X173778103Y-105118908D01*
X173777500Y-105110246D01*
X173777500Y-104548350D01*
X173788032Y-104513629D01*
X173832270Y-104447423D01*
X173842065Y-104398179D01*
X173846901Y-104373869D01*
X173846901Y-104373866D01*
X173847500Y-104370856D01*
X173847500Y-104049144D01*
X173832270Y-103972577D01*
X173828526Y-103966973D01*
X173777671Y-103890865D01*
X173774252Y-103885748D01*
X173727526Y-103854526D01*
X173692542Y-103831150D01*
X173692540Y-103831149D01*
X173687423Y-103827730D01*
X173653629Y-103821008D01*
X173613869Y-103813099D01*
X173613866Y-103813099D01*
X173610856Y-103812500D01*
X173189144Y-103812500D01*
X173186134Y-103813099D01*
X173186131Y-103813099D01*
X173146371Y-103821008D01*
X173112577Y-103827730D01*
X173107460Y-103831149D01*
X173107458Y-103831150D01*
X173072474Y-103854526D01*
X173025748Y-103885748D01*
X173022329Y-103890865D01*
X172971475Y-103966973D01*
X172967730Y-103972577D01*
X172952500Y-104049144D01*
X172952500Y-104370856D01*
X172953099Y-104373866D01*
X172953099Y-104373869D01*
X172957935Y-104398179D01*
X172967730Y-104447423D01*
X173011968Y-104513629D01*
X173022500Y-104548350D01*
X173022500Y-104957502D01*
X173004194Y-105001696D01*
X172960000Y-105020002D01*
X172850000Y-105020002D01*
X172846989Y-105020601D01*
X172806287Y-105028697D01*
X172806285Y-105028698D01*
X172800252Y-105029898D01*
X172759723Y-105056979D01*
X172712807Y-105066311D01*
X172690277Y-105056979D01*
X172649748Y-105029898D01*
X172643715Y-105028698D01*
X172643713Y-105028697D01*
X172615569Y-105023099D01*
X172612558Y-105022500D01*
X171587442Y-105022500D01*
X171584431Y-105023099D01*
X171556287Y-105028697D01*
X171556285Y-105028698D01*
X171550252Y-105029898D01*
X171509723Y-105056979D01*
X171462807Y-105066311D01*
X171440277Y-105056979D01*
X171399748Y-105029898D01*
X171393715Y-105028698D01*
X171393713Y-105028697D01*
X171353011Y-105020601D01*
X171350000Y-105020002D01*
X171272000Y-105020002D01*
X171227806Y-105001696D01*
X171209500Y-104957502D01*
X171209500Y-104389764D01*
X171222415Y-104351716D01*
X171290278Y-104263275D01*
X171292771Y-104260026D01*
X171316833Y-104201935D01*
X171344357Y-104135486D01*
X171344357Y-104135485D01*
X171345923Y-104131705D01*
X171346668Y-104126052D01*
X171363517Y-103998064D01*
X171364052Y-103994000D01*
X171357146Y-103941543D01*
X171346458Y-103860355D01*
X171346457Y-103860351D01*
X171345923Y-103856295D01*
X171292771Y-103727974D01*
X171269728Y-103697943D01*
X171210708Y-103621027D01*
X171208218Y-103617782D01*
X171098026Y-103533229D01*
X171080699Y-103526052D01*
X170973486Y-103481643D01*
X170973485Y-103481643D01*
X170969705Y-103480077D01*
X170965649Y-103479543D01*
X170965645Y-103479542D01*
X170836064Y-103462483D01*
X170832000Y-103461948D01*
X170827936Y-103462483D01*
X170698355Y-103479542D01*
X170698351Y-103479543D01*
X170694295Y-103480077D01*
X170690515Y-103481643D01*
X170690514Y-103481643D01*
X170583301Y-103526052D01*
X170565974Y-103533229D01*
X170455782Y-103617782D01*
X170453292Y-103621027D01*
X170394273Y-103697943D01*
X170371229Y-103727974D01*
X170318077Y-103856295D01*
X170317543Y-103860351D01*
X170317542Y-103860355D01*
X170306854Y-103941543D01*
X170299948Y-103994000D01*
X170300483Y-103998064D01*
X170317333Y-104126052D01*
X170318077Y-104131705D01*
X170319643Y-104135485D01*
X170319643Y-104135486D01*
X170347167Y-104201935D01*
X170371229Y-104260026D01*
X170373722Y-104263275D01*
X170441585Y-104351716D01*
X170454500Y-104389764D01*
X170454500Y-105088562D01*
X170436194Y-105132756D01*
X170425350Y-105141420D01*
X170421461Y-105143874D01*
X170403238Y-105155372D01*
X170375169Y-105179261D01*
X170280361Y-105286612D01*
X170260125Y-105317418D01*
X170257897Y-105322164D01*
X170200200Y-105445051D01*
X170200197Y-105445059D01*
X170199256Y-105447063D01*
X170198606Y-105449190D01*
X170198605Y-105449192D01*
X170190981Y-105474132D01*
X170188480Y-105482312D01*
X170166446Y-105623830D01*
X170166419Y-105626053D01*
X170166092Y-105652795D01*
X170165995Y-105660684D01*
X170169474Y-105687289D01*
X170170002Y-105695393D01*
X170170002Y-106096154D01*
X170169258Y-106105769D01*
X170166446Y-106123830D01*
X170166419Y-106126053D01*
X170166092Y-106152795D01*
X170165995Y-106160684D01*
X163623077Y-106160684D01*
X163659781Y-106123980D01*
X163665961Y-106115155D01*
X163711556Y-106017377D01*
X163714201Y-106008300D01*
X163714988Y-106002327D01*
X163712525Y-105993134D01*
X163707096Y-105990000D01*
X163412431Y-105990000D01*
X163403641Y-105993641D01*
X163400000Y-106002431D01*
X163400000Y-106247568D01*
X163000000Y-106247568D01*
X163000000Y-106002431D01*
X162996359Y-105993641D01*
X162987569Y-105990000D01*
X162695821Y-105990000D01*
X162687031Y-105993641D01*
X162684632Y-105999434D01*
X162155235Y-105999434D01*
X162168560Y-105979492D01*
X162168561Y-105979490D01*
X162171980Y-105974373D01*
X162187500Y-105896348D01*
X162187500Y-105577673D01*
X162685012Y-105577673D01*
X162687475Y-105586866D01*
X162692904Y-105590000D01*
X162987569Y-105590000D01*
X162996359Y-105586359D01*
X163000000Y-105577569D01*
X163400000Y-105577569D01*
X163403641Y-105586359D01*
X163412431Y-105590000D01*
X163704179Y-105590000D01*
X163712969Y-105586359D01*
X163715368Y-105580566D01*
X163714202Y-105571704D01*
X163711555Y-105562621D01*
X163665961Y-105464845D01*
X163659781Y-105456020D01*
X163583980Y-105380219D01*
X163575155Y-105374039D01*
X163477375Y-105328444D01*
X163468301Y-105325799D01*
X163426286Y-105320267D01*
X163422208Y-105320000D01*
X163412431Y-105320000D01*
X163403641Y-105323641D01*
X163400000Y-105332431D01*
X163400000Y-105577569D01*
X163000000Y-105577569D01*
X163000000Y-105332432D01*
X162996359Y-105323642D01*
X162987569Y-105320001D01*
X162977793Y-105320001D01*
X162973713Y-105320269D01*
X162931698Y-105325799D01*
X162922626Y-105328443D01*
X162824845Y-105374039D01*
X162816020Y-105380219D01*
X162740219Y-105456020D01*
X162734039Y-105464845D01*
X162688444Y-105562623D01*
X162685799Y-105571700D01*
X162685012Y-105577673D01*
X162187500Y-105577673D01*
X162187500Y-105503652D01*
X162186685Y-105499551D01*
X162173181Y-105431666D01*
X162171980Y-105425627D01*
X162167653Y-105419150D01*
X162116276Y-105342260D01*
X162112857Y-105337143D01*
X162086349Y-105319431D01*
X162029492Y-105281440D01*
X162029490Y-105281439D01*
X162024373Y-105278020D01*
X161990025Y-105271188D01*
X161949361Y-105263099D01*
X161949358Y-105263099D01*
X161946348Y-105262500D01*
X161613652Y-105262500D01*
X161610642Y-105263099D01*
X161610639Y-105263099D01*
X161569975Y-105271188D01*
X161535627Y-105278020D01*
X161530510Y-105281439D01*
X161530508Y-105281440D01*
X161473651Y-105319431D01*
X161447143Y-105337143D01*
X161443724Y-105342260D01*
X161392348Y-105419150D01*
X161388020Y-105425627D01*
X161386819Y-105431666D01*
X161373316Y-105499551D01*
X161372500Y-105503652D01*
X161372500Y-105896348D01*
X161388020Y-105974373D01*
X161391439Y-105979490D01*
X161391440Y-105979492D01*
X161422229Y-106025571D01*
X161447143Y-106062857D01*
X161516561Y-106109240D01*
X161519723Y-106111353D01*
X161546299Y-106151127D01*
X161547500Y-106163320D01*
X161547500Y-106369866D01*
X161529194Y-106414060D01*
X161508917Y-106427609D01*
X161506291Y-106428697D01*
X161500252Y-106429898D01*
X161495135Y-106433317D01*
X161495133Y-106433318D01*
X161469093Y-106450718D01*
X161458078Y-106458078D01*
X161429898Y-106500252D01*
X161428698Y-106506285D01*
X161428697Y-106506287D01*
X161424141Y-106529194D01*
X161422500Y-106537442D01*
X161422500Y-107062558D01*
X161429898Y-107099748D01*
X161458078Y-107141922D01*
X161500252Y-107170102D01*
X161506285Y-107171302D01*
X161506287Y-107171303D01*
X161532384Y-107176494D01*
X161537442Y-107177500D01*
X162062558Y-107177500D01*
X162067616Y-107176494D01*
X162093713Y-107171303D01*
X162093715Y-107171302D01*
X162099748Y-107170102D01*
X162141922Y-107141922D01*
X162152042Y-107126776D01*
X162166682Y-107104867D01*
X162166683Y-107104865D01*
X162170102Y-107099748D01*
X162171303Y-107093709D01*
X162172391Y-107091083D01*
X162206216Y-107057258D01*
X162230134Y-107052500D01*
X162737715Y-107052500D01*
X162781909Y-107070806D01*
X162789682Y-107080277D01*
X162822328Y-107129135D01*
X162822331Y-107129138D01*
X162825748Y-107134252D01*
X162830865Y-107137671D01*
X162907458Y-107188850D01*
X162907460Y-107188851D01*
X162912577Y-107192270D01*
X162946371Y-107198992D01*
X162986131Y-107206901D01*
X162986134Y-107206901D01*
X162989144Y-107207500D01*
X163410856Y-107207500D01*
X163413866Y-107206901D01*
X163413869Y-107206901D01*
X163453629Y-107198992D01*
X163487423Y-107192270D01*
X163492540Y-107188851D01*
X163492542Y-107188850D01*
X163569135Y-107137671D01*
X163574252Y-107134252D01*
X163632270Y-107047423D01*
X163632776Y-107047761D01*
X163663279Y-107017257D01*
X163687197Y-107012500D01*
X169320326Y-107012500D01*
X169364520Y-107030806D01*
X170228520Y-107894806D01*
X170246826Y-107939000D01*
X170228520Y-107983194D01*
X170184326Y-108001500D01*
X159481402Y-108001500D01*
X159437208Y-107983194D01*
X159421570Y-107957064D01*
X159411194Y-107922697D01*
X159383117Y-107829701D01*
X159316269Y-107703979D01*
X159294555Y-107663140D01*
X159294553Y-107663137D01*
X159293120Y-107660442D01*
X159171962Y-107511887D01*
X159024256Y-107389694D01*
X158855629Y-107298518D01*
X158754605Y-107267246D01*
X158675420Y-107242734D01*
X158675417Y-107242733D01*
X158672505Y-107241832D01*
X158669472Y-107241513D01*
X158669471Y-107241513D01*
X158590653Y-107233229D01*
X158481857Y-107221794D01*
X158478824Y-107222070D01*
X158478820Y-107222070D01*
X158396118Y-107229597D01*
X158290948Y-107239168D01*
X158107050Y-107293292D01*
X157937167Y-107382105D01*
X157787770Y-107502223D01*
X157664549Y-107649072D01*
X157572198Y-107817058D01*
X157538687Y-107922697D01*
X157515989Y-107994252D01*
X157514234Y-107999783D01*
X157513894Y-108002815D01*
X157499705Y-108129318D01*
X157492866Y-108190286D01*
X157496664Y-108235513D01*
X157508087Y-108371541D01*
X157508907Y-108381311D01*
X157561746Y-108565583D01*
X157649370Y-108736082D01*
X157768443Y-108886314D01*
X157770773Y-108888297D01*
X157900654Y-108998834D01*
X157914428Y-109010557D01*
X157917092Y-109012046D01*
X157917095Y-109012048D01*
X158007615Y-109062638D01*
X158081765Y-109104079D01*
X158084669Y-109105023D01*
X158084670Y-109105023D01*
X158261168Y-109162371D01*
X158261173Y-109162372D01*
X158264081Y-109163317D01*
X158454430Y-109186015D01*
X158457472Y-109185781D01*
X158457475Y-109185781D01*
X158642514Y-109171543D01*
X158642519Y-109171542D01*
X158645562Y-109171308D01*
X158674182Y-109163317D01*
X158827260Y-109120577D01*
X158827264Y-109120576D01*
X158830199Y-109119756D01*
X158943273Y-109062638D01*
X158998585Y-109034698D01*
X159001305Y-109033324D01*
X159003703Y-109031451D01*
X159003707Y-109031448D01*
X159088139Y-108965482D01*
X159152365Y-108915303D01*
X159179455Y-108883919D01*
X159275630Y-108772500D01*
X159275634Y-108772495D01*
X159277624Y-108770189D01*
X159285829Y-108755746D01*
X159370801Y-108606170D01*
X159370803Y-108606165D01*
X159372312Y-108603509D01*
X159421514Y-108455602D01*
X159423620Y-108449272D01*
X159454940Y-108413115D01*
X159482925Y-108406500D01*
X160375234Y-108406500D01*
X160419428Y-108424806D01*
X160437734Y-108469000D01*
X160419428Y-108513194D01*
X159043354Y-109889268D01*
X158999160Y-109907574D01*
X158969434Y-109900052D01*
X158957148Y-109893409D01*
X158855629Y-109838518D01*
X158767459Y-109811225D01*
X158675420Y-109782734D01*
X158675417Y-109782733D01*
X158672505Y-109781832D01*
X158669472Y-109781513D01*
X158669471Y-109781513D01*
X158621787Y-109776501D01*
X158481857Y-109761794D01*
X158478824Y-109762070D01*
X158478820Y-109762070D01*
X158396118Y-109769597D01*
X158290948Y-109779168D01*
X158288019Y-109780030D01*
X158246353Y-109792293D01*
X158107050Y-109833292D01*
X157937167Y-109922105D01*
X157787770Y-110042223D01*
X157664549Y-110189072D01*
X157572198Y-110357058D01*
X157514234Y-110539783D01*
X157509348Y-110583346D01*
X157493207Y-110727248D01*
X157492866Y-110730286D01*
X154632000Y-110730286D01*
X154632000Y-105650286D01*
X157492866Y-105650286D01*
X157508907Y-105841311D01*
X157561746Y-106025583D01*
X157649370Y-106196082D01*
X157768443Y-106346314D01*
X157770773Y-106348297D01*
X157796117Y-106369866D01*
X157914428Y-106470557D01*
X157917092Y-106472046D01*
X157917095Y-106472048D01*
X158060957Y-106552450D01*
X158081765Y-106564079D01*
X158084669Y-106565023D01*
X158084670Y-106565023D01*
X158261168Y-106622371D01*
X158261173Y-106622372D01*
X158264081Y-106623317D01*
X158267125Y-106623680D01*
X158297617Y-106627316D01*
X158454430Y-106646015D01*
X158457472Y-106645781D01*
X158457475Y-106645781D01*
X158642514Y-106631543D01*
X158642519Y-106631542D01*
X158645562Y-106631308D01*
X158674182Y-106623317D01*
X158827260Y-106580577D01*
X158827264Y-106580576D01*
X158830199Y-106579756D01*
X158895451Y-106546795D01*
X158998585Y-106494698D01*
X159001305Y-106493324D01*
X159003703Y-106491451D01*
X159003707Y-106491448D01*
X159086799Y-106426529D01*
X159152365Y-106375303D01*
X159154362Y-106372990D01*
X159275630Y-106232500D01*
X159275634Y-106232495D01*
X159277624Y-106230189D01*
X159291388Y-106205961D01*
X159370801Y-106066170D01*
X159370803Y-106066165D01*
X159372312Y-106063509D01*
X159395554Y-105993641D01*
X159406987Y-105959272D01*
X159438307Y-105923115D01*
X159466292Y-105916500D01*
X160365216Y-105916500D01*
X160409410Y-105934806D01*
X160424324Y-105962707D01*
X160424464Y-105962649D01*
X160425054Y-105964075D01*
X160426515Y-105966807D01*
X160428020Y-105974373D01*
X160431439Y-105979490D01*
X160431440Y-105979492D01*
X160462229Y-106025571D01*
X160487143Y-106062857D01*
X160492260Y-106066276D01*
X160570508Y-106118560D01*
X160570510Y-106118561D01*
X160575627Y-106121980D01*
X160596104Y-106126053D01*
X160650639Y-106136901D01*
X160650642Y-106136901D01*
X160653652Y-106137500D01*
X160986348Y-106137500D01*
X160989358Y-106136901D01*
X160989361Y-106136901D01*
X161043896Y-106126053D01*
X161064373Y-106121980D01*
X161069490Y-106118561D01*
X161069492Y-106118560D01*
X161147740Y-106066276D01*
X161152857Y-106062857D01*
X161177771Y-106025571D01*
X161208560Y-105979492D01*
X161208561Y-105979490D01*
X161211980Y-105974373D01*
X161227500Y-105896348D01*
X161227500Y-105503652D01*
X161226685Y-105499551D01*
X161213181Y-105431666D01*
X161211980Y-105425627D01*
X161207653Y-105419150D01*
X161156276Y-105342260D01*
X161152857Y-105337143D01*
X161126349Y-105319431D01*
X161069492Y-105281440D01*
X161069490Y-105281439D01*
X161064373Y-105278020D01*
X161030025Y-105271188D01*
X160989361Y-105263099D01*
X160989358Y-105263099D01*
X160986348Y-105262500D01*
X160653652Y-105262500D01*
X160650642Y-105263099D01*
X160650639Y-105263099D01*
X160609975Y-105271188D01*
X160575627Y-105278020D01*
X160570510Y-105281439D01*
X160570508Y-105281440D01*
X160513651Y-105319431D01*
X160487143Y-105337143D01*
X160483724Y-105342260D01*
X160456019Y-105383723D01*
X160416245Y-105410299D01*
X160404052Y-105411500D01*
X159466307Y-105411500D01*
X159422113Y-105393194D01*
X159406474Y-105367064D01*
X159394814Y-105328443D01*
X159383117Y-105289701D01*
X159376395Y-105277058D01*
X159294555Y-105123140D01*
X159294553Y-105123137D01*
X159293120Y-105120442D01*
X159171962Y-104971887D01*
X159024256Y-104849694D01*
X158855629Y-104758518D01*
X158805189Y-104742904D01*
X158675420Y-104702734D01*
X158675417Y-104702733D01*
X158672505Y-104701832D01*
X158669472Y-104701513D01*
X158669471Y-104701513D01*
X158621787Y-104696501D01*
X158481857Y-104681794D01*
X158478824Y-104682070D01*
X158478820Y-104682070D01*
X158396118Y-104689597D01*
X158290948Y-104699168D01*
X158107050Y-104753292D01*
X157937167Y-104842105D01*
X157787770Y-104962223D01*
X157664549Y-105109072D01*
X157572198Y-105277058D01*
X157514234Y-105459783D01*
X157513894Y-105462815D01*
X157496080Y-105621636D01*
X157492866Y-105650286D01*
X154632000Y-105650286D01*
X154632000Y-103331346D01*
X157442093Y-103331346D01*
X157493169Y-103509467D01*
X157495406Y-103515117D01*
X157586734Y-103692823D01*
X157590034Y-103697943D01*
X157714140Y-103854526D01*
X157718368Y-103858904D01*
X157870522Y-103988397D01*
X157875518Y-103991869D01*
X158049931Y-104089346D01*
X158055508Y-104091782D01*
X158245527Y-104153522D01*
X158251475Y-104154830D01*
X158262654Y-104156164D01*
X158271816Y-104153589D01*
X158275000Y-104147915D01*
X158275000Y-104145934D01*
X158675000Y-104145934D01*
X158678641Y-104154724D01*
X158682426Y-104156292D01*
X158853604Y-104108498D01*
X158859267Y-104106301D01*
X159037621Y-104016208D01*
X159042743Y-104012958D01*
X159200197Y-103889940D01*
X159204601Y-103885747D01*
X159335156Y-103734497D01*
X159338663Y-103729526D01*
X159437356Y-103555795D01*
X159439828Y-103550242D01*
X159502898Y-103360651D01*
X159504245Y-103354720D01*
X159506568Y-103336334D01*
X159504057Y-103327156D01*
X159498523Y-103324000D01*
X158687431Y-103324000D01*
X158678641Y-103327641D01*
X158675000Y-103336431D01*
X158675000Y-104145934D01*
X158275000Y-104145934D01*
X158275000Y-103336431D01*
X158271359Y-103327641D01*
X158262569Y-103324000D01*
X157452418Y-103324000D01*
X157443628Y-103327641D01*
X157442093Y-103331346D01*
X154632000Y-103331346D01*
X154632000Y-102911645D01*
X157442189Y-102911645D01*
X157444828Y-102920789D01*
X157450645Y-102924000D01*
X158262569Y-102924000D01*
X158271359Y-102920359D01*
X158275000Y-102911569D01*
X158675000Y-102911569D01*
X158678641Y-102920359D01*
X158687431Y-102924000D01*
X159498040Y-102924000D01*
X159506830Y-102920359D01*
X159508882Y-102915406D01*
X159451356Y-102724872D01*
X159449034Y-102719238D01*
X159355234Y-102542825D01*
X159351868Y-102537760D01*
X159225587Y-102382923D01*
X159221299Y-102378605D01*
X159067351Y-102251248D01*
X159062302Y-102247843D01*
X158886554Y-102152817D01*
X158880936Y-102150455D01*
X158690075Y-102091373D01*
X158686714Y-102090684D01*
X158678241Y-102093193D01*
X158675000Y-102099163D01*
X158675000Y-102911569D01*
X158275000Y-102911569D01*
X158275000Y-102100714D01*
X158271359Y-102091924D01*
X158267733Y-102090422D01*
X158082688Y-102144884D01*
X158077056Y-102147160D01*
X157899981Y-102239732D01*
X157894899Y-102243058D01*
X157739181Y-102368258D01*
X157734833Y-102372516D01*
X157606402Y-102525574D01*
X157602965Y-102530594D01*
X157506712Y-102705678D01*
X157504313Y-102711276D01*
X157443899Y-102901723D01*
X157442635Y-102907668D01*
X157442189Y-102911645D01*
X154632000Y-102911645D01*
X154632000Y-100570286D01*
X157492866Y-100570286D01*
X157508907Y-100761311D01*
X157561746Y-100945583D01*
X157649370Y-101116082D01*
X157768443Y-101266314D01*
X157914428Y-101390557D01*
X157917092Y-101392046D01*
X157917095Y-101392048D01*
X158006334Y-101441922D01*
X158081765Y-101484079D01*
X158084669Y-101485023D01*
X158084670Y-101485023D01*
X158261168Y-101542371D01*
X158261173Y-101542372D01*
X158264081Y-101543317D01*
X158454430Y-101566015D01*
X158457472Y-101565781D01*
X158457475Y-101565781D01*
X158642514Y-101551543D01*
X158642519Y-101551542D01*
X158645562Y-101551308D01*
X158677116Y-101542498D01*
X158827260Y-101500577D01*
X158827264Y-101500576D01*
X158830199Y-101499756D01*
X159001305Y-101413324D01*
X159003703Y-101411451D01*
X159003707Y-101411448D01*
X159092204Y-101342306D01*
X159152365Y-101295303D01*
X159179455Y-101263919D01*
X159275630Y-101152500D01*
X159275634Y-101152495D01*
X159277624Y-101150189D01*
X159298544Y-101113364D01*
X159366848Y-100993128D01*
X159404594Y-100963744D01*
X159421191Y-100961500D01*
X160775677Y-100961500D01*
X160819871Y-100979806D01*
X160836458Y-101010212D01*
X160836477Y-101010206D01*
X160846822Y-101045583D01*
X160847741Y-101047604D01*
X160847742Y-101047607D01*
X160895434Y-101152500D01*
X160906102Y-101175962D01*
X160925960Y-101207013D01*
X161019450Y-101315514D01*
X161021127Y-101316977D01*
X161021130Y-101316980D01*
X161025439Y-101320739D01*
X161047225Y-101339744D01*
X161167410Y-101417644D01*
X161200870Y-101433105D01*
X161338088Y-101474141D01*
X161374541Y-101479589D01*
X161376754Y-101479603D01*
X161376760Y-101479603D01*
X161447121Y-101480032D01*
X161517762Y-101480464D01*
X161519963Y-101480163D01*
X161520463Y-101480130D01*
X161524523Y-101479998D01*
X161950000Y-101479998D01*
X161956299Y-101478745D01*
X161993713Y-101471303D01*
X161993715Y-101471302D01*
X161999748Y-101470102D01*
X162041922Y-101441922D01*
X162048033Y-101432776D01*
X162087806Y-101406200D01*
X162134723Y-101415532D01*
X162151966Y-101432775D01*
X162158078Y-101441922D01*
X162200252Y-101470102D01*
X162206285Y-101471302D01*
X162206287Y-101471303D01*
X162243701Y-101478745D01*
X162250000Y-101479998D01*
X162310000Y-101479998D01*
X162354194Y-101498304D01*
X162372500Y-101542498D01*
X162372500Y-102965048D01*
X162371100Y-102978201D01*
X162367705Y-102993971D01*
X162368312Y-102999101D01*
X162368312Y-102999103D01*
X162372067Y-103030826D01*
X162372500Y-103038172D01*
X162372500Y-103043362D01*
X162375640Y-103062223D01*
X162375894Y-103063752D01*
X162376307Y-103066655D01*
X162382476Y-103118775D01*
X162384713Y-103123432D01*
X162385797Y-103127163D01*
X162387065Y-103130868D01*
X162387914Y-103135970D01*
X162390368Y-103140518D01*
X162412832Y-103182150D01*
X162414169Y-103184775D01*
X162435175Y-103228521D01*
X162435178Y-103228525D01*
X162436878Y-103232066D01*
X162439407Y-103235074D01*
X162439581Y-103235282D01*
X162439588Y-103235290D01*
X162440450Y-103236315D01*
X162440663Y-103236528D01*
X162443279Y-103239627D01*
X162445138Y-103242023D01*
X162447592Y-103246572D01*
X162451388Y-103250081D01*
X162487890Y-103283823D01*
X162489659Y-103285524D01*
X163909086Y-104704951D01*
X163922098Y-104723972D01*
X163935623Y-104754709D01*
X163957703Y-104804889D01*
X163965333Y-104822230D01*
X164044127Y-104915968D01*
X164047832Y-104918434D01*
X164047834Y-104918436D01*
X164110738Y-104960308D01*
X164146064Y-104983823D01*
X164262948Y-105020340D01*
X164267398Y-105020422D01*
X164267401Y-105020422D01*
X164317074Y-105021332D01*
X164385383Y-105022584D01*
X164450201Y-105004913D01*
X164499226Y-104991548D01*
X164499229Y-104991547D01*
X164503527Y-104990375D01*
X164507323Y-104988044D01*
X164507326Y-104988043D01*
X164604083Y-104928633D01*
X164607881Y-104926301D01*
X164690058Y-104835513D01*
X164743451Y-104725311D01*
X164745482Y-104713242D01*
X164763367Y-104606928D01*
X164763767Y-104604552D01*
X164763896Y-104594000D01*
X164746536Y-104472781D01*
X164701564Y-104373869D01*
X164697696Y-104365362D01*
X164697695Y-104365360D01*
X164695852Y-104361307D01*
X164615918Y-104268539D01*
X164513160Y-104201935D01*
X164472130Y-104189664D01*
X164445845Y-104173979D01*
X163671300Y-103399434D01*
X172884632Y-103399434D01*
X172885798Y-103408296D01*
X172888445Y-103417379D01*
X172934039Y-103515155D01*
X172940219Y-103523980D01*
X173016020Y-103599781D01*
X173024845Y-103605961D01*
X173122625Y-103651556D01*
X173131699Y-103654201D01*
X173173714Y-103659733D01*
X173177792Y-103660000D01*
X173187569Y-103660000D01*
X173196359Y-103656359D01*
X173200000Y-103647569D01*
X173200000Y-103647568D01*
X173600000Y-103647568D01*
X173603641Y-103656358D01*
X173612431Y-103659999D01*
X173622207Y-103659999D01*
X173626287Y-103659731D01*
X173668302Y-103654201D01*
X173677374Y-103651557D01*
X173775155Y-103605961D01*
X173783980Y-103599781D01*
X173859781Y-103523980D01*
X173865961Y-103515155D01*
X173911556Y-103417377D01*
X173914201Y-103408300D01*
X173914988Y-103402327D01*
X173912525Y-103393134D01*
X173907096Y-103390000D01*
X173612431Y-103390000D01*
X173603641Y-103393641D01*
X173600000Y-103402431D01*
X173600000Y-103647568D01*
X173200000Y-103647568D01*
X173200000Y-103402431D01*
X173196359Y-103393641D01*
X173187569Y-103390000D01*
X172895821Y-103390000D01*
X172887031Y-103393641D01*
X172884632Y-103399434D01*
X163671300Y-103399434D01*
X163265866Y-102994000D01*
X175799948Y-102994000D01*
X175800483Y-102998064D01*
X175817456Y-103126985D01*
X175818077Y-103131705D01*
X175819643Y-103135485D01*
X175819643Y-103135486D01*
X175862854Y-103239807D01*
X175871229Y-103260026D01*
X175955782Y-103370218D01*
X176065974Y-103454771D01*
X176069757Y-103456338D01*
X176084593Y-103462483D01*
X176194295Y-103507923D01*
X176198351Y-103508457D01*
X176198355Y-103508458D01*
X176327936Y-103525517D01*
X176332000Y-103526052D01*
X176336064Y-103525517D01*
X176465645Y-103508458D01*
X176465649Y-103508457D01*
X176469705Y-103507923D01*
X176579408Y-103462483D01*
X176594243Y-103456338D01*
X176598026Y-103454771D01*
X176658588Y-103408300D01*
X176689716Y-103384415D01*
X176727764Y-103371500D01*
X178749747Y-103371500D01*
X178793941Y-103389806D01*
X178985221Y-103581087D01*
X179002992Y-103617123D01*
X179015390Y-103711294D01*
X179018077Y-103731705D01*
X179071229Y-103860026D01*
X179073722Y-103863275D01*
X179123115Y-103927645D01*
X179155782Y-103970218D01*
X179159027Y-103972708D01*
X179215718Y-104016208D01*
X179265974Y-104054771D01*
X179269757Y-104056338D01*
X179286505Y-104063275D01*
X179394295Y-104107923D01*
X179398351Y-104108457D01*
X179398355Y-104108458D01*
X179527936Y-104125517D01*
X179532000Y-104126052D01*
X179536064Y-104125517D01*
X179665645Y-104108458D01*
X179665649Y-104108457D01*
X179669705Y-104107923D01*
X179777496Y-104063275D01*
X179794243Y-104056338D01*
X179798026Y-104054771D01*
X179848283Y-104016208D01*
X179904973Y-103972708D01*
X179908218Y-103970218D01*
X179940885Y-103927645D01*
X179990278Y-103863275D01*
X179992771Y-103860026D01*
X180045923Y-103731705D01*
X180048611Y-103711294D01*
X180063517Y-103598064D01*
X180064052Y-103594000D01*
X180056380Y-103535722D01*
X180046458Y-103460355D01*
X180046457Y-103460351D01*
X180045923Y-103456295D01*
X180029971Y-103417782D01*
X179994338Y-103331757D01*
X179992771Y-103327974D01*
X179956019Y-103280077D01*
X179910708Y-103221027D01*
X179908218Y-103217782D01*
X179798026Y-103133229D01*
X179669705Y-103080077D01*
X179665649Y-103079543D01*
X179665645Y-103079542D01*
X179555123Y-103064992D01*
X179519087Y-103047221D01*
X179232133Y-102760267D01*
X179223821Y-102749975D01*
X179217877Y-102740769D01*
X179217876Y-102740768D01*
X179215072Y-102736425D01*
X179211013Y-102733225D01*
X179211011Y-102733223D01*
X179185931Y-102713452D01*
X179180430Y-102708564D01*
X179176757Y-102704891D01*
X179174665Y-102703396D01*
X179174659Y-102703391D01*
X179159922Y-102692860D01*
X179157589Y-102691108D01*
X179116377Y-102658620D01*
X179111499Y-102656907D01*
X179108079Y-102655027D01*
X179104577Y-102653312D01*
X179100373Y-102650307D01*
X179050100Y-102635273D01*
X179047299Y-102634362D01*
X178997801Y-102616979D01*
X178993883Y-102616640D01*
X178993880Y-102616639D01*
X178993734Y-102616627D01*
X178992270Y-102616500D01*
X178991969Y-102616500D01*
X178987927Y-102616158D01*
X178984914Y-102615777D01*
X178979967Y-102614298D01*
X178925145Y-102616452D01*
X178922691Y-102616500D01*
X176727764Y-102616500D01*
X176689716Y-102603585D01*
X176601275Y-102535722D01*
X176598026Y-102533229D01*
X176469705Y-102480077D01*
X176465649Y-102479543D01*
X176465645Y-102479542D01*
X176336064Y-102462483D01*
X176332000Y-102461948D01*
X176327936Y-102462483D01*
X176198355Y-102479542D01*
X176198351Y-102479543D01*
X176194295Y-102480077D01*
X176065974Y-102533229D01*
X175955782Y-102617782D01*
X175871229Y-102727974D01*
X175869662Y-102731757D01*
X175849589Y-102780219D01*
X175818077Y-102856295D01*
X175817543Y-102860351D01*
X175817542Y-102860355D01*
X175802884Y-102971699D01*
X175799948Y-102994000D01*
X163265866Y-102994000D01*
X163249539Y-102977673D01*
X172885012Y-102977673D01*
X172887475Y-102986866D01*
X172892904Y-102990000D01*
X173187569Y-102990000D01*
X173196359Y-102986359D01*
X173200000Y-102977569D01*
X173600000Y-102977569D01*
X173603641Y-102986359D01*
X173612431Y-102990000D01*
X173904179Y-102990000D01*
X173912969Y-102986359D01*
X173915368Y-102980566D01*
X173914202Y-102971704D01*
X173911555Y-102962621D01*
X173865961Y-102864845D01*
X173859781Y-102856020D01*
X173783980Y-102780219D01*
X173775155Y-102774039D01*
X173677375Y-102728444D01*
X173668301Y-102725799D01*
X173626286Y-102720267D01*
X173622208Y-102720000D01*
X173612431Y-102720000D01*
X173603641Y-102723641D01*
X173600000Y-102732431D01*
X173600000Y-102977569D01*
X173200000Y-102977569D01*
X173200000Y-102732432D01*
X173196359Y-102723642D01*
X173187569Y-102720001D01*
X173177793Y-102720001D01*
X173173713Y-102720269D01*
X173131698Y-102725799D01*
X173122626Y-102728443D01*
X173024845Y-102774039D01*
X173016020Y-102780219D01*
X172940219Y-102856020D01*
X172934039Y-102864845D01*
X172888444Y-102962623D01*
X172885799Y-102971700D01*
X172885012Y-102977673D01*
X163249539Y-102977673D01*
X163145806Y-102873940D01*
X163127500Y-102829746D01*
X163127500Y-101389901D01*
X163145806Y-101345707D01*
X163149492Y-101342306D01*
X163173129Y-101322188D01*
X163173133Y-101322185D01*
X163174831Y-101320739D01*
X163269639Y-101213388D01*
X163289875Y-101182582D01*
X163321097Y-101116082D01*
X163349800Y-101054949D01*
X163349803Y-101054941D01*
X163350744Y-101052937D01*
X163351395Y-101050808D01*
X163360869Y-101019819D01*
X163360870Y-101019813D01*
X163361520Y-101017688D01*
X163383554Y-100876170D01*
X163384005Y-100839316D01*
X163380526Y-100812709D01*
X163379998Y-100804607D01*
X163379998Y-100403846D01*
X163380742Y-100394231D01*
X163383212Y-100378364D01*
X163383554Y-100376170D01*
X163384005Y-100339316D01*
X163365435Y-100197302D01*
X163355522Y-100161800D01*
X163297839Y-100030707D01*
X163278363Y-99999416D01*
X163186206Y-99889781D01*
X163158728Y-99865214D01*
X163098928Y-99825407D01*
X163041359Y-99787086D01*
X163041354Y-99787083D01*
X163039503Y-99785851D01*
X163036604Y-99784468D01*
X163018057Y-99775622D01*
X163006235Y-99769983D01*
X163004109Y-99769319D01*
X163004107Y-99769318D01*
X162871649Y-99727935D01*
X162871645Y-99727934D01*
X162869529Y-99727273D01*
X162867343Y-99726919D01*
X162867339Y-99726918D01*
X162852099Y-99724450D01*
X162833146Y-99721380D01*
X162830930Y-99721339D01*
X162830926Y-99721339D01*
X162761546Y-99720067D01*
X162689947Y-99718755D01*
X162684135Y-99719479D01*
X162683780Y-99719523D01*
X162676056Y-99720002D01*
X162250000Y-99720002D01*
X162246989Y-99720601D01*
X162206287Y-99728697D01*
X162206285Y-99728698D01*
X162200252Y-99729898D01*
X162158078Y-99758078D01*
X162154659Y-99763195D01*
X162151967Y-99767224D01*
X162112194Y-99793800D01*
X162065277Y-99784468D01*
X162048033Y-99767224D01*
X162045341Y-99763195D01*
X162041922Y-99758078D01*
X161999748Y-99729898D01*
X161993715Y-99728698D01*
X161993713Y-99728697D01*
X161953011Y-99720601D01*
X161950000Y-99720002D01*
X161458573Y-99720002D01*
X161457427Y-99719992D01*
X161389947Y-99718755D01*
X161353370Y-99723311D01*
X161351225Y-99723896D01*
X161351219Y-99723897D01*
X161254475Y-99750273D01*
X161215190Y-99760984D01*
X161181364Y-99775622D01*
X161179483Y-99776777D01*
X161179479Y-99776779D01*
X161061202Y-99849401D01*
X161061197Y-99849405D01*
X161059312Y-99850562D01*
X161030953Y-99874105D01*
X160934839Y-99980289D01*
X160914228Y-100010847D01*
X160913263Y-100012839D01*
X160913260Y-100012844D01*
X160903618Y-100032746D01*
X160851781Y-100139739D01*
X160844357Y-100163002D01*
X160813482Y-100199538D01*
X160784816Y-100206500D01*
X159418968Y-100206500D01*
X159374774Y-100188194D01*
X159363784Y-100173342D01*
X159358789Y-100163946D01*
X159293120Y-100040442D01*
X159171962Y-99891887D01*
X159024256Y-99769694D01*
X158855629Y-99678518D01*
X158805189Y-99662904D01*
X158675420Y-99622734D01*
X158675417Y-99622733D01*
X158672505Y-99621832D01*
X158669472Y-99621513D01*
X158669471Y-99621513D01*
X158621787Y-99616501D01*
X158481857Y-99601794D01*
X158478824Y-99602070D01*
X158478820Y-99602070D01*
X158396118Y-99609597D01*
X158290948Y-99619168D01*
X158107050Y-99673292D01*
X157937167Y-99762105D01*
X157787770Y-99882223D01*
X157664549Y-100029072D01*
X157572198Y-100197058D01*
X157514234Y-100379783D01*
X157492866Y-100570286D01*
X154632000Y-100570286D01*
X154632000Y-99462558D01*
X175247500Y-99462558D01*
X175248099Y-99465569D01*
X175252752Y-99488958D01*
X175254898Y-99499748D01*
X175283078Y-99541922D01*
X175325252Y-99570102D01*
X175331285Y-99571302D01*
X175331287Y-99571303D01*
X175357384Y-99576494D01*
X175362442Y-99577500D01*
X177087558Y-99577500D01*
X177092616Y-99576494D01*
X177118713Y-99571303D01*
X177118715Y-99571302D01*
X177124748Y-99570102D01*
X177166922Y-99541922D01*
X177195102Y-99499748D01*
X177197249Y-99488958D01*
X177201901Y-99465569D01*
X177202500Y-99462558D01*
X177202500Y-98807346D01*
X177732093Y-98807346D01*
X177783169Y-98985467D01*
X177785406Y-98991117D01*
X177876734Y-99168823D01*
X177880034Y-99173943D01*
X178004140Y-99330526D01*
X178008368Y-99334904D01*
X178160522Y-99464397D01*
X178165518Y-99467869D01*
X178339931Y-99565346D01*
X178345508Y-99567782D01*
X178535527Y-99629522D01*
X178541475Y-99630830D01*
X178552654Y-99632164D01*
X178561816Y-99629589D01*
X178565000Y-99623915D01*
X178565000Y-99621934D01*
X178965000Y-99621934D01*
X178968641Y-99630724D01*
X178972426Y-99632292D01*
X179143604Y-99584498D01*
X179149267Y-99582301D01*
X179327621Y-99492208D01*
X179332743Y-99488958D01*
X179490197Y-99365940D01*
X179494601Y-99361747D01*
X179625156Y-99210497D01*
X179628663Y-99205526D01*
X179727356Y-99031795D01*
X179729828Y-99026242D01*
X179792898Y-98836651D01*
X179794245Y-98830720D01*
X179796568Y-98812334D01*
X179794057Y-98803156D01*
X179788523Y-98800000D01*
X178977431Y-98800000D01*
X178968641Y-98803641D01*
X178965000Y-98812431D01*
X178965000Y-99621934D01*
X178565000Y-99621934D01*
X178565000Y-98812431D01*
X178561359Y-98803641D01*
X178552569Y-98800000D01*
X177742418Y-98800000D01*
X177733628Y-98803641D01*
X177732093Y-98807346D01*
X177202500Y-98807346D01*
X177202500Y-98387645D01*
X177732189Y-98387645D01*
X177734828Y-98396789D01*
X177740645Y-98400000D01*
X178552569Y-98400000D01*
X178561359Y-98396359D01*
X178565000Y-98387569D01*
X178965000Y-98387569D01*
X178968641Y-98396359D01*
X178977431Y-98400000D01*
X179788040Y-98400000D01*
X179796830Y-98396359D01*
X179798882Y-98391406D01*
X179741356Y-98200872D01*
X179739034Y-98195238D01*
X179645234Y-98018825D01*
X179641868Y-98013760D01*
X179515587Y-97858923D01*
X179511299Y-97854605D01*
X179357351Y-97727248D01*
X179352302Y-97723843D01*
X179176554Y-97628817D01*
X179170936Y-97626455D01*
X178980075Y-97567373D01*
X178976714Y-97566684D01*
X178968241Y-97569193D01*
X178965000Y-97575163D01*
X178965000Y-98387569D01*
X178565000Y-98387569D01*
X178565000Y-97576714D01*
X178561359Y-97567924D01*
X178557733Y-97566422D01*
X178372688Y-97620884D01*
X178367056Y-97623160D01*
X178189981Y-97715732D01*
X178184899Y-97719058D01*
X178029181Y-97844258D01*
X178024833Y-97848516D01*
X177896402Y-98001574D01*
X177892965Y-98006594D01*
X177796712Y-98181678D01*
X177794313Y-98187276D01*
X177733899Y-98377723D01*
X177732635Y-98383668D01*
X177732189Y-98387645D01*
X177202500Y-98387645D01*
X177202500Y-97737442D01*
X177198843Y-97719058D01*
X177196303Y-97706287D01*
X177196302Y-97706285D01*
X177195102Y-97700252D01*
X177166922Y-97658078D01*
X177124748Y-97629898D01*
X177118715Y-97628698D01*
X177118713Y-97628697D01*
X177090569Y-97623099D01*
X177087558Y-97622500D01*
X175362442Y-97622500D01*
X175359431Y-97623099D01*
X175331287Y-97628697D01*
X175331285Y-97628698D01*
X175325252Y-97629898D01*
X175283078Y-97658078D01*
X175254898Y-97700252D01*
X175253698Y-97706285D01*
X175253697Y-97706287D01*
X175251157Y-97719058D01*
X175247500Y-97737442D01*
X175247500Y-99462558D01*
X154632000Y-99462558D01*
X154632000Y-97036500D01*
X154650306Y-96992306D01*
X154694500Y-96974000D01*
X205477500Y-96974000D01*
X205521694Y-96992306D01*
G37*
G04 #@! TD.AperFunction*
G04 #@! TA.AperFunction,Conductor*
G36*
X161337281Y-108769295D02*
G01*
X161350829Y-108789570D01*
X161353641Y-108796359D01*
X161362431Y-108800000D01*
X162237569Y-108800000D01*
X162246359Y-108796359D01*
X162249171Y-108789570D01*
X162282996Y-108755746D01*
X162306913Y-108750989D01*
X170276723Y-108750989D01*
X170320917Y-108769295D01*
X171242195Y-109690573D01*
X171260501Y-109734767D01*
X171242195Y-109778961D01*
X171198001Y-109797267D01*
X171190980Y-109796871D01*
X171169707Y-109794466D01*
X171162724Y-109793273D01*
X171158460Y-109792293D01*
X171155011Y-109791500D01*
X171146985Y-109791500D01*
X171139964Y-109791104D01*
X171136311Y-109790691D01*
X171108847Y-109787586D01*
X171102202Y-109789907D01*
X171095206Y-109790691D01*
X171095143Y-109790126D01*
X171087038Y-109791500D01*
X160877195Y-109791500D01*
X160869216Y-109790140D01*
X160869146Y-109790756D01*
X160862151Y-109789959D01*
X160855513Y-109787628D01*
X160848521Y-109788406D01*
X160824160Y-109791117D01*
X160817248Y-109791500D01*
X160809169Y-109791500D01*
X160801618Y-109793222D01*
X160794660Y-109794399D01*
X160763692Y-109797846D01*
X160757729Y-109801579D01*
X160753153Y-109803173D01*
X160748787Y-109805274D01*
X160741926Y-109806839D01*
X160736422Y-109811225D01*
X160717569Y-109826248D01*
X160711785Y-109830343D01*
X160708078Y-109832664D01*
X160708076Y-109832666D01*
X160705082Y-109834540D01*
X160699411Y-109840211D01*
X160694167Y-109844896D01*
X160669672Y-109864415D01*
X160666613Y-109870757D01*
X160662224Y-109876255D01*
X160661779Y-109875900D01*
X160657019Y-109882603D01*
X159540907Y-110998715D01*
X159496713Y-111017021D01*
X159452519Y-110998715D01*
X159434213Y-110954521D01*
X159434706Y-110946688D01*
X159437352Y-110925748D01*
X159456847Y-110771425D01*
X159457230Y-110744000D01*
X159455886Y-110730286D01*
X159438822Y-110556257D01*
X159438524Y-110553217D01*
X159383117Y-110369701D01*
X159318934Y-110248990D01*
X159314349Y-110201375D01*
X159329924Y-110175454D01*
X160238751Y-109266627D01*
X161350000Y-109266627D01*
X161350599Y-109272711D01*
X161360403Y-109321997D01*
X161365024Y-109333155D01*
X161402389Y-109389075D01*
X161410925Y-109397611D01*
X161466845Y-109434976D01*
X161478003Y-109439597D01*
X161527289Y-109449401D01*
X161533373Y-109450000D01*
X161587569Y-109450000D01*
X161596359Y-109446359D01*
X161600000Y-109437569D01*
X162000000Y-109437569D01*
X162003641Y-109446359D01*
X162012431Y-109450000D01*
X162066627Y-109450000D01*
X162072711Y-109449401D01*
X162121997Y-109439597D01*
X162133155Y-109434976D01*
X162189075Y-109397611D01*
X162197611Y-109389075D01*
X162234976Y-109333155D01*
X162239597Y-109321997D01*
X162249401Y-109272711D01*
X162250000Y-109266627D01*
X162250000Y-109212431D01*
X162246359Y-109203641D01*
X162237569Y-109200000D01*
X162012431Y-109200000D01*
X162003641Y-109203641D01*
X162000000Y-109212431D01*
X162000000Y-109437569D01*
X161600000Y-109437569D01*
X161600000Y-109212431D01*
X161596359Y-109203641D01*
X161587569Y-109200000D01*
X161362431Y-109200000D01*
X161353641Y-109203641D01*
X161350000Y-109212431D01*
X161350000Y-109266627D01*
X160238751Y-109266627D01*
X160736083Y-108769295D01*
X160780277Y-108750989D01*
X161293087Y-108750989D01*
X161337281Y-108769295D01*
G37*
G04 #@! TD.AperFunction*
M02*
