G04 #@! TF.GenerationSoftware,KiCad,Pcbnew,(5.99.0-12840-g99442350a4)*
G04 #@! TF.CreationDate,2021-11-05T14:17:08+01:00*
G04 #@! TF.ProjectId,stknx,73746b6e-782e-46b6-9963-61645f706362,rev?*
G04 #@! TF.SameCoordinates,Original*
G04 #@! TF.FileFunction,Legend,Top*
G04 #@! TF.FilePolarity,Positive*
%FSLAX46Y46*%
G04 Gerber Fmt 4.6, Leading zero omitted, Abs format (unit mm)*
G04 Created by KiCad (PCBNEW (5.99.0-12840-g99442350a4)) date 2021-11-05 14:17:08*
%MOMM*%
%LPD*%
G01*
G04 APERTURE LIST*
G04 Aperture macros list*
%AMRoundRect*
0 Rectangle with rounded corners*
0 $1 Rounding radius*
0 $2 $3 $4 $5 $6 $7 $8 $9 X,Y pos of 4 corners*
0 Add a 4 corners polygon primitive as box body*
4,1,4,$2,$3,$4,$5,$6,$7,$8,$9,$2,$3,0*
0 Add four circle primitives for the rounded corners*
1,1,$1+$1,$2,$3*
1,1,$1+$1,$4,$5*
1,1,$1+$1,$6,$7*
1,1,$1+$1,$8,$9*
0 Add four rect primitives between the rounded corners*
20,1,$1+$1,$2,$3,$4,$5,0*
20,1,$1+$1,$4,$5,$6,$7,0*
20,1,$1+$1,$6,$7,$8,$9,0*
20,1,$1+$1,$8,$9,$2,$3,0*%
%AMFreePoly0*
4,1,37,0.585355,0.785355,0.600000,0.750000,0.600000,-0.750000,0.585355,-0.785355,0.550000,-0.800000,0.000000,-0.800000,-0.012524,-0.794812,-0.080857,-0.793560,-0.094851,-0.791293,-0.230166,-0.749018,-0.242962,-0.742915,-0.360972,-0.664360,-0.371540,-0.654911,-0.462760,-0.546392,-0.470252,-0.534356,-0.527347,-0.404597,-0.531159,-0.390943,-0.548742,-0.256483,-0.547388,-0.256306,-0.550000,-0.250000,
-0.550000,0.250000,-0.549522,0.251153,-0.549368,0.263802,-0.527557,0.403879,-0.523412,0.417435,-0.463164,0.545760,-0.455381,0.557609,-0.361537,0.663867,-0.350741,0.673055,-0.230846,0.748703,-0.217905,0.754492,-0.081598,0.793449,-0.067552,0.795373,-0.011991,0.795033,0.000000,0.800000,0.550000,0.800000,0.585355,0.785355,0.585355,0.785355,$1*%
%AMFreePoly1*
4,1,37,0.012350,0.794884,0.074210,0.794507,0.088231,0.792412,0.224052,0.751793,0.236921,0.745846,0.355883,0.668739,0.366566,0.659420,0.459104,0.552023,0.466742,0.540080,0.525419,0.411028,0.529398,0.397421,0.549495,0.257088,0.550000,0.250000,0.550000,-0.250000,0.549996,-0.250610,0.549847,-0.262826,0.549158,-0.270511,0.525638,-0.410312,0.521328,-0.423818,0.459516,-0.551397,
0.451589,-0.563150,0.356454,-0.668254,0.345546,-0.677309,0.224736,-0.751486,0.211726,-0.757116,0.074953,-0.794405,0.060885,-0.796158,0.011462,-0.795252,0.000000,-0.800000,-0.550000,-0.800000,-0.585355,-0.785355,-0.600000,-0.750000,-0.600000,0.750000,-0.585355,0.785355,-0.550000,0.800000,0.000000,0.800000,0.012350,0.794884,0.012350,0.794884,$1*%
G04 Aperture macros list end*
%ADD10C,0.150000*%
%ADD11C,0.070000*%
%ADD12C,0.100000*%
%ADD13C,0.075000*%
%ADD14C,0.120000*%
%ADD15RoundRect,0.185000X0.185000X-0.135000X0.185000X0.135000X-0.185000X0.135000X-0.185000X-0.135000X0*%
%ADD16RoundRect,0.275000X0.225000X0.250000X-0.225000X0.250000X-0.225000X-0.250000X0.225000X-0.250000X0*%
%ADD17RoundRect,0.275000X-0.225000X-0.250000X0.225000X-0.250000X0.225000X0.250000X-0.225000X0.250000X0*%
%ADD18RoundRect,0.300001X2.049999X0.799999X-2.049999X0.799999X-2.049999X-0.799999X2.049999X-0.799999X0*%
%ADD19RoundRect,0.190000X-0.140000X-0.170000X0.140000X-0.170000X0.140000X0.170000X-0.140000X0.170000X0*%
%ADD20RoundRect,0.190000X-0.170000X0.140000X-0.170000X-0.140000X0.170000X-0.140000X0.170000X0.140000X0*%
%ADD21RoundRect,0.300000X-0.650000X0.325000X-0.650000X-0.325000X0.650000X-0.325000X0.650000X0.325000X0*%
%ADD22RoundRect,0.050000X0.750000X1.800000X-0.750000X1.800000X-0.750000X-1.800000X0.750000X-1.800000X0*%
%ADD23RoundRect,0.185000X0.135000X0.185000X-0.135000X0.185000X-0.135000X-0.185000X0.135000X-0.185000X0*%
%ADD24RoundRect,0.050000X-0.850000X0.850000X-0.850000X-0.850000X0.850000X-0.850000X0.850000X0.850000X0*%
%ADD25O,1.800000X1.800000*%
%ADD26RoundRect,0.112500X0.325000X0.062500X-0.325000X0.062500X-0.325000X-0.062500X0.325000X-0.062500X0*%
%ADD27RoundRect,0.112500X0.062500X0.325000X-0.062500X0.325000X-0.062500X-0.325000X0.062500X-0.325000X0*%
%ADD28RoundRect,0.050000X1.225000X1.225000X-1.225000X1.225000X-1.225000X-1.225000X1.225000X-1.225000X0*%
%ADD29RoundRect,0.300001X-2.049999X-0.799999X2.049999X-0.799999X2.049999X0.799999X-2.049999X0.799999X0*%
%ADD30RoundRect,0.050000X-0.850000X0.650000X-0.850000X-0.650000X0.850000X-0.650000X0.850000X0.650000X0*%
%ADD31RoundRect,0.185000X-0.185000X0.135000X-0.185000X-0.135000X0.185000X-0.135000X0.185000X0.135000X0*%
%ADD32RoundRect,0.185000X-0.135000X-0.185000X0.135000X-0.185000X0.135000X0.185000X-0.135000X0.185000X0*%
%ADD33FreePoly0,180.000000*%
%ADD34RoundRect,0.050000X0.500000X0.750000X-0.500000X0.750000X-0.500000X-0.750000X0.500000X-0.750000X0*%
%ADD35FreePoly1,180.000000*%
%ADD36RoundRect,0.050000X-0.650000X-0.850000X0.650000X-0.850000X0.650000X0.850000X-0.650000X0.850000X0*%
%ADD37RoundRect,0.190000X0.170000X-0.140000X0.170000X0.140000X-0.170000X0.140000X-0.170000X-0.140000X0*%
%ADD38RoundRect,0.300000X-0.475000X0.250000X-0.475000X-0.250000X0.475000X-0.250000X0.475000X0.250000X0*%
%ADD39RoundRect,0.050000X-0.900000X1.250000X-0.900000X-1.250000X0.900000X-1.250000X0.900000X1.250000X0*%
%ADD40RoundRect,0.050000X0.850000X0.850000X-0.850000X0.850000X-0.850000X-0.850000X0.850000X-0.850000X0*%
%ADD41C,2.100000*%
%ADD42RoundRect,0.300000X0.325000X1.100000X-0.325000X1.100000X-0.325000X-1.100000X0.325000X-1.100000X0*%
%ADD43RoundRect,0.190000X0.140000X0.170000X-0.140000X0.170000X-0.140000X-0.170000X0.140000X-0.170000X0*%
%ADD44RoundRect,0.300000X0.650000X-0.325000X0.650000X0.325000X-0.650000X0.325000X-0.650000X-0.325000X0*%
%ADD45RoundRect,0.050000X0.850000X-0.850000X0.850000X0.850000X-0.850000X0.850000X-0.850000X-0.850000X0*%
%ADD46RoundRect,0.300000X1.425000X-0.362500X1.425000X0.362500X-1.425000X0.362500X-1.425000X-0.362500X0*%
G04 APERTURE END LIST*
D10*
X161065333Y-109851142D02*
X161017714Y-109898761D01*
X160874857Y-109946380D01*
X160779619Y-109946380D01*
X160636761Y-109898761D01*
X160541523Y-109803523D01*
X160493904Y-109708285D01*
X160446285Y-109517809D01*
X160446285Y-109374952D01*
X160493904Y-109184476D01*
X160541523Y-109089238D01*
X160636761Y-108994000D01*
X160779619Y-108946380D01*
X160874857Y-108946380D01*
X161017714Y-108994000D01*
X161065333Y-109041619D01*
X161684380Y-108946380D02*
X161874857Y-108946380D01*
X161970095Y-108994000D01*
X162065333Y-109089238D01*
X162112952Y-109279714D01*
X162112952Y-109613047D01*
X162065333Y-109803523D01*
X161970095Y-109898761D01*
X161874857Y-109946380D01*
X161684380Y-109946380D01*
X161589142Y-109898761D01*
X161493904Y-109803523D01*
X161446285Y-109613047D01*
X161446285Y-109279714D01*
X161493904Y-109089238D01*
X161589142Y-108994000D01*
X161684380Y-108946380D01*
X163112952Y-109946380D02*
X162779619Y-109470190D01*
X162541523Y-109946380D02*
X162541523Y-108946380D01*
X162922476Y-108946380D01*
X163017714Y-108994000D01*
X163065333Y-109041619D01*
X163112952Y-109136857D01*
X163112952Y-109279714D01*
X163065333Y-109374952D01*
X163017714Y-109422571D01*
X162922476Y-109470190D01*
X162541523Y-109470190D01*
X163541523Y-109422571D02*
X163874857Y-109422571D01*
X164017714Y-109946380D02*
X163541523Y-109946380D01*
X163541523Y-108946380D01*
X164017714Y-108946380D01*
X174284380Y-98608285D02*
X173284380Y-98608285D01*
X173760571Y-98608285D02*
X173760571Y-98036857D01*
X174284380Y-98036857D02*
X173284380Y-98036857D01*
X173284380Y-97703523D02*
X174284380Y-97370190D01*
X173284380Y-97036857D01*
X156670095Y-116846380D02*
X156670095Y-115846380D01*
X156908190Y-115846380D01*
X157051047Y-115894000D01*
X157146285Y-115989238D01*
X157193904Y-116084476D01*
X157241523Y-116274952D01*
X157241523Y-116417809D01*
X157193904Y-116608285D01*
X157146285Y-116703523D01*
X157051047Y-116798761D01*
X156908190Y-116846380D01*
X156670095Y-116846380D01*
X158241523Y-116751142D02*
X158193904Y-116798761D01*
X158051047Y-116846380D01*
X157955809Y-116846380D01*
X157812952Y-116798761D01*
X157717714Y-116703523D01*
X157670095Y-116608285D01*
X157622476Y-116417809D01*
X157622476Y-116274952D01*
X157670095Y-116084476D01*
X157717714Y-115989238D01*
X157812952Y-115894000D01*
X157955809Y-115846380D01*
X158051047Y-115846380D01*
X158193904Y-115894000D01*
X158241523Y-115941619D01*
X158670095Y-116846380D02*
X158670095Y-115846380D01*
X158908190Y-115846380D01*
X159051047Y-115894000D01*
X159146285Y-115989238D01*
X159193904Y-116084476D01*
X159241523Y-116274952D01*
X159241523Y-116417809D01*
X159193904Y-116608285D01*
X159146285Y-116703523D01*
X159051047Y-116798761D01*
X158908190Y-116846380D01*
X158670095Y-116846380D01*
X160241523Y-116751142D02*
X160193904Y-116798761D01*
X160051047Y-116846380D01*
X159955809Y-116846380D01*
X159812952Y-116798761D01*
X159717714Y-116703523D01*
X159670095Y-116608285D01*
X159622476Y-116417809D01*
X159622476Y-116274952D01*
X159670095Y-116084476D01*
X159717714Y-115989238D01*
X159812952Y-115894000D01*
X159955809Y-115846380D01*
X160051047Y-115846380D01*
X160193904Y-115894000D01*
X160241523Y-115941619D01*
D11*
X176527238Y-113974952D02*
X176336761Y-113974952D01*
X176336761Y-113574952D01*
X176660571Y-113974952D02*
X176660571Y-113708285D01*
X176660571Y-113574952D02*
X176641523Y-113594000D01*
X176660571Y-113613047D01*
X176679619Y-113594000D01*
X176660571Y-113574952D01*
X176660571Y-113613047D01*
X176851047Y-113708285D02*
X176851047Y-113974952D01*
X176851047Y-113746380D02*
X176870095Y-113727333D01*
X176908190Y-113708285D01*
X176965333Y-113708285D01*
X177003428Y-113727333D01*
X177022476Y-113765428D01*
X177022476Y-113974952D01*
X177212952Y-113936857D02*
X177232000Y-113955904D01*
X177212952Y-113974952D01*
X177193904Y-113955904D01*
X177212952Y-113936857D01*
X177212952Y-113974952D01*
X177651047Y-113574952D02*
X177784380Y-113974952D01*
X177917714Y-113574952D01*
X178108190Y-113974952D02*
X178070095Y-113955904D01*
X178051047Y-113936857D01*
X178032000Y-113898761D01*
X178032000Y-113784476D01*
X178051047Y-113746380D01*
X178070095Y-113727333D01*
X178108190Y-113708285D01*
X178165333Y-113708285D01*
X178203428Y-113727333D01*
X178222476Y-113746380D01*
X178241523Y-113784476D01*
X178241523Y-113898761D01*
X178222476Y-113936857D01*
X178203428Y-113955904D01*
X178165333Y-113974952D01*
X178108190Y-113974952D01*
X178470095Y-113974952D02*
X178432000Y-113955904D01*
X178412952Y-113917809D01*
X178412952Y-113574952D01*
X178565333Y-113708285D02*
X178717714Y-113708285D01*
X178622476Y-113574952D02*
X178622476Y-113917809D01*
X178641523Y-113955904D01*
X178679619Y-113974952D01*
X178717714Y-113974952D01*
X179022476Y-113974952D02*
X179022476Y-113765428D01*
X179003428Y-113727333D01*
X178965333Y-113708285D01*
X178889142Y-113708285D01*
X178851047Y-113727333D01*
X179022476Y-113955904D02*
X178984380Y-113974952D01*
X178889142Y-113974952D01*
X178851047Y-113955904D01*
X178832000Y-113917809D01*
X178832000Y-113879714D01*
X178851047Y-113841619D01*
X178889142Y-113822571D01*
X178984380Y-113822571D01*
X179022476Y-113803523D01*
X179384380Y-113708285D02*
X179384380Y-114032095D01*
X179365333Y-114070190D01*
X179346285Y-114089238D01*
X179308190Y-114108285D01*
X179251047Y-114108285D01*
X179212952Y-114089238D01*
X179384380Y-113955904D02*
X179346285Y-113974952D01*
X179270095Y-113974952D01*
X179232000Y-113955904D01*
X179212952Y-113936857D01*
X179193904Y-113898761D01*
X179193904Y-113784476D01*
X179212952Y-113746380D01*
X179232000Y-113727333D01*
X179270095Y-113708285D01*
X179346285Y-113708285D01*
X179384380Y-113727333D01*
X179727238Y-113955904D02*
X179689142Y-113974952D01*
X179612952Y-113974952D01*
X179574857Y-113955904D01*
X179555809Y-113917809D01*
X179555809Y-113765428D01*
X179574857Y-113727333D01*
X179612952Y-113708285D01*
X179689142Y-113708285D01*
X179727238Y-113727333D01*
X179746285Y-113765428D01*
X179746285Y-113803523D01*
X179555809Y-113841619D01*
X177755809Y-114174952D02*
X177565333Y-114174952D01*
X177546285Y-114365428D01*
X177565333Y-114346380D01*
X177603428Y-114327333D01*
X177698666Y-114327333D01*
X177736761Y-114346380D01*
X177755809Y-114365428D01*
X177774857Y-114403523D01*
X177774857Y-114498761D01*
X177755809Y-114536857D01*
X177736761Y-114555904D01*
X177698666Y-114574952D01*
X177603428Y-114574952D01*
X177565333Y-114555904D01*
X177546285Y-114536857D01*
X177889142Y-114174952D02*
X178022476Y-114574952D01*
X178155809Y-114174952D01*
X178836761Y-114174952D02*
X179084380Y-114174952D01*
X178951047Y-114327333D01*
X179008190Y-114327333D01*
X179046285Y-114346380D01*
X179065333Y-114365428D01*
X179084380Y-114403523D01*
X179084380Y-114498761D01*
X179065333Y-114536857D01*
X179046285Y-114555904D01*
X179008190Y-114574952D01*
X178893904Y-114574952D01*
X178855809Y-114555904D01*
X178836761Y-114536857D01*
X179198666Y-114174952D02*
X179332000Y-114574952D01*
X179465333Y-114174952D01*
X179560571Y-114174952D02*
X179808190Y-114174952D01*
X179674857Y-114327333D01*
X179732000Y-114327333D01*
X179770095Y-114346380D01*
X179789142Y-114365428D01*
X179808190Y-114403523D01*
X179808190Y-114498761D01*
X179789142Y-114536857D01*
X179770095Y-114555904D01*
X179732000Y-114574952D01*
X179617714Y-114574952D01*
X179579619Y-114555904D01*
X179560571Y-114536857D01*
D12*
X189539285Y-112825000D02*
X189182142Y-113075000D01*
X189539285Y-113253571D02*
X188789285Y-113253571D01*
X188789285Y-112967857D01*
X188825000Y-112896428D01*
X188860714Y-112860714D01*
X188932142Y-112825000D01*
X189039285Y-112825000D01*
X189110714Y-112860714D01*
X189146428Y-112896428D01*
X189182142Y-112967857D01*
X189182142Y-113253571D01*
X188789285Y-112575000D02*
X188789285Y-112110714D01*
X189075000Y-112360714D01*
X189075000Y-112253571D01*
X189110714Y-112182142D01*
X189146428Y-112146428D01*
X189217857Y-112110714D01*
X189396428Y-112110714D01*
X189467857Y-112146428D01*
X189503571Y-112182142D01*
X189539285Y-112253571D01*
X189539285Y-112467857D01*
X189503571Y-112539285D01*
X189467857Y-112575000D01*
D13*
X182248666Y-111472571D02*
X182224857Y-111496380D01*
X182153428Y-111520190D01*
X182105809Y-111520190D01*
X182034380Y-111496380D01*
X181986761Y-111448761D01*
X181962952Y-111401142D01*
X181939142Y-111305904D01*
X181939142Y-111234476D01*
X181962952Y-111139238D01*
X181986761Y-111091619D01*
X182034380Y-111044000D01*
X182105809Y-111020190D01*
X182153428Y-111020190D01*
X182224857Y-111044000D01*
X182248666Y-111067809D01*
X182677238Y-111020190D02*
X182582000Y-111020190D01*
X182534380Y-111044000D01*
X182510571Y-111067809D01*
X182462952Y-111139238D01*
X182439142Y-111234476D01*
X182439142Y-111424952D01*
X182462952Y-111472571D01*
X182486761Y-111496380D01*
X182534380Y-111520190D01*
X182629619Y-111520190D01*
X182677238Y-111496380D01*
X182701047Y-111472571D01*
X182724857Y-111424952D01*
X182724857Y-111305904D01*
X182701047Y-111258285D01*
X182677238Y-111234476D01*
X182629619Y-111210666D01*
X182534380Y-111210666D01*
X182486761Y-111234476D01*
X182462952Y-111258285D01*
X182439142Y-111305904D01*
D12*
X182007000Y-107861857D02*
X181971285Y-107897571D01*
X181864142Y-107933285D01*
X181792714Y-107933285D01*
X181685571Y-107897571D01*
X181614142Y-107826142D01*
X181578428Y-107754714D01*
X181542714Y-107611857D01*
X181542714Y-107504714D01*
X181578428Y-107361857D01*
X181614142Y-107290428D01*
X181685571Y-107219000D01*
X181792714Y-107183285D01*
X181864142Y-107183285D01*
X181971285Y-107219000D01*
X182007000Y-107254714D01*
X182435571Y-107504714D02*
X182364142Y-107469000D01*
X182328428Y-107433285D01*
X182292714Y-107361857D01*
X182292714Y-107326142D01*
X182328428Y-107254714D01*
X182364142Y-107219000D01*
X182435571Y-107183285D01*
X182578428Y-107183285D01*
X182649857Y-107219000D01*
X182685571Y-107254714D01*
X182721285Y-107326142D01*
X182721285Y-107361857D01*
X182685571Y-107433285D01*
X182649857Y-107469000D01*
X182578428Y-107504714D01*
X182435571Y-107504714D01*
X182364142Y-107540428D01*
X182328428Y-107576142D01*
X182292714Y-107647571D01*
X182292714Y-107790428D01*
X182328428Y-107861857D01*
X182364142Y-107897571D01*
X182435571Y-107933285D01*
X182578428Y-107933285D01*
X182649857Y-107897571D01*
X182685571Y-107861857D01*
X182721285Y-107790428D01*
X182721285Y-107647571D01*
X182685571Y-107576142D01*
X182649857Y-107540428D01*
X182578428Y-107504714D01*
D10*
X161357142Y-98166666D02*
X161404761Y-98214285D01*
X161452380Y-98357142D01*
X161452380Y-98452380D01*
X161404761Y-98595238D01*
X161309523Y-98690476D01*
X161214285Y-98738095D01*
X161023809Y-98785714D01*
X160880952Y-98785714D01*
X160690476Y-98738095D01*
X160595238Y-98690476D01*
X160500000Y-98595238D01*
X160452380Y-98452380D01*
X160452380Y-98357142D01*
X160500000Y-98214285D01*
X160547619Y-98166666D01*
X160452380Y-97833333D02*
X160452380Y-97214285D01*
X160833333Y-97547619D01*
X160833333Y-97404761D01*
X160880952Y-97309523D01*
X160928571Y-97261904D01*
X161023809Y-97214285D01*
X161261904Y-97214285D01*
X161357142Y-97261904D01*
X161404761Y-97309523D01*
X161452380Y-97404761D01*
X161452380Y-97690476D01*
X161404761Y-97785714D01*
X161357142Y-97833333D01*
D13*
X165978571Y-116571428D02*
X166002380Y-116595238D01*
X166026190Y-116666666D01*
X166026190Y-116714285D01*
X166002380Y-116785714D01*
X165954761Y-116833333D01*
X165907142Y-116857142D01*
X165811904Y-116880952D01*
X165740476Y-116880952D01*
X165645238Y-116857142D01*
X165597619Y-116833333D01*
X165550000Y-116785714D01*
X165526190Y-116714285D01*
X165526190Y-116666666D01*
X165550000Y-116595238D01*
X165573809Y-116571428D01*
X166026190Y-116095238D02*
X166026190Y-116380952D01*
X166026190Y-116238095D02*
X165526190Y-116238095D01*
X165597619Y-116285714D01*
X165645238Y-116333333D01*
X165669047Y-116380952D01*
X165573809Y-115904761D02*
X165550000Y-115880952D01*
X165526190Y-115833333D01*
X165526190Y-115714285D01*
X165550000Y-115666666D01*
X165573809Y-115642857D01*
X165621428Y-115619047D01*
X165669047Y-115619047D01*
X165740476Y-115642857D01*
X166026190Y-115928571D01*
X166026190Y-115619047D01*
X171010571Y-116572571D02*
X170986761Y-116596380D01*
X170915333Y-116620190D01*
X170867714Y-116620190D01*
X170796285Y-116596380D01*
X170748666Y-116548761D01*
X170724857Y-116501142D01*
X170701047Y-116405904D01*
X170701047Y-116334476D01*
X170724857Y-116239238D01*
X170748666Y-116191619D01*
X170796285Y-116144000D01*
X170867714Y-116120190D01*
X170915333Y-116120190D01*
X170986761Y-116144000D01*
X171010571Y-116167809D01*
X171486761Y-116620190D02*
X171201047Y-116620190D01*
X171343904Y-116620190D02*
X171343904Y-116120190D01*
X171296285Y-116191619D01*
X171248666Y-116239238D01*
X171201047Y-116263047D01*
X171962952Y-116620190D02*
X171677238Y-116620190D01*
X171820095Y-116620190D02*
X171820095Y-116120190D01*
X171772476Y-116191619D01*
X171724857Y-116239238D01*
X171677238Y-116263047D01*
D12*
X175767857Y-107732142D02*
X175803571Y-107767857D01*
X175839285Y-107875000D01*
X175839285Y-107946428D01*
X175803571Y-108053571D01*
X175732142Y-108125000D01*
X175660714Y-108160714D01*
X175517857Y-108196428D01*
X175410714Y-108196428D01*
X175267857Y-108160714D01*
X175196428Y-108125000D01*
X175125000Y-108053571D01*
X175089285Y-107946428D01*
X175089285Y-107875000D01*
X175125000Y-107767857D01*
X175160714Y-107732142D01*
X175839285Y-107017857D02*
X175839285Y-107446428D01*
X175839285Y-107232142D02*
X175089285Y-107232142D01*
X175196428Y-107303571D01*
X175267857Y-107375000D01*
X175303571Y-107446428D01*
X175089285Y-106553571D02*
X175089285Y-106482142D01*
X175125000Y-106410714D01*
X175160714Y-106375000D01*
X175232142Y-106339285D01*
X175375000Y-106303571D01*
X175553571Y-106303571D01*
X175696428Y-106339285D01*
X175767857Y-106375000D01*
X175803571Y-106410714D01*
X175839285Y-106482142D01*
X175839285Y-106553571D01*
X175803571Y-106625000D01*
X175767857Y-106660714D01*
X175696428Y-106696428D01*
X175553571Y-106732142D01*
X175375000Y-106732142D01*
X175232142Y-106696428D01*
X175160714Y-106660714D01*
X175125000Y-106625000D01*
X175089285Y-106553571D01*
D10*
X165952380Y-108560666D02*
X165952380Y-109036857D01*
X164952380Y-109036857D01*
X165952380Y-107703523D02*
X165952380Y-108274952D01*
X165952380Y-107989238D02*
X164952380Y-107989238D01*
X165095238Y-108084476D01*
X165190476Y-108179714D01*
X165238095Y-108274952D01*
D13*
X166626190Y-116571428D02*
X166388095Y-116738095D01*
X166626190Y-116857142D02*
X166126190Y-116857142D01*
X166126190Y-116666666D01*
X166150000Y-116619047D01*
X166173809Y-116595238D01*
X166221428Y-116571428D01*
X166292857Y-116571428D01*
X166340476Y-116595238D01*
X166364285Y-116619047D01*
X166388095Y-116666666D01*
X166388095Y-116857142D01*
X166626190Y-116095238D02*
X166626190Y-116380952D01*
X166626190Y-116238095D02*
X166126190Y-116238095D01*
X166197619Y-116285714D01*
X166245238Y-116333333D01*
X166269047Y-116380952D01*
X166126190Y-115785714D02*
X166126190Y-115738095D01*
X166150000Y-115690476D01*
X166173809Y-115666666D01*
X166221428Y-115642857D01*
X166316666Y-115619047D01*
X166435714Y-115619047D01*
X166530952Y-115642857D01*
X166578571Y-115666666D01*
X166602380Y-115690476D01*
X166626190Y-115738095D01*
X166626190Y-115785714D01*
X166602380Y-115833333D01*
X166578571Y-115857142D01*
X166530952Y-115880952D01*
X166435714Y-115904761D01*
X166316666Y-115904761D01*
X166221428Y-115880952D01*
X166173809Y-115857142D01*
X166150000Y-115833333D01*
X166126190Y-115785714D01*
D10*
X160898666Y-107646380D02*
X160898666Y-108360666D01*
X160851047Y-108503523D01*
X160755809Y-108598761D01*
X160612952Y-108646380D01*
X160517714Y-108646380D01*
X161803428Y-107979714D02*
X161803428Y-108646380D01*
X161565333Y-107598761D02*
X161327238Y-108313047D01*
X161946285Y-108313047D01*
D13*
X176010571Y-114815428D02*
X176034380Y-114839238D01*
X176058190Y-114910666D01*
X176058190Y-114958285D01*
X176034380Y-115029714D01*
X175986761Y-115077333D01*
X175939142Y-115101142D01*
X175843904Y-115124952D01*
X175772476Y-115124952D01*
X175677238Y-115101142D01*
X175629619Y-115077333D01*
X175582000Y-115029714D01*
X175558190Y-114958285D01*
X175558190Y-114910666D01*
X175582000Y-114839238D01*
X175605809Y-114815428D01*
X176058190Y-114339238D02*
X176058190Y-114624952D01*
X176058190Y-114482095D02*
X175558190Y-114482095D01*
X175629619Y-114529714D01*
X175677238Y-114577333D01*
X175701047Y-114624952D01*
X175558190Y-113886857D02*
X175558190Y-114124952D01*
X175796285Y-114148761D01*
X175772476Y-114124952D01*
X175748666Y-114077333D01*
X175748666Y-113958285D01*
X175772476Y-113910666D01*
X175796285Y-113886857D01*
X175843904Y-113863047D01*
X175962952Y-113863047D01*
X176010571Y-113886857D01*
X176034380Y-113910666D01*
X176058190Y-113958285D01*
X176058190Y-114077333D01*
X176034380Y-114124952D01*
X176010571Y-114148761D01*
X173519047Y-113326190D02*
X173519047Y-113730952D01*
X173542857Y-113778571D01*
X173566666Y-113802380D01*
X173614285Y-113826190D01*
X173709523Y-113826190D01*
X173757142Y-113802380D01*
X173780952Y-113778571D01*
X173804761Y-113730952D01*
X173804761Y-113326190D01*
X174304761Y-113826190D02*
X174019047Y-113826190D01*
X174161904Y-113826190D02*
X174161904Y-113326190D01*
X174114285Y-113397619D01*
X174066666Y-113445238D01*
X174019047Y-113469047D01*
D10*
X181857142Y-98166666D02*
X181904761Y-98214285D01*
X181952380Y-98357142D01*
X181952380Y-98452380D01*
X181904761Y-98595238D01*
X181809523Y-98690476D01*
X181714285Y-98738095D01*
X181523809Y-98785714D01*
X181380952Y-98785714D01*
X181190476Y-98738095D01*
X181095238Y-98690476D01*
X181000000Y-98595238D01*
X180952380Y-98452380D01*
X180952380Y-98357142D01*
X181000000Y-98214285D01*
X181047619Y-98166666D01*
X181047619Y-97785714D02*
X181000000Y-97738095D01*
X180952380Y-97642857D01*
X180952380Y-97404761D01*
X181000000Y-97309523D01*
X181047619Y-97261904D01*
X181142857Y-97214285D01*
X181238095Y-97214285D01*
X181380952Y-97261904D01*
X181952380Y-97833333D01*
X181952380Y-97214285D01*
X178652380Y-103938095D02*
X177652380Y-103938095D01*
X177652380Y-103700000D01*
X177700000Y-103557142D01*
X177795238Y-103461904D01*
X177890476Y-103414285D01*
X178080952Y-103366666D01*
X178223809Y-103366666D01*
X178414285Y-103414285D01*
X178509523Y-103461904D01*
X178604761Y-103557142D01*
X178652380Y-103700000D01*
X178652380Y-103938095D01*
X177652380Y-103033333D02*
X177652380Y-102414285D01*
X178033333Y-102747619D01*
X178033333Y-102604761D01*
X178080952Y-102509523D01*
X178128571Y-102461904D01*
X178223809Y-102414285D01*
X178461904Y-102414285D01*
X178557142Y-102461904D01*
X178604761Y-102509523D01*
X178652380Y-102604761D01*
X178652380Y-102890476D01*
X178604761Y-102985714D01*
X178557142Y-103033333D01*
D13*
X172548666Y-116620190D02*
X172382000Y-116382095D01*
X172262952Y-116620190D02*
X172262952Y-116120190D01*
X172453428Y-116120190D01*
X172501047Y-116144000D01*
X172524857Y-116167809D01*
X172548666Y-116215428D01*
X172548666Y-116286857D01*
X172524857Y-116334476D01*
X172501047Y-116358285D01*
X172453428Y-116382095D01*
X172262952Y-116382095D01*
X172786761Y-116620190D02*
X172882000Y-116620190D01*
X172929619Y-116596380D01*
X172953428Y-116572571D01*
X173001047Y-116501142D01*
X173024857Y-116405904D01*
X173024857Y-116215428D01*
X173001047Y-116167809D01*
X172977238Y-116144000D01*
X172929619Y-116120190D01*
X172834380Y-116120190D01*
X172786761Y-116144000D01*
X172762952Y-116167809D01*
X172739142Y-116215428D01*
X172739142Y-116334476D01*
X172762952Y-116382095D01*
X172786761Y-116405904D01*
X172834380Y-116429714D01*
X172929619Y-116429714D01*
X172977238Y-116405904D01*
X173001047Y-116382095D01*
X173024857Y-116334476D01*
D12*
X189607000Y-108633285D02*
X189357000Y-108276142D01*
X189178428Y-108633285D02*
X189178428Y-107883285D01*
X189464142Y-107883285D01*
X189535571Y-107919000D01*
X189571285Y-107954714D01*
X189607000Y-108026142D01*
X189607000Y-108133285D01*
X189571285Y-108204714D01*
X189535571Y-108240428D01*
X189464142Y-108276142D01*
X189178428Y-108276142D01*
X190249857Y-108133285D02*
X190249857Y-108633285D01*
X190071285Y-107847571D02*
X189892714Y-108383285D01*
X190357000Y-108383285D01*
D13*
X180815333Y-114070190D02*
X180815333Y-114427333D01*
X180791523Y-114498761D01*
X180743904Y-114546380D01*
X180672476Y-114570190D01*
X180624857Y-114570190D01*
X181053428Y-114570190D02*
X181053428Y-114070190D01*
X181243904Y-114070190D01*
X181291523Y-114094000D01*
X181315333Y-114117809D01*
X181339142Y-114165428D01*
X181339142Y-114236857D01*
X181315333Y-114284476D01*
X181291523Y-114308285D01*
X181243904Y-114332095D01*
X181053428Y-114332095D01*
X181791523Y-114070190D02*
X181553428Y-114070190D01*
X181529619Y-114308285D01*
X181553428Y-114284476D01*
X181601047Y-114260666D01*
X181720095Y-114260666D01*
X181767714Y-114284476D01*
X181791523Y-114308285D01*
X181815333Y-114355904D01*
X181815333Y-114474952D01*
X181791523Y-114522571D01*
X181767714Y-114546380D01*
X181720095Y-114570190D01*
X181601047Y-114570190D01*
X181553428Y-114546380D01*
X181529619Y-114522571D01*
X179658190Y-112877333D02*
X179420095Y-113044000D01*
X179658190Y-113163047D02*
X179158190Y-113163047D01*
X179158190Y-112972571D01*
X179182000Y-112924952D01*
X179205809Y-112901142D01*
X179253428Y-112877333D01*
X179324857Y-112877333D01*
X179372476Y-112901142D01*
X179396285Y-112924952D01*
X179420095Y-112972571D01*
X179420095Y-113163047D01*
X179372476Y-112591619D02*
X179348666Y-112639238D01*
X179324857Y-112663047D01*
X179277238Y-112686857D01*
X179253428Y-112686857D01*
X179205809Y-112663047D01*
X179182000Y-112639238D01*
X179158190Y-112591619D01*
X179158190Y-112496380D01*
X179182000Y-112448761D01*
X179205809Y-112424952D01*
X179253428Y-112401142D01*
X179277238Y-112401142D01*
X179324857Y-112424952D01*
X179348666Y-112448761D01*
X179372476Y-112496380D01*
X179372476Y-112591619D01*
X179396285Y-112639238D01*
X179420095Y-112663047D01*
X179467714Y-112686857D01*
X179562952Y-112686857D01*
X179610571Y-112663047D01*
X179634380Y-112639238D01*
X179658190Y-112591619D01*
X179658190Y-112496380D01*
X179634380Y-112448761D01*
X179610571Y-112424952D01*
X179562952Y-112401142D01*
X179467714Y-112401142D01*
X179420095Y-112424952D01*
X179396285Y-112448761D01*
X179372476Y-112496380D01*
X179348666Y-111320190D02*
X179182000Y-111082095D01*
X179062952Y-111320190D02*
X179062952Y-110820190D01*
X179253428Y-110820190D01*
X179301047Y-110844000D01*
X179324857Y-110867809D01*
X179348666Y-110915428D01*
X179348666Y-110986857D01*
X179324857Y-111034476D01*
X179301047Y-111058285D01*
X179253428Y-111082095D01*
X179062952Y-111082095D01*
X179777238Y-110820190D02*
X179682000Y-110820190D01*
X179634380Y-110844000D01*
X179610571Y-110867809D01*
X179562952Y-110939238D01*
X179539142Y-111034476D01*
X179539142Y-111224952D01*
X179562952Y-111272571D01*
X179586761Y-111296380D01*
X179634380Y-111320190D01*
X179729619Y-111320190D01*
X179777238Y-111296380D01*
X179801047Y-111272571D01*
X179824857Y-111224952D01*
X179824857Y-111105904D01*
X179801047Y-111058285D01*
X179777238Y-111034476D01*
X179729619Y-111010666D01*
X179634380Y-111010666D01*
X179586761Y-111034476D01*
X179562952Y-111058285D01*
X179539142Y-111105904D01*
D12*
X194439285Y-116547571D02*
X193689285Y-116547571D01*
X193689285Y-116369000D01*
X193725000Y-116261857D01*
X193796428Y-116190428D01*
X193867857Y-116154714D01*
X194010714Y-116119000D01*
X194117857Y-116119000D01*
X194260714Y-116154714D01*
X194332142Y-116190428D01*
X194403571Y-116261857D01*
X194439285Y-116369000D01*
X194439285Y-116547571D01*
X193760714Y-115833285D02*
X193725000Y-115797571D01*
X193689285Y-115726142D01*
X193689285Y-115547571D01*
X193725000Y-115476142D01*
X193760714Y-115440428D01*
X193832142Y-115404714D01*
X193903571Y-115404714D01*
X194010714Y-115440428D01*
X194439285Y-115869000D01*
X194439285Y-115404714D01*
X178299857Y-105919000D02*
X178335571Y-105954714D01*
X178371285Y-106061857D01*
X178371285Y-106133285D01*
X178335571Y-106240428D01*
X178264142Y-106311857D01*
X178192714Y-106347571D01*
X178049857Y-106383285D01*
X177942714Y-106383285D01*
X177799857Y-106347571D01*
X177728428Y-106311857D01*
X177657000Y-106240428D01*
X177621285Y-106133285D01*
X177621285Y-106061857D01*
X177657000Y-105954714D01*
X177692714Y-105919000D01*
X177621285Y-105669000D02*
X177621285Y-105169000D01*
X178371285Y-105490428D01*
D13*
X180810571Y-111777333D02*
X180834380Y-111801142D01*
X180858190Y-111872571D01*
X180858190Y-111920190D01*
X180834380Y-111991619D01*
X180786761Y-112039238D01*
X180739142Y-112063047D01*
X180643904Y-112086857D01*
X180572476Y-112086857D01*
X180477238Y-112063047D01*
X180429619Y-112039238D01*
X180382000Y-111991619D01*
X180358190Y-111920190D01*
X180358190Y-111872571D01*
X180382000Y-111801142D01*
X180405809Y-111777333D01*
X180358190Y-111324952D02*
X180358190Y-111563047D01*
X180596285Y-111586857D01*
X180572476Y-111563047D01*
X180548666Y-111515428D01*
X180548666Y-111396380D01*
X180572476Y-111348761D01*
X180596285Y-111324952D01*
X180643904Y-111301142D01*
X180762952Y-111301142D01*
X180810571Y-111324952D01*
X180834380Y-111348761D01*
X180858190Y-111396380D01*
X180858190Y-111515428D01*
X180834380Y-111563047D01*
X180810571Y-111586857D01*
X173610571Y-116515428D02*
X173634380Y-116539238D01*
X173658190Y-116610666D01*
X173658190Y-116658285D01*
X173634380Y-116729714D01*
X173586761Y-116777333D01*
X173539142Y-116801142D01*
X173443904Y-116824952D01*
X173372476Y-116824952D01*
X173277238Y-116801142D01*
X173229619Y-116777333D01*
X173182000Y-116729714D01*
X173158190Y-116658285D01*
X173158190Y-116610666D01*
X173182000Y-116539238D01*
X173205809Y-116515428D01*
X173658190Y-116039238D02*
X173658190Y-116324952D01*
X173658190Y-116182095D02*
X173158190Y-116182095D01*
X173229619Y-116229714D01*
X173277238Y-116277333D01*
X173301047Y-116324952D01*
X173158190Y-115610666D02*
X173158190Y-115705904D01*
X173182000Y-115753523D01*
X173205809Y-115777333D01*
X173277238Y-115824952D01*
X173372476Y-115848761D01*
X173562952Y-115848761D01*
X173610571Y-115824952D01*
X173634380Y-115801142D01*
X173658190Y-115753523D01*
X173658190Y-115658285D01*
X173634380Y-115610666D01*
X173610571Y-115586857D01*
X173562952Y-115563047D01*
X173443904Y-115563047D01*
X173396285Y-115586857D01*
X173372476Y-115610666D01*
X173348666Y-115658285D01*
X173348666Y-115753523D01*
X173372476Y-115801142D01*
X173396285Y-115824952D01*
X173443904Y-115848761D01*
D10*
X194384380Y-107532095D02*
X193384380Y-107532095D01*
X193384380Y-107294000D01*
X193432000Y-107151142D01*
X193527238Y-107055904D01*
X193622476Y-107008285D01*
X193812952Y-106960666D01*
X193955809Y-106960666D01*
X194146285Y-107008285D01*
X194241523Y-107055904D01*
X194336761Y-107151142D01*
X194384380Y-107294000D01*
X194384380Y-107532095D01*
X194384380Y-106008285D02*
X194384380Y-106579714D01*
X194384380Y-106294000D02*
X193384380Y-106294000D01*
X193527238Y-106389238D01*
X193622476Y-106484476D01*
X193670095Y-106579714D01*
D12*
X181921285Y-116597571D02*
X181171285Y-116597571D01*
X181171285Y-116419000D01*
X181207000Y-116311857D01*
X181278428Y-116240428D01*
X181349857Y-116204714D01*
X181492714Y-116169000D01*
X181599857Y-116169000D01*
X181742714Y-116204714D01*
X181814142Y-116240428D01*
X181885571Y-116311857D01*
X181921285Y-116419000D01*
X181921285Y-116597571D01*
X181421285Y-115526142D02*
X181921285Y-115526142D01*
X181135571Y-115704714D02*
X181671285Y-115883285D01*
X181671285Y-115419000D01*
D10*
X155666666Y-97452380D02*
X155666666Y-98166666D01*
X155619047Y-98309523D01*
X155523809Y-98404761D01*
X155380952Y-98452380D01*
X155285714Y-98452380D01*
X156095238Y-97547619D02*
X156142857Y-97500000D01*
X156238095Y-97452380D01*
X156476190Y-97452380D01*
X156571428Y-97500000D01*
X156619047Y-97547619D01*
X156666666Y-97642857D01*
X156666666Y-97738095D01*
X156619047Y-97880952D01*
X156047619Y-98452380D01*
X156666666Y-98452380D01*
D12*
X189499857Y-110919000D02*
X189535571Y-110954714D01*
X189571285Y-111061857D01*
X189571285Y-111133285D01*
X189535571Y-111240428D01*
X189464142Y-111311857D01*
X189392714Y-111347571D01*
X189249857Y-111383285D01*
X189142714Y-111383285D01*
X188999857Y-111347571D01*
X188928428Y-111311857D01*
X188857000Y-111240428D01*
X188821285Y-111133285D01*
X188821285Y-111061857D01*
X188857000Y-110954714D01*
X188892714Y-110919000D01*
X189571285Y-110204714D02*
X189571285Y-110633285D01*
X189571285Y-110419000D02*
X188821285Y-110419000D01*
X188928428Y-110490428D01*
X188999857Y-110561857D01*
X189035571Y-110633285D01*
D10*
X204166666Y-113352380D02*
X204166666Y-114066666D01*
X204119047Y-114209523D01*
X204023809Y-114304761D01*
X203880952Y-114352380D01*
X203785714Y-114352380D01*
X205166666Y-114352380D02*
X204595238Y-114352380D01*
X204880952Y-114352380D02*
X204880952Y-113352380D01*
X204785714Y-113495238D01*
X204690476Y-113590476D01*
X204595238Y-113638095D01*
D13*
X180958190Y-108277333D02*
X180720095Y-108444000D01*
X180958190Y-108563047D02*
X180458190Y-108563047D01*
X180458190Y-108372571D01*
X180482000Y-108324952D01*
X180505809Y-108301142D01*
X180553428Y-108277333D01*
X180624857Y-108277333D01*
X180672476Y-108301142D01*
X180696285Y-108324952D01*
X180720095Y-108372571D01*
X180720095Y-108563047D01*
X180458190Y-108110666D02*
X180458190Y-107777333D01*
X180958190Y-107991619D01*
D12*
X164517857Y-113517857D02*
X164482142Y-113553571D01*
X164375000Y-113589285D01*
X164303571Y-113589285D01*
X164196428Y-113553571D01*
X164125000Y-113482142D01*
X164089285Y-113410714D01*
X164053571Y-113267857D01*
X164053571Y-113160714D01*
X164089285Y-113017857D01*
X164125000Y-112946428D01*
X164196428Y-112875000D01*
X164303571Y-112839285D01*
X164375000Y-112839285D01*
X164482142Y-112875000D01*
X164517857Y-112910714D01*
X165232142Y-113589285D02*
X164803571Y-113589285D01*
X165017857Y-113589285D02*
X165017857Y-112839285D01*
X164946428Y-112946428D01*
X164875000Y-113017857D01*
X164803571Y-113053571D01*
X165482142Y-112839285D02*
X165982142Y-112839285D01*
X165660714Y-113589285D01*
D13*
X179416666Y-107428571D02*
X179392857Y-107452380D01*
X179321428Y-107476190D01*
X179273809Y-107476190D01*
X179202380Y-107452380D01*
X179154761Y-107404761D01*
X179130952Y-107357142D01*
X179107142Y-107261904D01*
X179107142Y-107190476D01*
X179130952Y-107095238D01*
X179154761Y-107047619D01*
X179202380Y-107000000D01*
X179273809Y-106976190D01*
X179321428Y-106976190D01*
X179392857Y-107000000D01*
X179416666Y-107023809D01*
X179654761Y-107476190D02*
X179750000Y-107476190D01*
X179797619Y-107452380D01*
X179821428Y-107428571D01*
X179869047Y-107357142D01*
X179892857Y-107261904D01*
X179892857Y-107071428D01*
X179869047Y-107023809D01*
X179845238Y-107000000D01*
X179797619Y-106976190D01*
X179702380Y-106976190D01*
X179654761Y-107000000D01*
X179630952Y-107023809D01*
X179607142Y-107071428D01*
X179607142Y-107190476D01*
X179630952Y-107238095D01*
X179654761Y-107261904D01*
X179702380Y-107285714D01*
X179797619Y-107285714D01*
X179845238Y-107261904D01*
X179869047Y-107238095D01*
X179892857Y-107190476D01*
D12*
X171617857Y-109067857D02*
X171582142Y-109103571D01*
X171475000Y-109139285D01*
X171403571Y-109139285D01*
X171296428Y-109103571D01*
X171225000Y-109032142D01*
X171189285Y-108960714D01*
X171153571Y-108817857D01*
X171153571Y-108710714D01*
X171189285Y-108567857D01*
X171225000Y-108496428D01*
X171296428Y-108425000D01*
X171403571Y-108389285D01*
X171475000Y-108389285D01*
X171582142Y-108425000D01*
X171617857Y-108460714D01*
X172332142Y-109139285D02*
X171903571Y-109139285D01*
X172117857Y-109139285D02*
X172117857Y-108389285D01*
X172046428Y-108496428D01*
X171975000Y-108567857D01*
X171903571Y-108603571D01*
X172582142Y-108389285D02*
X173046428Y-108389285D01*
X172796428Y-108675000D01*
X172903571Y-108675000D01*
X172975000Y-108710714D01*
X173010714Y-108746428D01*
X173046428Y-108817857D01*
X173046428Y-108996428D01*
X173010714Y-109067857D01*
X172975000Y-109103571D01*
X172903571Y-109139285D01*
X172689285Y-109139285D01*
X172617857Y-109103571D01*
X172582142Y-109067857D01*
D10*
X173347380Y-100327333D02*
X174061666Y-100327333D01*
X174204523Y-100374952D01*
X174299761Y-100470190D01*
X174347380Y-100613047D01*
X174347380Y-100708285D01*
X173347380Y-99946380D02*
X173347380Y-99327333D01*
X173728333Y-99660666D01*
X173728333Y-99517809D01*
X173775952Y-99422571D01*
X173823571Y-99374952D01*
X173918809Y-99327333D01*
X174156904Y-99327333D01*
X174252142Y-99374952D01*
X174299761Y-99422571D01*
X174347380Y-99517809D01*
X174347380Y-99803523D01*
X174299761Y-99898761D01*
X174252142Y-99946380D01*
X185165333Y-108846380D02*
X184832000Y-108370190D01*
X184593904Y-108846380D02*
X184593904Y-107846380D01*
X184974857Y-107846380D01*
X185070095Y-107894000D01*
X185117714Y-107941619D01*
X185165333Y-108036857D01*
X185165333Y-108179714D01*
X185117714Y-108274952D01*
X185070095Y-108322571D01*
X184974857Y-108370190D01*
X184593904Y-108370190D01*
X186070095Y-107846380D02*
X185593904Y-107846380D01*
X185546285Y-108322571D01*
X185593904Y-108274952D01*
X185689142Y-108227333D01*
X185927238Y-108227333D01*
X186022476Y-108274952D01*
X186070095Y-108322571D01*
X186117714Y-108417809D01*
X186117714Y-108655904D01*
X186070095Y-108751142D01*
X186022476Y-108798761D01*
X185927238Y-108846380D01*
X185689142Y-108846380D01*
X185593904Y-108798761D01*
X185546285Y-108751142D01*
X195333333Y-115722380D02*
X195000000Y-115246190D01*
X194761904Y-115722380D02*
X194761904Y-114722380D01*
X195142857Y-114722380D01*
X195238095Y-114770000D01*
X195285714Y-114817619D01*
X195333333Y-114912857D01*
X195333333Y-115055714D01*
X195285714Y-115150952D01*
X195238095Y-115198571D01*
X195142857Y-115246190D01*
X194761904Y-115246190D01*
X196285714Y-115722380D02*
X195714285Y-115722380D01*
X196000000Y-115722380D02*
X196000000Y-114722380D01*
X195904761Y-114865238D01*
X195809523Y-114960476D01*
X195714285Y-115008095D01*
X157298666Y-114546380D02*
X157298666Y-115260666D01*
X157251047Y-115403523D01*
X157155809Y-115498761D01*
X157012952Y-115546380D01*
X156917714Y-115546380D01*
X158251047Y-114546380D02*
X157774857Y-114546380D01*
X157727238Y-115022571D01*
X157774857Y-114974952D01*
X157870095Y-114927333D01*
X158108190Y-114927333D01*
X158203428Y-114974952D01*
X158251047Y-115022571D01*
X158298666Y-115117809D01*
X158298666Y-115355904D01*
X158251047Y-115451142D01*
X158203428Y-115498761D01*
X158108190Y-115546380D01*
X157870095Y-115546380D01*
X157774857Y-115498761D01*
X157727238Y-115451142D01*
D14*
X189820000Y-112853641D02*
X189820000Y-112546359D01*
X190580000Y-112853641D02*
X190580000Y-112546359D01*
X182490580Y-109790000D02*
X182209420Y-109790000D01*
X182490580Y-110810000D02*
X182209420Y-110810000D01*
X182209420Y-109310000D02*
X182490580Y-109310000D01*
X182209420Y-108290000D02*
X182490580Y-108290000D01*
X162040000Y-107460000D02*
X162040000Y-103510000D01*
X172560000Y-98004437D02*
X172560000Y-100890000D01*
X172560000Y-98004437D02*
X171495563Y-96940000D01*
X162040000Y-96940000D02*
X162040000Y-100890000D01*
X172560000Y-106395563D02*
X172560000Y-103510000D01*
X171495563Y-96940000D02*
X162040000Y-96940000D01*
X172560000Y-106395563D02*
X171495563Y-107460000D01*
X171495563Y-107460000D02*
X162040000Y-107460000D01*
X167492164Y-115840000D02*
X167707836Y-115840000D01*
X167492164Y-116560000D02*
X167707836Y-116560000D01*
X171692000Y-114986164D02*
X171692000Y-115201836D01*
X170972000Y-114986164D02*
X170972000Y-115201836D01*
X172990000Y-105288748D02*
X172990000Y-106711252D01*
X174810000Y-105288748D02*
X174810000Y-106711252D01*
X166450000Y-112400000D02*
X166450000Y-112200000D01*
X166450000Y-108209875D02*
X166450000Y-108390125D01*
X170650000Y-112400000D02*
X166450000Y-112400000D01*
X170650000Y-108209875D02*
X166450000Y-108209875D01*
X170650000Y-108390125D02*
X170650000Y-108209875D01*
X170650000Y-112200000D02*
X170650000Y-112400000D01*
X169803641Y-116580000D02*
X169496359Y-116580000D01*
X169803641Y-115820000D02*
X169496359Y-115820000D01*
X160505000Y-110270000D02*
X160505000Y-112930000D01*
X163105000Y-110270000D02*
X160505000Y-110270000D01*
X163105000Y-110270000D02*
X163105000Y-112930000D01*
X165705000Y-110270000D02*
X165705000Y-111600000D01*
X163105000Y-112930000D02*
X160505000Y-112930000D01*
X164375000Y-110270000D02*
X165705000Y-110270000D01*
X175672000Y-115986164D02*
X175672000Y-116201836D01*
X176392000Y-115986164D02*
X176392000Y-116201836D01*
X174040000Y-108990000D02*
X174040000Y-109465000D01*
X174515000Y-108990000D02*
X174040000Y-108990000D01*
X174515000Y-113210000D02*
X174040000Y-113210000D01*
X174040000Y-113210000D02*
X174040000Y-112735000D01*
X177785000Y-108990000D02*
X178260000Y-108990000D01*
X178260000Y-108990000D02*
X178260000Y-109465000D01*
X177785000Y-113210000D02*
X178260000Y-113210000D01*
X192960000Y-96940000D02*
X192960000Y-100890000D01*
X183504437Y-107460000D02*
X192960000Y-107460000D01*
X183504437Y-96940000D02*
X192960000Y-96940000D01*
X182440000Y-106395563D02*
X182440000Y-103510000D01*
X182440000Y-106395563D02*
X183504437Y-107460000D01*
X182440000Y-98004437D02*
X182440000Y-100890000D01*
X182440000Y-98004437D02*
X183504437Y-96940000D01*
X192960000Y-107460000D02*
X192960000Y-103510000D01*
X177200000Y-104950000D02*
X177200000Y-100650000D01*
X177200000Y-100650000D02*
X175200000Y-100650000D01*
X175200000Y-100650000D02*
X175200000Y-104950000D01*
X173012000Y-114940359D02*
X173012000Y-115247641D01*
X172252000Y-114940359D02*
X172252000Y-115247641D01*
X189546359Y-108870000D02*
X189853641Y-108870000D01*
X189546359Y-109630000D02*
X189853641Y-109630000D01*
X180300000Y-116700000D02*
X177500000Y-116700000D01*
X177500000Y-114700000D02*
X180300000Y-114700000D01*
X180950000Y-115400000D02*
X180950000Y-116000000D01*
X176850000Y-116000000D02*
X176850000Y-115400000D01*
X180250000Y-116700000D02*
G75*
G03*
X180950000Y-116000000I0J700000D01*
G01*
X176850000Y-116000000D02*
G75*
G03*
X177550000Y-116700000I700000J0D01*
G01*
X177550000Y-114700000D02*
G75*
G03*
X176850000Y-115400000I0J-700000D01*
G01*
X180950000Y-115400000D02*
G75*
G03*
X180250000Y-114700000I-700000J0D01*
G01*
X180580000Y-113246359D02*
X180580000Y-113553641D01*
X179820000Y-113246359D02*
X179820000Y-113553641D01*
X180103641Y-109920000D02*
X179796359Y-109920000D01*
X180103641Y-110680000D02*
X179796359Y-110680000D01*
X188450000Y-116800000D02*
X192750000Y-116800000D01*
X188450000Y-114800000D02*
X188450000Y-116800000D01*
X192750000Y-114800000D02*
X188450000Y-114800000D01*
X177690000Y-107607836D02*
X177690000Y-107392164D01*
X178410000Y-107607836D02*
X178410000Y-107392164D01*
X181760000Y-112607836D02*
X181760000Y-112392164D01*
X181040000Y-112607836D02*
X181040000Y-112392164D01*
X173797000Y-115157748D02*
X173797000Y-115680252D01*
X175267000Y-115157748D02*
X175267000Y-115680252D01*
X190950000Y-107800000D02*
X190950000Y-113200000D01*
X194250000Y-107800000D02*
X190950000Y-107800000D01*
X194250000Y-107800000D02*
X194250000Y-113200000D01*
X184100000Y-116050000D02*
X184100000Y-111750000D01*
X182100000Y-111750000D02*
X182100000Y-116050000D01*
X184100000Y-111750000D02*
X182100000Y-111750000D01*
X157432071Y-105284000D02*
X157035000Y-105284000D01*
X154375000Y-113004000D02*
X148375000Y-113004000D01*
X157432071Y-111124000D02*
X157035000Y-111124000D01*
X148375000Y-113664000D02*
X148375000Y-112904000D01*
X157432071Y-103504000D02*
X157035000Y-103504000D01*
X154375000Y-111124000D02*
X148375000Y-111124000D01*
X157432071Y-110364000D02*
X157035000Y-110364000D01*
X159745000Y-114554000D02*
X158475000Y-114554000D01*
X154375000Y-113604000D02*
X148375000Y-113604000D01*
X154375000Y-114614000D02*
X157035000Y-114614000D01*
X154375000Y-113244000D02*
X148375000Y-113244000D01*
X157432071Y-107824000D02*
X157035000Y-107824000D01*
X157035000Y-101854000D02*
X154375000Y-101854000D01*
X154375000Y-113664000D02*
X148375000Y-113664000D01*
X148375000Y-111124000D02*
X148375000Y-110364000D01*
X148375000Y-105284000D02*
X154375000Y-105284000D01*
X157432071Y-100204000D02*
X157035000Y-100204000D01*
X154375000Y-113484000D02*
X148375000Y-113484000D01*
X154375000Y-106044000D02*
X148375000Y-106044000D01*
X148375000Y-100204000D02*
X154375000Y-100204000D01*
X154375000Y-113124000D02*
X148375000Y-113124000D01*
X154375000Y-113364000D02*
X148375000Y-113364000D01*
X157035000Y-106934000D02*
X154375000Y-106934000D01*
X157365000Y-112904000D02*
X157035000Y-112904000D01*
X148375000Y-107824000D02*
X154375000Y-107824000D01*
X154375000Y-103504000D02*
X148375000Y-103504000D01*
X148375000Y-108584000D02*
X148375000Y-107824000D01*
X154375000Y-108584000D02*
X148375000Y-108584000D01*
X148375000Y-102744000D02*
X154375000Y-102744000D01*
X148375000Y-100964000D02*
X148375000Y-100204000D01*
X157035000Y-114614000D02*
X157035000Y-99254000D01*
X148375000Y-110364000D02*
X154375000Y-110364000D01*
X157035000Y-104394000D02*
X154375000Y-104394000D01*
X154375000Y-100964000D02*
X148375000Y-100964000D01*
X148375000Y-112904000D02*
X154375000Y-112904000D01*
X157035000Y-109474000D02*
X154375000Y-109474000D01*
X148375000Y-103504000D02*
X148375000Y-102744000D01*
X157432071Y-108584000D02*
X157035000Y-108584000D01*
X154375000Y-99254000D02*
X154375000Y-114614000D01*
X157432071Y-100964000D02*
X157035000Y-100964000D01*
X148375000Y-106044000D02*
X148375000Y-105284000D01*
X157035000Y-99254000D02*
X154375000Y-99254000D01*
X157035000Y-112014000D02*
X154375000Y-112014000D01*
X157432071Y-102744000D02*
X157035000Y-102744000D01*
X157432071Y-106044000D02*
X157035000Y-106044000D01*
X159745000Y-113284000D02*
X159745000Y-114554000D01*
X157365000Y-113664000D02*
X157035000Y-113664000D01*
X189840000Y-110857836D02*
X189840000Y-110642164D01*
X190560000Y-110857836D02*
X190560000Y-110642164D01*
X205310000Y-112760000D02*
X195190000Y-112760000D01*
X205310000Y-112760000D02*
X205310000Y-101140000D01*
X195190000Y-101140000D02*
X195190000Y-112760000D01*
X205310000Y-101140000D02*
X195190000Y-101140000D01*
X179796359Y-108720000D02*
X180103641Y-108720000D01*
X179796359Y-109480000D02*
X180103641Y-109480000D01*
X169261252Y-112740000D02*
X167838748Y-112740000D01*
X169261252Y-115460000D02*
X167838748Y-115460000D01*
X179557836Y-107640000D02*
X179342164Y-107640000D01*
X179557836Y-108360000D02*
X179342164Y-108360000D01*
X173060000Y-112311252D02*
X173060000Y-110888748D01*
X171240000Y-112311252D02*
X171240000Y-110888748D01*
X177495000Y-97270000D02*
X180095000Y-97270000D01*
X174895000Y-99930000D02*
X174895000Y-98600000D01*
X180095000Y-99930000D02*
X180095000Y-97270000D01*
X177495000Y-99930000D02*
X180095000Y-99930000D01*
X177495000Y-99930000D02*
X177495000Y-97270000D01*
X176225000Y-99930000D02*
X174895000Y-99930000D01*
X184590000Y-115077064D02*
X184590000Y-110722936D01*
X188010000Y-115077064D02*
X188010000Y-110722936D01*
X195653641Y-113720000D02*
X195346359Y-113720000D01*
X195653641Y-114480000D02*
X195346359Y-114480000D01*
X163105000Y-116530000D02*
X160505000Y-116530000D01*
X163105000Y-113870000D02*
X163105000Y-116530000D01*
X163105000Y-113870000D02*
X160505000Y-113870000D01*
X160505000Y-113870000D02*
X160505000Y-116530000D01*
X165705000Y-113870000D02*
X165705000Y-115200000D01*
X164375000Y-113870000D02*
X165705000Y-113870000D01*
%LPC*%
D15*
X190200000Y-113210000D03*
X190200000Y-112190000D03*
D16*
X183125000Y-110300000D03*
X181575000Y-110300000D03*
D17*
X181575000Y-108800000D03*
X183125000Y-108800000D03*
D18*
X171700000Y-102200000D03*
X162900000Y-102200000D03*
D19*
X167120000Y-116200000D03*
X168080000Y-116200000D03*
D20*
X171332000Y-114614000D03*
X171332000Y-115574000D03*
D21*
X173900000Y-104525000D03*
X173900000Y-107475000D03*
D22*
X170075000Y-110300000D03*
X167025000Y-110300000D03*
D23*
X170160000Y-116200000D03*
X169140000Y-116200000D03*
D24*
X164375000Y-111600000D03*
D25*
X161835000Y-111600000D03*
D20*
X176032000Y-115614000D03*
X176032000Y-116574000D03*
D26*
X178137500Y-112350000D03*
X178137500Y-111850000D03*
X178137500Y-111350000D03*
X178137500Y-110850000D03*
X178137500Y-110350000D03*
X178137500Y-109850000D03*
D27*
X177400000Y-109112500D03*
X176900000Y-109112500D03*
X176400000Y-109112500D03*
X175900000Y-109112500D03*
X175400000Y-109112500D03*
X174900000Y-109112500D03*
D26*
X174162500Y-109850000D03*
X174162500Y-110350000D03*
X174162500Y-110850000D03*
X174162500Y-111350000D03*
X174162500Y-111850000D03*
X174162500Y-112350000D03*
D27*
X174900000Y-113087500D03*
X175400000Y-113087500D03*
X175900000Y-113087500D03*
X176400000Y-113087500D03*
X176900000Y-113087500D03*
X177400000Y-113087500D03*
D28*
X176150000Y-111100000D03*
D29*
X183300000Y-102200000D03*
X192100000Y-102200000D03*
D30*
X176200000Y-101450000D03*
X176200000Y-104950000D03*
D31*
X172632000Y-114584000D03*
X172632000Y-115604000D03*
D32*
X189190000Y-109250000D03*
X190210000Y-109250000D03*
D33*
X180200000Y-115700000D03*
D34*
X178900000Y-115700000D03*
D35*
X177600000Y-115700000D03*
D31*
X180200000Y-112890000D03*
X180200000Y-113910000D03*
D23*
X180460000Y-110300000D03*
X179440000Y-110300000D03*
D36*
X189250000Y-115800000D03*
X192750000Y-115800000D03*
D37*
X178050000Y-107980000D03*
X178050000Y-107020000D03*
X181400000Y-112980000D03*
X181400000Y-112020000D03*
D38*
X174532000Y-114469000D03*
X174532000Y-116369000D03*
D39*
X192600000Y-109200000D03*
X192600000Y-113200000D03*
D30*
X183100000Y-112550000D03*
X183100000Y-116050000D03*
D40*
X158475000Y-113284000D03*
D25*
X158475000Y-110744000D03*
X158475000Y-108204000D03*
X158475000Y-105664000D03*
X158475000Y-103124000D03*
X158475000Y-100584000D03*
D37*
X190200000Y-111230000D03*
X190200000Y-110270000D03*
D41*
X198650000Y-110150000D03*
X198650000Y-104400000D03*
D32*
X179440000Y-109100000D03*
X180460000Y-109100000D03*
D42*
X170025000Y-114100000D03*
X167075000Y-114100000D03*
D43*
X179930000Y-108000000D03*
X178970000Y-108000000D03*
D44*
X172150000Y-113075000D03*
X172150000Y-110125000D03*
D45*
X176225000Y-98600000D03*
D25*
X178765000Y-98600000D03*
D46*
X186300000Y-115862500D03*
X186300000Y-109937500D03*
D23*
X196010000Y-114100000D03*
X194990000Y-114100000D03*
D24*
X164375000Y-115200000D03*
D25*
X161835000Y-115200000D03*
M02*
