G04 #@! TF.GenerationSoftware,KiCad,Pcbnew,(5.99.0-12840-g99442350a4)*
G04 #@! TF.CreationDate,2021-11-05T14:17:08+01:00*
G04 #@! TF.ProjectId,stknx,73746b6e-782e-46b6-9963-61645f706362,rev?*
G04 #@! TF.SameCoordinates,Original*
G04 #@! TF.FileFunction,Paste,Top*
G04 #@! TF.FilePolarity,Positive*
%FSLAX46Y46*%
G04 Gerber Fmt 4.6, Leading zero omitted, Abs format (unit mm)*
G04 Created by KiCad (PCBNEW (5.99.0-12840-g99442350a4)) date 2021-11-05 14:17:08*
%MOMM*%
%LPD*%
G01*
G04 APERTURE LIST*
G04 Aperture macros list*
%AMRoundRect*
0 Rectangle with rounded corners*
0 $1 Rounding radius*
0 $2 $3 $4 $5 $6 $7 $8 $9 X,Y pos of 4 corners*
0 Add a 4 corners polygon primitive as box body*
4,1,4,$2,$3,$4,$5,$6,$7,$8,$9,$2,$3,0*
0 Add four circle primitives for the rounded corners*
1,1,$1+$1,$2,$3*
1,1,$1+$1,$4,$5*
1,1,$1+$1,$6,$7*
1,1,$1+$1,$8,$9*
0 Add four rect primitives between the rounded corners*
20,1,$1+$1,$2,$3,$4,$5,0*
20,1,$1+$1,$4,$5,$6,$7,0*
20,1,$1+$1,$6,$7,$8,$9,0*
20,1,$1+$1,$8,$9,$2,$3,0*%
G04 Aperture macros list end*
%ADD10RoundRect,0.135000X0.185000X-0.135000X0.185000X0.135000X-0.185000X0.135000X-0.185000X-0.135000X0*%
%ADD11RoundRect,0.225000X0.225000X0.250000X-0.225000X0.250000X-0.225000X-0.250000X0.225000X-0.250000X0*%
%ADD12RoundRect,0.225000X-0.225000X-0.250000X0.225000X-0.250000X0.225000X0.250000X-0.225000X0.250000X0*%
%ADD13RoundRect,0.250001X2.049999X0.799999X-2.049999X0.799999X-2.049999X-0.799999X2.049999X-0.799999X0*%
%ADD14RoundRect,0.140000X-0.140000X-0.170000X0.140000X-0.170000X0.140000X0.170000X-0.140000X0.170000X0*%
%ADD15RoundRect,0.140000X-0.170000X0.140000X-0.170000X-0.140000X0.170000X-0.140000X0.170000X0.140000X0*%
%ADD16RoundRect,0.250000X-0.650000X0.325000X-0.650000X-0.325000X0.650000X-0.325000X0.650000X0.325000X0*%
%ADD17R,1.500000X3.600000*%
%ADD18RoundRect,0.135000X0.135000X0.185000X-0.135000X0.185000X-0.135000X-0.185000X0.135000X-0.185000X0*%
%ADD19RoundRect,0.165000X0.165000X0.165000X-0.165000X0.165000X-0.165000X-0.165000X0.165000X-0.165000X0*%
%ADD20RoundRect,0.062500X0.325000X0.062500X-0.325000X0.062500X-0.325000X-0.062500X0.325000X-0.062500X0*%
%ADD21RoundRect,0.062500X0.062500X0.325000X-0.062500X0.325000X-0.062500X-0.325000X0.062500X-0.325000X0*%
%ADD22RoundRect,0.250001X-2.049999X-0.799999X2.049999X-0.799999X2.049999X0.799999X-2.049999X0.799999X0*%
%ADD23R,1.700000X1.300000*%
%ADD24RoundRect,0.135000X-0.185000X0.135000X-0.185000X-0.135000X0.185000X-0.135000X0.185000X0.135000X0*%
%ADD25RoundRect,0.135000X-0.135000X-0.185000X0.135000X-0.185000X0.135000X0.185000X-0.135000X0.185000X0*%
%ADD26R,1.300000X1.700000*%
%ADD27RoundRect,0.140000X0.170000X-0.140000X0.170000X0.140000X-0.170000X0.140000X-0.170000X-0.140000X0*%
%ADD28RoundRect,0.250000X-0.475000X0.250000X-0.475000X-0.250000X0.475000X-0.250000X0.475000X0.250000X0*%
%ADD29R,1.800000X2.500000*%
%ADD30RoundRect,0.250000X0.325000X1.100000X-0.325000X1.100000X-0.325000X-1.100000X0.325000X-1.100000X0*%
%ADD31RoundRect,0.140000X0.140000X0.170000X-0.140000X0.170000X-0.140000X-0.170000X0.140000X-0.170000X0*%
%ADD32RoundRect,0.250000X0.650000X-0.325000X0.650000X0.325000X-0.650000X0.325000X-0.650000X-0.325000X0*%
%ADD33RoundRect,0.250000X1.425000X-0.362500X1.425000X0.362500X-1.425000X0.362500X-1.425000X-0.362500X0*%
G04 APERTURE END LIST*
D10*
X190200000Y-113210000D03*
X190200000Y-112190000D03*
D11*
X183125000Y-110300000D03*
X181575000Y-110300000D03*
D12*
X181575000Y-108800000D03*
X183125000Y-108800000D03*
D13*
X171700000Y-102200000D03*
X162900000Y-102200000D03*
D14*
X167120000Y-116200000D03*
X168080000Y-116200000D03*
D15*
X171332000Y-114614000D03*
X171332000Y-115574000D03*
D16*
X173900000Y-104525000D03*
X173900000Y-107475000D03*
D17*
X170075000Y-110300000D03*
X167025000Y-110300000D03*
D18*
X170160000Y-116200000D03*
X169140000Y-116200000D03*
D15*
X176032000Y-115614000D03*
X176032000Y-116574000D03*
D19*
X176970000Y-111920000D03*
X176970000Y-110280000D03*
X175330000Y-111100000D03*
X175330000Y-110280000D03*
X175330000Y-111920000D03*
X176150000Y-111100000D03*
X176150000Y-110280000D03*
X176150000Y-111920000D03*
X176970000Y-111100000D03*
D20*
X178137500Y-112350000D03*
X178137500Y-111850000D03*
X178137500Y-111350000D03*
X178137500Y-110850000D03*
X178137500Y-110350000D03*
X178137500Y-109850000D03*
D21*
X177400000Y-109112500D03*
X176900000Y-109112500D03*
X176400000Y-109112500D03*
X175900000Y-109112500D03*
X175400000Y-109112500D03*
X174900000Y-109112500D03*
D20*
X174162500Y-109850000D03*
X174162500Y-110350000D03*
X174162500Y-110850000D03*
X174162500Y-111350000D03*
X174162500Y-111850000D03*
X174162500Y-112350000D03*
D21*
X174900000Y-113087500D03*
X175400000Y-113087500D03*
X175900000Y-113087500D03*
X176400000Y-113087500D03*
X176900000Y-113087500D03*
X177400000Y-113087500D03*
D22*
X183300000Y-102200000D03*
X192100000Y-102200000D03*
D23*
X176200000Y-101450000D03*
X176200000Y-104950000D03*
D24*
X172632000Y-114584000D03*
X172632000Y-115604000D03*
D25*
X189190000Y-109250000D03*
X190210000Y-109250000D03*
D24*
X180200000Y-112890000D03*
X180200000Y-113910000D03*
D18*
X180460000Y-110300000D03*
X179440000Y-110300000D03*
D26*
X189250000Y-115800000D03*
X192750000Y-115800000D03*
D27*
X178050000Y-107980000D03*
X178050000Y-107020000D03*
X181400000Y-112980000D03*
X181400000Y-112020000D03*
D28*
X174532000Y-114469000D03*
X174532000Y-116369000D03*
D29*
X192600000Y-109200000D03*
X192600000Y-113200000D03*
D23*
X183100000Y-112550000D03*
X183100000Y-116050000D03*
D27*
X190200000Y-111230000D03*
X190200000Y-110270000D03*
D25*
X179440000Y-109100000D03*
X180460000Y-109100000D03*
D30*
X170025000Y-114100000D03*
X167075000Y-114100000D03*
D31*
X179930000Y-108000000D03*
X178970000Y-108000000D03*
D32*
X172150000Y-113075000D03*
X172150000Y-110125000D03*
D33*
X186300000Y-115862500D03*
X186300000Y-109937500D03*
D18*
X196010000Y-114100000D03*
X194990000Y-114100000D03*
M02*
