G04 #@! TF.GenerationSoftware,KiCad,Pcbnew,(5.99.0-12840-g99442350a4)*
G04 #@! TF.CreationDate,2021-11-05T14:17:08+01:00*
G04 #@! TF.ProjectId,stknx,73746b6e-782e-46b6-9963-61645f706362,rev?*
G04 #@! TF.SameCoordinates,Original*
G04 #@! TF.FileFunction,Legend,Bot*
G04 #@! TF.FilePolarity,Positive*
%FSLAX46Y46*%
G04 Gerber Fmt 4.6, Leading zero omitted, Abs format (unit mm)*
G04 Created by KiCad (PCBNEW (5.99.0-12840-g99442350a4)) date 2021-11-05 14:17:08*
%MOMM*%
%LPD*%
G01*
G04 APERTURE LIST*
G04 Aperture macros list*
%AMRoundRect*
0 Rectangle with rounded corners*
0 $1 Rounding radius*
0 $2 $3 $4 $5 $6 $7 $8 $9 X,Y pos of 4 corners*
0 Add a 4 corners polygon primitive as box body*
4,1,4,$2,$3,$4,$5,$6,$7,$8,$9,$2,$3,0*
0 Add four circle primitives for the rounded corners*
1,1,$1+$1,$2,$3*
1,1,$1+$1,$4,$5*
1,1,$1+$1,$6,$7*
1,1,$1+$1,$8,$9*
0 Add four rect primitives between the rounded corners*
20,1,$1+$1,$2,$3,$4,$5,0*
20,1,$1+$1,$4,$5,$6,$7,0*
20,1,$1+$1,$6,$7,$8,$9,0*
20,1,$1+$1,$8,$9,$2,$3,0*%
%AMFreePoly0*
4,1,37,0.535355,0.785355,0.550000,0.750000,0.550000,-0.750000,0.535355,-0.785355,0.500000,-0.800000,0.000000,-0.800000,-0.012524,-0.794812,-0.080857,-0.793560,-0.094851,-0.791293,-0.230166,-0.749018,-0.242962,-0.742915,-0.360972,-0.664360,-0.371540,-0.654911,-0.462760,-0.546392,-0.470252,-0.534356,-0.527347,-0.404597,-0.531159,-0.390943,-0.548742,-0.256483,-0.547388,-0.256306,-0.550000,-0.250000,
-0.550000,0.250000,-0.549522,0.251153,-0.549368,0.263802,-0.527557,0.403879,-0.523412,0.417435,-0.463164,0.545760,-0.455381,0.557609,-0.361537,0.663867,-0.350741,0.673055,-0.230846,0.748703,-0.217905,0.754492,-0.081598,0.793449,-0.067552,0.795373,-0.011991,0.795033,0.000000,0.800000,0.500000,0.800000,0.535355,0.785355,0.535355,0.785355,$1*%
%AMFreePoly1*
4,1,37,0.012350,0.794884,0.074210,0.794507,0.088231,0.792412,0.224052,0.751793,0.236921,0.745846,0.355883,0.668739,0.366566,0.659420,0.459104,0.552023,0.466742,0.540080,0.525419,0.411028,0.529398,0.397421,0.549495,0.257088,0.550000,0.250000,0.550000,-0.250000,0.549996,-0.250610,0.549847,-0.262826,0.549158,-0.270511,0.525638,-0.410312,0.521328,-0.423818,0.459516,-0.551397,
0.451589,-0.563150,0.356454,-0.668254,0.345546,-0.677309,0.224736,-0.751486,0.211726,-0.757116,0.074953,-0.794405,0.060885,-0.796158,0.011462,-0.795252,0.000000,-0.800000,-0.500000,-0.800000,-0.535355,-0.785355,-0.550000,-0.750000,-0.550000,0.750000,-0.535355,0.785355,-0.500000,0.800000,0.000000,0.800000,0.012350,0.794884,0.012350,0.794884,$1*%
%AMFreePoly2*
4,1,37,0.585355,0.785355,0.600000,0.750000,0.600000,-0.750000,0.585355,-0.785355,0.550000,-0.800000,0.000000,-0.800000,-0.012524,-0.794812,-0.080857,-0.793560,-0.094851,-0.791293,-0.230166,-0.749018,-0.242962,-0.742915,-0.360972,-0.664360,-0.371540,-0.654911,-0.462760,-0.546392,-0.470252,-0.534356,-0.527347,-0.404597,-0.531159,-0.390943,-0.548742,-0.256483,-0.547388,-0.256306,-0.550000,-0.250000,
-0.550000,0.250000,-0.549522,0.251153,-0.549368,0.263802,-0.527557,0.403879,-0.523412,0.417435,-0.463164,0.545760,-0.455381,0.557609,-0.361537,0.663867,-0.350741,0.673055,-0.230846,0.748703,-0.217905,0.754492,-0.081598,0.793449,-0.067552,0.795373,-0.011991,0.795033,0.000000,0.800000,0.550000,0.800000,0.585355,0.785355,0.585355,0.785355,$1*%
%AMFreePoly3*
4,1,37,0.012350,0.794884,0.074210,0.794507,0.088231,0.792412,0.224052,0.751793,0.236921,0.745846,0.355883,0.668739,0.366566,0.659420,0.459104,0.552023,0.466742,0.540080,0.525419,0.411028,0.529398,0.397421,0.549495,0.257088,0.550000,0.250000,0.550000,-0.250000,0.549996,-0.250610,0.549847,-0.262826,0.549158,-0.270511,0.525638,-0.410312,0.521328,-0.423818,0.459516,-0.551397,
0.451589,-0.563150,0.356454,-0.668254,0.345546,-0.677309,0.224736,-0.751486,0.211726,-0.757116,0.074953,-0.794405,0.060885,-0.796158,0.011462,-0.795252,0.000000,-0.800000,-0.550000,-0.800000,-0.585355,-0.785355,-0.600000,-0.750000,-0.600000,0.750000,-0.585355,0.785355,-0.550000,0.800000,0.000000,0.800000,0.012350,0.794884,0.012350,0.794884,$1*%
G04 Aperture macros list end*
%ADD10C,0.070000*%
%ADD11C,0.075000*%
%ADD12C,0.100000*%
%ADD13C,0.150000*%
%ADD14C,0.120000*%
%ADD15RoundRect,0.050000X-0.850000X0.850000X-0.850000X-0.850000X0.850000X-0.850000X0.850000X0.850000X0*%
%ADD16O,1.800000X1.800000*%
%ADD17RoundRect,0.050000X0.850000X0.850000X-0.850000X0.850000X-0.850000X-0.850000X0.850000X-0.850000X0*%
%ADD18C,2.100000*%
%ADD19RoundRect,0.050000X0.850000X-0.850000X0.850000X0.850000X-0.850000X0.850000X-0.850000X-0.850000X0*%
%ADD20FreePoly0,0.000000*%
%ADD21FreePoly1,0.000000*%
%ADD22RoundRect,0.185000X-0.185000X0.135000X-0.185000X-0.135000X0.185000X-0.135000X0.185000X0.135000X0*%
%ADD23RoundRect,0.190000X0.140000X0.170000X-0.140000X0.170000X-0.140000X-0.170000X0.140000X-0.170000X0*%
%ADD24RoundRect,0.300000X0.475000X-0.250000X0.475000X0.250000X-0.475000X0.250000X-0.475000X-0.250000X0*%
%ADD25RoundRect,0.185000X-0.135000X-0.185000X0.135000X-0.185000X0.135000X0.185000X-0.135000X0.185000X0*%
%ADD26FreePoly0,180.000000*%
%ADD27FreePoly1,180.000000*%
%ADD28RoundRect,0.185000X0.185000X-0.135000X0.185000X0.135000X-0.185000X0.135000X-0.185000X-0.135000X0*%
%ADD29FreePoly2,0.000000*%
%ADD30RoundRect,0.050000X-0.500000X-0.750000X0.500000X-0.750000X0.500000X0.750000X-0.500000X0.750000X0*%
%ADD31FreePoly3,0.000000*%
%ADD32RoundRect,0.050000X-0.250000X0.250000X-0.250000X-0.250000X0.250000X-0.250000X0.250000X0.250000X0*%
%ADD33RoundRect,0.190000X-0.140000X-0.170000X0.140000X-0.170000X0.140000X0.170000X-0.140000X0.170000X0*%
G04 APERTURE END LIST*
D10*
X171212952Y-107813047D02*
X171289142Y-107813047D01*
X171327238Y-107794000D01*
X171365333Y-107755904D01*
X171384380Y-107679714D01*
X171384380Y-107546380D01*
X171365333Y-107470190D01*
X171327238Y-107432095D01*
X171289142Y-107413047D01*
X171212952Y-107413047D01*
X171174857Y-107432095D01*
X171136761Y-107470190D01*
X171117714Y-107546380D01*
X171117714Y-107679714D01*
X171136761Y-107755904D01*
X171174857Y-107794000D01*
X171212952Y-107813047D01*
X171555809Y-107679714D02*
X171555809Y-107413047D01*
X171555809Y-107641619D02*
X171574857Y-107660666D01*
X171612952Y-107679714D01*
X171670095Y-107679714D01*
X171708190Y-107660666D01*
X171727238Y-107622571D01*
X171727238Y-107413047D01*
D11*
X186458190Y-104889238D02*
X186458190Y-104651142D01*
X185958190Y-104651142D01*
X186458190Y-105055904D02*
X186124857Y-105055904D01*
X185958190Y-105055904D02*
X185982000Y-105032095D01*
X186005809Y-105055904D01*
X185982000Y-105079714D01*
X185958190Y-105055904D01*
X186005809Y-105055904D01*
X186124857Y-105294000D02*
X186458190Y-105294000D01*
X186172476Y-105294000D02*
X186148666Y-105317809D01*
X186124857Y-105365428D01*
X186124857Y-105436857D01*
X186148666Y-105484476D01*
X186196285Y-105508285D01*
X186458190Y-105508285D01*
X186434380Y-105936857D02*
X186458190Y-105889238D01*
X186458190Y-105794000D01*
X186434380Y-105746380D01*
X186386761Y-105722571D01*
X186196285Y-105722571D01*
X186148666Y-105746380D01*
X186124857Y-105794000D01*
X186124857Y-105889238D01*
X186148666Y-105936857D01*
X186196285Y-105960666D01*
X186243904Y-105960666D01*
X186291523Y-105722571D01*
X186458190Y-106389238D02*
X186196285Y-106389238D01*
X186148666Y-106365428D01*
X186124857Y-106317809D01*
X186124857Y-106222571D01*
X186148666Y-106174952D01*
X186434380Y-106389238D02*
X186458190Y-106341619D01*
X186458190Y-106222571D01*
X186434380Y-106174952D01*
X186386761Y-106151142D01*
X186339142Y-106151142D01*
X186291523Y-106174952D01*
X186267714Y-106222571D01*
X186267714Y-106341619D01*
X186243904Y-106389238D01*
X186458190Y-106627333D02*
X186124857Y-106627333D01*
X186220095Y-106627333D02*
X186172476Y-106651142D01*
X186148666Y-106674952D01*
X186124857Y-106722571D01*
X186124857Y-106770190D01*
X186458190Y-107603523D02*
X186220095Y-107436857D01*
X186458190Y-107317809D02*
X185958190Y-107317809D01*
X185958190Y-107508285D01*
X185982000Y-107555904D01*
X186005809Y-107579714D01*
X186053428Y-107603523D01*
X186124857Y-107603523D01*
X186172476Y-107579714D01*
X186196285Y-107555904D01*
X186220095Y-107508285D01*
X186220095Y-107317809D01*
X186434380Y-108008285D02*
X186458190Y-107960666D01*
X186458190Y-107865428D01*
X186434380Y-107817809D01*
X186386761Y-107794000D01*
X186196285Y-107794000D01*
X186148666Y-107817809D01*
X186124857Y-107865428D01*
X186124857Y-107960666D01*
X186148666Y-108008285D01*
X186196285Y-108032095D01*
X186243904Y-108032095D01*
X186291523Y-107794000D01*
X186124857Y-108460666D02*
X186529619Y-108460666D01*
X186577238Y-108436857D01*
X186601047Y-108413047D01*
X186624857Y-108365428D01*
X186624857Y-108294000D01*
X186601047Y-108246380D01*
X186434380Y-108460666D02*
X186458190Y-108413047D01*
X186458190Y-108317809D01*
X186434380Y-108270190D01*
X186410571Y-108246380D01*
X186362952Y-108222571D01*
X186220095Y-108222571D01*
X186172476Y-108246380D01*
X186148666Y-108270190D01*
X186124857Y-108317809D01*
X186124857Y-108413047D01*
X186148666Y-108460666D01*
X186124857Y-108913047D02*
X186458190Y-108913047D01*
X186124857Y-108698761D02*
X186386761Y-108698761D01*
X186434380Y-108722571D01*
X186458190Y-108770190D01*
X186458190Y-108841619D01*
X186434380Y-108889238D01*
X186410571Y-108913047D01*
X186458190Y-109222571D02*
X186434380Y-109174952D01*
X186386761Y-109151142D01*
X185958190Y-109151142D01*
X186458190Y-109627333D02*
X186196285Y-109627333D01*
X186148666Y-109603523D01*
X186124857Y-109555904D01*
X186124857Y-109460666D01*
X186148666Y-109413047D01*
X186434380Y-109627333D02*
X186458190Y-109579714D01*
X186458190Y-109460666D01*
X186434380Y-109413047D01*
X186386761Y-109389238D01*
X186339142Y-109389238D01*
X186291523Y-109413047D01*
X186267714Y-109460666D01*
X186267714Y-109579714D01*
X186243904Y-109627333D01*
X186124857Y-109794000D02*
X186124857Y-109984476D01*
X185958190Y-109865428D02*
X186386761Y-109865428D01*
X186434380Y-109889238D01*
X186458190Y-109936857D01*
X186458190Y-109984476D01*
X186458190Y-110222571D02*
X186434380Y-110174952D01*
X186410571Y-110151142D01*
X186362952Y-110127333D01*
X186220095Y-110127333D01*
X186172476Y-110151142D01*
X186148666Y-110174952D01*
X186124857Y-110222571D01*
X186124857Y-110294000D01*
X186148666Y-110341619D01*
X186172476Y-110365428D01*
X186220095Y-110389238D01*
X186362952Y-110389238D01*
X186410571Y-110365428D01*
X186434380Y-110341619D01*
X186458190Y-110294000D01*
X186458190Y-110222571D01*
X186458190Y-110603523D02*
X186124857Y-110603523D01*
X186220095Y-110603523D02*
X186172476Y-110627333D01*
X186148666Y-110651142D01*
X186124857Y-110698761D01*
X186124857Y-110746380D01*
X186458190Y-111294000D02*
X185958190Y-111294000D01*
X186124857Y-111532095D02*
X186458190Y-111532095D01*
X186172476Y-111532095D02*
X186148666Y-111555904D01*
X186124857Y-111603523D01*
X186124857Y-111674952D01*
X186148666Y-111722571D01*
X186196285Y-111746380D01*
X186458190Y-111746380D01*
X186124857Y-111984476D02*
X186624857Y-111984476D01*
X186148666Y-111984476D02*
X186124857Y-112032095D01*
X186124857Y-112127333D01*
X186148666Y-112174952D01*
X186172476Y-112198761D01*
X186220095Y-112222571D01*
X186362952Y-112222571D01*
X186410571Y-112198761D01*
X186434380Y-112174952D01*
X186458190Y-112127333D01*
X186458190Y-112032095D01*
X186434380Y-111984476D01*
X186124857Y-112651142D02*
X186458190Y-112651142D01*
X186124857Y-112436857D02*
X186386761Y-112436857D01*
X186434380Y-112460666D01*
X186458190Y-112508285D01*
X186458190Y-112579714D01*
X186434380Y-112627333D01*
X186410571Y-112651142D01*
X186124857Y-112817809D02*
X186124857Y-113008285D01*
X185958190Y-112889238D02*
X186386761Y-112889238D01*
X186434380Y-112913047D01*
X186458190Y-112960666D01*
X186458190Y-113008285D01*
D10*
X172465333Y-107813047D02*
X172541523Y-107813047D01*
X172579619Y-107794000D01*
X172617714Y-107755904D01*
X172636761Y-107679714D01*
X172636761Y-107546380D01*
X172617714Y-107470190D01*
X172579619Y-107432095D01*
X172541523Y-107413047D01*
X172465333Y-107413047D01*
X172427238Y-107432095D01*
X172389142Y-107470190D01*
X172370095Y-107546380D01*
X172370095Y-107679714D01*
X172389142Y-107755904D01*
X172427238Y-107794000D01*
X172465333Y-107813047D01*
X172751047Y-107679714D02*
X172903428Y-107679714D01*
X172808190Y-107413047D02*
X172808190Y-107755904D01*
X172827238Y-107794000D01*
X172865333Y-107813047D01*
X172903428Y-107813047D01*
X172979619Y-107679714D02*
X173132000Y-107679714D01*
X173036761Y-107413047D02*
X173036761Y-107755904D01*
X173055809Y-107794000D01*
X173093904Y-107813047D01*
X173132000Y-107813047D01*
D11*
X169230952Y-109070309D02*
X169230952Y-109570309D01*
X169350000Y-109570309D01*
X169421428Y-109546500D01*
X169469047Y-109498880D01*
X169492857Y-109451261D01*
X169516666Y-109356023D01*
X169516666Y-109284595D01*
X169492857Y-109189357D01*
X169469047Y-109141738D01*
X169421428Y-109094119D01*
X169350000Y-109070309D01*
X169230952Y-109070309D01*
X170016666Y-109117928D02*
X169992857Y-109094119D01*
X169921428Y-109070309D01*
X169873809Y-109070309D01*
X169802380Y-109094119D01*
X169754761Y-109141738D01*
X169730952Y-109189357D01*
X169707142Y-109284595D01*
X169707142Y-109356023D01*
X169730952Y-109451261D01*
X169754761Y-109498880D01*
X169802380Y-109546500D01*
X169873809Y-109570309D01*
X169921428Y-109570309D01*
X169992857Y-109546500D01*
X170016666Y-109522690D01*
X170230952Y-109070309D02*
X170230952Y-109570309D01*
X170350000Y-109570309D01*
X170421428Y-109546500D01*
X170469047Y-109498880D01*
X170492857Y-109451261D01*
X170516666Y-109356023D01*
X170516666Y-109284595D01*
X170492857Y-109189357D01*
X170469047Y-109141738D01*
X170421428Y-109094119D01*
X170350000Y-109070309D01*
X170230952Y-109070309D01*
X171016666Y-109117928D02*
X170992857Y-109094119D01*
X170921428Y-109070309D01*
X170873809Y-109070309D01*
X170802380Y-109094119D01*
X170754761Y-109141738D01*
X170730952Y-109189357D01*
X170707142Y-109284595D01*
X170707142Y-109356023D01*
X170730952Y-109451261D01*
X170754761Y-109498880D01*
X170802380Y-109546500D01*
X170873809Y-109570309D01*
X170921428Y-109570309D01*
X170992857Y-109546500D01*
X171016666Y-109522690D01*
X171897619Y-109070309D02*
X171730952Y-109308404D01*
X171611904Y-109070309D02*
X171611904Y-109570309D01*
X171802380Y-109570309D01*
X171850000Y-109546500D01*
X171873809Y-109522690D01*
X171897619Y-109475071D01*
X171897619Y-109403642D01*
X171873809Y-109356023D01*
X171850000Y-109332214D01*
X171802380Y-109308404D01*
X171611904Y-109308404D01*
X172302380Y-109094119D02*
X172254761Y-109070309D01*
X172159523Y-109070309D01*
X172111904Y-109094119D01*
X172088095Y-109141738D01*
X172088095Y-109332214D01*
X172111904Y-109379833D01*
X172159523Y-109403642D01*
X172254761Y-109403642D01*
X172302380Y-109379833D01*
X172326190Y-109332214D01*
X172326190Y-109284595D01*
X172088095Y-109236976D01*
X172754761Y-109403642D02*
X172754761Y-108998880D01*
X172730952Y-108951261D01*
X172707142Y-108927452D01*
X172659523Y-108903642D01*
X172588095Y-108903642D01*
X172540476Y-108927452D01*
X172754761Y-109094119D02*
X172707142Y-109070309D01*
X172611904Y-109070309D01*
X172564285Y-109094119D01*
X172540476Y-109117928D01*
X172516666Y-109165547D01*
X172516666Y-109308404D01*
X172540476Y-109356023D01*
X172564285Y-109379833D01*
X172611904Y-109403642D01*
X172707142Y-109403642D01*
X172754761Y-109379833D01*
X173207142Y-109403642D02*
X173207142Y-109070309D01*
X172992857Y-109403642D02*
X172992857Y-109141738D01*
X173016666Y-109094119D01*
X173064285Y-109070309D01*
X173135714Y-109070309D01*
X173183333Y-109094119D01*
X173207142Y-109117928D01*
X173516666Y-109070309D02*
X173469047Y-109094119D01*
X173445238Y-109141738D01*
X173445238Y-109570309D01*
X173921428Y-109070309D02*
X173921428Y-109332214D01*
X173897619Y-109379833D01*
X173850000Y-109403642D01*
X173754761Y-109403642D01*
X173707142Y-109379833D01*
X173921428Y-109094119D02*
X173873809Y-109070309D01*
X173754761Y-109070309D01*
X173707142Y-109094119D01*
X173683333Y-109141738D01*
X173683333Y-109189357D01*
X173707142Y-109236976D01*
X173754761Y-109260785D01*
X173873809Y-109260785D01*
X173921428Y-109284595D01*
X174088095Y-109403642D02*
X174278571Y-109403642D01*
X174159523Y-109570309D02*
X174159523Y-109141738D01*
X174183333Y-109094119D01*
X174230952Y-109070309D01*
X174278571Y-109070309D01*
X174516666Y-109070309D02*
X174469047Y-109094119D01*
X174445238Y-109117928D01*
X174421428Y-109165547D01*
X174421428Y-109308404D01*
X174445238Y-109356023D01*
X174469047Y-109379833D01*
X174516666Y-109403642D01*
X174588095Y-109403642D01*
X174635714Y-109379833D01*
X174659523Y-109356023D01*
X174683333Y-109308404D01*
X174683333Y-109165547D01*
X174659523Y-109117928D01*
X174635714Y-109094119D01*
X174588095Y-109070309D01*
X174516666Y-109070309D01*
X174897619Y-109070309D02*
X174897619Y-109403642D01*
X174897619Y-109308404D02*
X174921428Y-109356023D01*
X174945238Y-109379833D01*
X174992857Y-109403642D01*
X175040476Y-109403642D01*
X171314285Y-108312928D02*
X171290476Y-108289119D01*
X171219047Y-108265309D01*
X171171428Y-108265309D01*
X171100000Y-108289119D01*
X171052380Y-108336738D01*
X171028571Y-108384357D01*
X171004761Y-108479595D01*
X171004761Y-108551023D01*
X171028571Y-108646261D01*
X171052380Y-108693880D01*
X171100000Y-108741500D01*
X171171428Y-108765309D01*
X171219047Y-108765309D01*
X171290476Y-108741500D01*
X171314285Y-108717690D01*
X171600000Y-108265309D02*
X171552380Y-108289119D01*
X171528571Y-108312928D01*
X171504761Y-108360547D01*
X171504761Y-108503404D01*
X171528571Y-108551023D01*
X171552380Y-108574833D01*
X171600000Y-108598642D01*
X171671428Y-108598642D01*
X171719047Y-108574833D01*
X171742857Y-108551023D01*
X171766666Y-108503404D01*
X171766666Y-108360547D01*
X171742857Y-108312928D01*
X171719047Y-108289119D01*
X171671428Y-108265309D01*
X171600000Y-108265309D01*
X171980952Y-108598642D02*
X171980952Y-108265309D01*
X171980952Y-108551023D02*
X172004761Y-108574833D01*
X172052380Y-108598642D01*
X172123809Y-108598642D01*
X172171428Y-108574833D01*
X172195238Y-108527214D01*
X172195238Y-108265309D01*
X172361904Y-108598642D02*
X172552380Y-108598642D01*
X172433333Y-108265309D02*
X172433333Y-108693880D01*
X172457142Y-108741500D01*
X172504761Y-108765309D01*
X172552380Y-108765309D01*
X172719047Y-108265309D02*
X172719047Y-108598642D01*
X172719047Y-108765309D02*
X172695238Y-108741500D01*
X172719047Y-108717690D01*
X172742857Y-108741500D01*
X172719047Y-108765309D01*
X172719047Y-108717690D01*
X173171428Y-108598642D02*
X173171428Y-108193880D01*
X173147619Y-108146261D01*
X173123809Y-108122452D01*
X173076190Y-108098642D01*
X173004761Y-108098642D01*
X172957142Y-108122452D01*
X173171428Y-108289119D02*
X173123809Y-108265309D01*
X173028571Y-108265309D01*
X172980952Y-108289119D01*
X172957142Y-108312928D01*
X172933333Y-108360547D01*
X172933333Y-108503404D01*
X172957142Y-108551023D01*
X172980952Y-108574833D01*
X173028571Y-108598642D01*
X173123809Y-108598642D01*
X173171428Y-108574833D01*
D10*
X185212952Y-105379714D02*
X185612952Y-105513047D01*
X185212952Y-105646380D01*
X185612952Y-105779714D02*
X185212952Y-105779714D01*
X185212952Y-105874952D01*
X185232000Y-105932095D01*
X185270095Y-105970190D01*
X185308190Y-105989238D01*
X185384380Y-106008285D01*
X185441523Y-106008285D01*
X185517714Y-105989238D01*
X185555809Y-105970190D01*
X185593904Y-105932095D01*
X185612952Y-105874952D01*
X185612952Y-105779714D01*
X185612952Y-106179714D02*
X185212952Y-106179714D01*
X185212952Y-106274952D01*
X185232000Y-106332095D01*
X185270095Y-106370190D01*
X185308190Y-106389238D01*
X185384380Y-106408285D01*
X185441523Y-106408285D01*
X185517714Y-106389238D01*
X185555809Y-106370190D01*
X185593904Y-106332095D01*
X185612952Y-106274952D01*
X185612952Y-106179714D01*
X185612952Y-106579714D02*
X185212952Y-106579714D01*
X185403428Y-106579714D02*
X185403428Y-106808285D01*
X185612952Y-106808285D02*
X185212952Y-106808285D01*
X185212952Y-106941619D02*
X185612952Y-107074952D01*
X185212952Y-107208285D01*
X185212952Y-107860666D02*
X185612952Y-107994000D01*
X185212952Y-108127333D01*
X185612952Y-108260666D02*
X185212952Y-108260666D01*
X185212952Y-108355904D01*
X185232000Y-108413047D01*
X185270095Y-108451142D01*
X185308190Y-108470190D01*
X185384380Y-108489238D01*
X185441523Y-108489238D01*
X185517714Y-108470190D01*
X185555809Y-108451142D01*
X185593904Y-108413047D01*
X185612952Y-108355904D01*
X185612952Y-108260666D01*
X185574857Y-108889238D02*
X185593904Y-108870190D01*
X185612952Y-108813047D01*
X185612952Y-108774952D01*
X185593904Y-108717809D01*
X185555809Y-108679714D01*
X185517714Y-108660666D01*
X185441523Y-108641619D01*
X185384380Y-108641619D01*
X185308190Y-108660666D01*
X185270095Y-108679714D01*
X185232000Y-108717809D01*
X185212952Y-108774952D01*
X185212952Y-108813047D01*
X185232000Y-108870190D01*
X185251047Y-108889238D01*
X185612952Y-109060666D02*
X185212952Y-109060666D01*
X185212952Y-109155904D01*
X185232000Y-109213047D01*
X185270095Y-109251142D01*
X185308190Y-109270190D01*
X185384380Y-109289238D01*
X185441523Y-109289238D01*
X185517714Y-109270190D01*
X185555809Y-109251142D01*
X185593904Y-109213047D01*
X185612952Y-109155904D01*
X185612952Y-109060666D01*
X185574857Y-109689238D02*
X185593904Y-109670190D01*
X185612952Y-109613047D01*
X185612952Y-109574952D01*
X185593904Y-109517809D01*
X185555809Y-109479714D01*
X185517714Y-109460666D01*
X185441523Y-109441619D01*
X185384380Y-109441619D01*
X185308190Y-109460666D01*
X185270095Y-109479714D01*
X185232000Y-109517809D01*
X185212952Y-109574952D01*
X185212952Y-109613047D01*
X185232000Y-109670190D01*
X185251047Y-109689238D01*
D11*
X163955690Y-97760666D02*
X164455690Y-97927333D01*
X163955690Y-98094000D01*
X164408071Y-98546380D02*
X164431880Y-98522571D01*
X164455690Y-98451142D01*
X164455690Y-98403523D01*
X164431880Y-98332095D01*
X164384261Y-98284476D01*
X164336642Y-98260666D01*
X164241404Y-98236857D01*
X164169976Y-98236857D01*
X164074738Y-98260666D01*
X164027119Y-98284476D01*
X163979500Y-98332095D01*
X163955690Y-98403523D01*
X163955690Y-98451142D01*
X163979500Y-98522571D01*
X164003309Y-98546380D01*
X164408071Y-99046380D02*
X164431880Y-99022571D01*
X164455690Y-98951142D01*
X164455690Y-98903523D01*
X164431880Y-98832095D01*
X164384261Y-98784476D01*
X164336642Y-98760666D01*
X164241404Y-98736857D01*
X164169976Y-98736857D01*
X164074738Y-98760666D01*
X164027119Y-98784476D01*
X163979500Y-98832095D01*
X163955690Y-98903523D01*
X163955690Y-98951142D01*
X163979500Y-99022571D01*
X164003309Y-99046380D01*
X163955690Y-99355904D02*
X163955690Y-99451142D01*
X163979500Y-99498761D01*
X164027119Y-99546380D01*
X164122357Y-99570190D01*
X164289023Y-99570190D01*
X164384261Y-99546380D01*
X164431880Y-99498761D01*
X164455690Y-99451142D01*
X164455690Y-99355904D01*
X164431880Y-99308285D01*
X164384261Y-99260666D01*
X164289023Y-99236857D01*
X164122357Y-99236857D01*
X164027119Y-99260666D01*
X163979500Y-99308285D01*
X163955690Y-99355904D01*
X164455690Y-100070190D02*
X164217595Y-99903523D01*
X164455690Y-99784476D02*
X163955690Y-99784476D01*
X163955690Y-99974952D01*
X163979500Y-100022571D01*
X164003309Y-100046380D01*
X164050928Y-100070190D01*
X164122357Y-100070190D01*
X164169976Y-100046380D01*
X164193785Y-100022571D01*
X164217595Y-99974952D01*
X164217595Y-99784476D01*
X164193785Y-100284476D02*
X164193785Y-100451142D01*
X164455690Y-100522571D02*
X164455690Y-100284476D01*
X163955690Y-100284476D01*
X163955690Y-100522571D01*
X164431880Y-101094000D02*
X164455690Y-101165428D01*
X164455690Y-101284476D01*
X164431880Y-101332095D01*
X164408071Y-101355904D01*
X164360452Y-101379714D01*
X164312833Y-101379714D01*
X164265214Y-101355904D01*
X164241404Y-101332095D01*
X164217595Y-101284476D01*
X164193785Y-101189238D01*
X164169976Y-101141619D01*
X164146166Y-101117809D01*
X164098547Y-101094000D01*
X164050928Y-101094000D01*
X164003309Y-101117809D01*
X163979500Y-101141619D01*
X163955690Y-101189238D01*
X163955690Y-101308285D01*
X163979500Y-101379714D01*
X164122357Y-101808285D02*
X164455690Y-101808285D01*
X164122357Y-101594000D02*
X164384261Y-101594000D01*
X164431880Y-101617809D01*
X164455690Y-101665428D01*
X164455690Y-101736857D01*
X164431880Y-101784476D01*
X164408071Y-101808285D01*
X164122357Y-102046380D02*
X164622357Y-102046380D01*
X164146166Y-102046380D02*
X164122357Y-102094000D01*
X164122357Y-102189238D01*
X164146166Y-102236857D01*
X164169976Y-102260666D01*
X164217595Y-102284476D01*
X164360452Y-102284476D01*
X164408071Y-102260666D01*
X164431880Y-102236857D01*
X164455690Y-102189238D01*
X164455690Y-102094000D01*
X164431880Y-102046380D01*
X164122357Y-102498761D02*
X164622357Y-102498761D01*
X164146166Y-102498761D02*
X164122357Y-102546380D01*
X164122357Y-102641619D01*
X164146166Y-102689238D01*
X164169976Y-102713047D01*
X164217595Y-102736857D01*
X164360452Y-102736857D01*
X164408071Y-102713047D01*
X164431880Y-102689238D01*
X164455690Y-102641619D01*
X164455690Y-102546380D01*
X164431880Y-102498761D01*
X164455690Y-103022571D02*
X164431880Y-102974952D01*
X164384261Y-102951142D01*
X163955690Y-102951142D01*
X164122357Y-103165428D02*
X164455690Y-103284476D01*
X164122357Y-103403523D02*
X164455690Y-103284476D01*
X164574738Y-103236857D01*
X164598547Y-103213047D01*
X164622357Y-103165428D01*
X164998785Y-99463047D02*
X164998785Y-99629714D01*
X165260690Y-99701142D02*
X165260690Y-99463047D01*
X164760690Y-99463047D01*
X164760690Y-99701142D01*
X164927357Y-99915428D02*
X165260690Y-99915428D01*
X164974976Y-99915428D02*
X164951166Y-99939238D01*
X164927357Y-99986857D01*
X164927357Y-100058285D01*
X164951166Y-100105904D01*
X164998785Y-100129714D01*
X165260690Y-100129714D01*
X165260690Y-100582095D02*
X164998785Y-100582095D01*
X164951166Y-100558285D01*
X164927357Y-100510666D01*
X164927357Y-100415428D01*
X164951166Y-100367809D01*
X165236880Y-100582095D02*
X165260690Y-100534476D01*
X165260690Y-100415428D01*
X165236880Y-100367809D01*
X165189261Y-100344000D01*
X165141642Y-100344000D01*
X165094023Y-100367809D01*
X165070214Y-100415428D01*
X165070214Y-100534476D01*
X165046404Y-100582095D01*
X165260690Y-100820190D02*
X164760690Y-100820190D01*
X164951166Y-100820190D02*
X164927357Y-100867809D01*
X164927357Y-100963047D01*
X164951166Y-101010666D01*
X164974976Y-101034476D01*
X165022595Y-101058285D01*
X165165452Y-101058285D01*
X165213071Y-101034476D01*
X165236880Y-101010666D01*
X165260690Y-100963047D01*
X165260690Y-100867809D01*
X165236880Y-100820190D01*
X165260690Y-101344000D02*
X165236880Y-101296380D01*
X165189261Y-101272571D01*
X164760690Y-101272571D01*
X165236880Y-101724952D02*
X165260690Y-101677333D01*
X165260690Y-101582095D01*
X165236880Y-101534476D01*
X165189261Y-101510666D01*
X164998785Y-101510666D01*
X164951166Y-101534476D01*
X164927357Y-101582095D01*
X164927357Y-101677333D01*
X164951166Y-101724952D01*
X164998785Y-101748761D01*
X165046404Y-101748761D01*
X165094023Y-101510666D01*
D10*
X185212952Y-110913047D02*
X185212952Y-110989238D01*
X185232000Y-111027333D01*
X185270095Y-111065428D01*
X185346285Y-111084476D01*
X185479619Y-111084476D01*
X185555809Y-111065428D01*
X185593904Y-111027333D01*
X185612952Y-110989238D01*
X185612952Y-110913047D01*
X185593904Y-110874952D01*
X185555809Y-110836857D01*
X185479619Y-110817809D01*
X185346285Y-110817809D01*
X185270095Y-110836857D01*
X185232000Y-110874952D01*
X185212952Y-110913047D01*
X185403428Y-111389238D02*
X185403428Y-111255904D01*
X185612952Y-111255904D02*
X185212952Y-111255904D01*
X185212952Y-111446380D01*
X185403428Y-111732095D02*
X185403428Y-111598761D01*
X185612952Y-111598761D02*
X185212952Y-111598761D01*
X185212952Y-111789238D01*
D12*
X180671285Y-108169000D02*
X181207000Y-108169000D01*
X181314142Y-108133285D01*
X181385571Y-108061857D01*
X181421285Y-107954714D01*
X181421285Y-107883285D01*
X181421285Y-108526142D02*
X180671285Y-108526142D01*
X180671285Y-108811857D01*
X180707000Y-108883285D01*
X180742714Y-108919000D01*
X180814142Y-108954714D01*
X180921285Y-108954714D01*
X180992714Y-108919000D01*
X181028428Y-108883285D01*
X181064142Y-108811857D01*
X181064142Y-108526142D01*
X180671285Y-109204714D02*
X180671285Y-109669000D01*
X180957000Y-109419000D01*
X180957000Y-109526142D01*
X180992714Y-109597571D01*
X181028428Y-109633285D01*
X181099857Y-109669000D01*
X181278428Y-109669000D01*
X181349857Y-109633285D01*
X181385571Y-109597571D01*
X181421285Y-109526142D01*
X181421285Y-109311857D01*
X181385571Y-109240428D01*
X181349857Y-109204714D01*
D13*
X173852380Y-101533333D02*
X173376190Y-101200000D01*
X173852380Y-100961904D02*
X172852380Y-100961904D01*
X172852380Y-101342857D01*
X172900000Y-101438095D01*
X172947619Y-101485714D01*
X173042857Y-101533333D01*
X173185714Y-101533333D01*
X173280952Y-101485714D01*
X173328571Y-101438095D01*
X173376190Y-101342857D01*
X173376190Y-100961904D01*
X172947619Y-101914285D02*
X172900000Y-101961904D01*
X172852380Y-102057142D01*
X172852380Y-102295238D01*
X172900000Y-102390476D01*
X172947619Y-102438095D01*
X173042857Y-102485714D01*
X173138095Y-102485714D01*
X173280952Y-102438095D01*
X173852380Y-101866666D01*
X173852380Y-102485714D01*
D12*
X183657000Y-112583285D02*
X183657000Y-113119000D01*
X183692714Y-113226142D01*
X183764142Y-113297571D01*
X183871285Y-113333285D01*
X183942714Y-113333285D01*
X183299857Y-113333285D02*
X183299857Y-112583285D01*
X183014142Y-112583285D01*
X182942714Y-112619000D01*
X182907000Y-112654714D01*
X182871285Y-112726142D01*
X182871285Y-112833285D01*
X182907000Y-112904714D01*
X182942714Y-112940428D01*
X183014142Y-112976142D01*
X183299857Y-112976142D01*
X182228428Y-112833285D02*
X182228428Y-113333285D01*
X182407000Y-112547571D02*
X182585571Y-113083285D01*
X182121285Y-113083285D01*
D13*
X161942857Y-104897142D02*
X161990476Y-104944761D01*
X162133333Y-104992380D01*
X162228571Y-104992380D01*
X162371428Y-104944761D01*
X162466666Y-104849523D01*
X162514285Y-104754285D01*
X162561904Y-104563809D01*
X162561904Y-104420952D01*
X162514285Y-104230476D01*
X162466666Y-104135238D01*
X162371428Y-104040000D01*
X162228571Y-103992380D01*
X162133333Y-103992380D01*
X161990476Y-104040000D01*
X161942857Y-104087619D01*
X160990476Y-104992380D02*
X161561904Y-104992380D01*
X161276190Y-104992380D02*
X161276190Y-103992380D01*
X161371428Y-104135238D01*
X161466666Y-104230476D01*
X161561904Y-104278095D01*
X160419047Y-104420952D02*
X160514285Y-104373333D01*
X160561904Y-104325714D01*
X160609523Y-104230476D01*
X160609523Y-104182857D01*
X160561904Y-104087619D01*
X160514285Y-104040000D01*
X160419047Y-103992380D01*
X160228571Y-103992380D01*
X160133333Y-104040000D01*
X160085714Y-104087619D01*
X160038095Y-104182857D01*
X160038095Y-104230476D01*
X160085714Y-104325714D01*
X160133333Y-104373333D01*
X160228571Y-104420952D01*
X160419047Y-104420952D01*
X160514285Y-104468571D01*
X160561904Y-104516190D01*
X160609523Y-104611428D01*
X160609523Y-104801904D01*
X160561904Y-104897142D01*
X160514285Y-104944761D01*
X160419047Y-104992380D01*
X160228571Y-104992380D01*
X160133333Y-104944761D01*
X160085714Y-104897142D01*
X160038095Y-104801904D01*
X160038095Y-104611428D01*
X160085714Y-104516190D01*
X160133333Y-104468571D01*
X160228571Y-104420952D01*
X178289142Y-108127333D02*
X178336761Y-108079714D01*
X178384380Y-107936857D01*
X178384380Y-107841619D01*
X178336761Y-107698761D01*
X178241523Y-107603523D01*
X178146285Y-107555904D01*
X177955809Y-107508285D01*
X177812952Y-107508285D01*
X177622476Y-107555904D01*
X177527238Y-107603523D01*
X177432000Y-107698761D01*
X177384380Y-107841619D01*
X177384380Y-107936857D01*
X177432000Y-108079714D01*
X177479619Y-108127333D01*
X177717714Y-108984476D02*
X178384380Y-108984476D01*
X177336761Y-108746380D02*
X178051047Y-108508285D01*
X178051047Y-109127333D01*
X178474857Y-111546380D02*
X178808190Y-111070190D01*
X179046285Y-111546380D02*
X179046285Y-110546380D01*
X178665333Y-110546380D01*
X178570095Y-110594000D01*
X178522476Y-110641619D01*
X178474857Y-110736857D01*
X178474857Y-110879714D01*
X178522476Y-110974952D01*
X178570095Y-111022571D01*
X178665333Y-111070190D01*
X179046285Y-111070190D01*
X177522476Y-111546380D02*
X178093904Y-111546380D01*
X177808190Y-111546380D02*
X177808190Y-110546380D01*
X177903428Y-110689238D01*
X177998666Y-110784476D01*
X178093904Y-110832095D01*
X176570095Y-111546380D02*
X177141523Y-111546380D01*
X176855809Y-111546380D02*
X176855809Y-110546380D01*
X176951047Y-110689238D01*
X177046285Y-110784476D01*
X177141523Y-110832095D01*
D12*
X180671285Y-105669000D02*
X181207000Y-105669000D01*
X181314142Y-105633285D01*
X181385571Y-105561857D01*
X181421285Y-105454714D01*
X181421285Y-105383285D01*
X181421285Y-106026142D02*
X180671285Y-106026142D01*
X180671285Y-106311857D01*
X180707000Y-106383285D01*
X180742714Y-106419000D01*
X180814142Y-106454714D01*
X180921285Y-106454714D01*
X180992714Y-106419000D01*
X181028428Y-106383285D01*
X181064142Y-106311857D01*
X181064142Y-106026142D01*
X180742714Y-106740428D02*
X180707000Y-106776142D01*
X180671285Y-106847571D01*
X180671285Y-107026142D01*
X180707000Y-107097571D01*
X180742714Y-107133285D01*
X180814142Y-107169000D01*
X180885571Y-107169000D01*
X180992714Y-107133285D01*
X181421285Y-106704714D01*
X181421285Y-107169000D01*
D13*
X162933333Y-98252380D02*
X162933333Y-98966666D01*
X162980952Y-99109523D01*
X163076190Y-99204761D01*
X163219047Y-99252380D01*
X163314285Y-99252380D01*
X162457142Y-99252380D02*
X162457142Y-98252380D01*
X162076190Y-98252380D01*
X161980952Y-98300000D01*
X161933333Y-98347619D01*
X161885714Y-98442857D01*
X161885714Y-98585714D01*
X161933333Y-98680952D01*
X161980952Y-98728571D01*
X162076190Y-98776190D01*
X162457142Y-98776190D01*
X161028571Y-98252380D02*
X161219047Y-98252380D01*
X161314285Y-98300000D01*
X161361904Y-98347619D01*
X161457142Y-98490476D01*
X161504761Y-98680952D01*
X161504761Y-99061904D01*
X161457142Y-99157142D01*
X161409523Y-99204761D01*
X161314285Y-99252380D01*
X161123809Y-99252380D01*
X161028571Y-99204761D01*
X160980952Y-99157142D01*
X160933333Y-99061904D01*
X160933333Y-98823809D01*
X160980952Y-98728571D01*
X161028571Y-98680952D01*
X161123809Y-98633333D01*
X161314285Y-98633333D01*
X161409523Y-98680952D01*
X161457142Y-98728571D01*
X161504761Y-98823809D01*
X164822380Y-105657142D02*
X164346190Y-105323809D01*
X164822380Y-105085714D02*
X163822380Y-105085714D01*
X163822380Y-105466666D01*
X163870000Y-105561904D01*
X163917619Y-105609523D01*
X164012857Y-105657142D01*
X164155714Y-105657142D01*
X164250952Y-105609523D01*
X164298571Y-105561904D01*
X164346190Y-105466666D01*
X164346190Y-105085714D01*
X164822380Y-106609523D02*
X164822380Y-106038095D01*
X164822380Y-106323809D02*
X163822380Y-106323809D01*
X163965238Y-106228571D01*
X164060476Y-106133333D01*
X164108095Y-106038095D01*
X163917619Y-106990476D02*
X163870000Y-107038095D01*
X163822380Y-107133333D01*
X163822380Y-107371428D01*
X163870000Y-107466666D01*
X163917619Y-107514285D01*
X164012857Y-107561904D01*
X164108095Y-107561904D01*
X164250952Y-107514285D01*
X164822380Y-106942857D01*
X164822380Y-107561904D01*
D11*
X172448666Y-104020190D02*
X172448666Y-104377333D01*
X172472476Y-104448761D01*
X172520095Y-104496380D01*
X172591523Y-104520190D01*
X172639142Y-104520190D01*
X172210571Y-104520190D02*
X172210571Y-104020190D01*
X172020095Y-104020190D01*
X171972476Y-104044000D01*
X171948666Y-104067809D01*
X171924857Y-104115428D01*
X171924857Y-104186857D01*
X171948666Y-104234476D01*
X171972476Y-104258285D01*
X172020095Y-104282095D01*
X172210571Y-104282095D01*
X171448666Y-104520190D02*
X171734380Y-104520190D01*
X171591523Y-104520190D02*
X171591523Y-104020190D01*
X171639142Y-104091619D01*
X171686761Y-104139238D01*
X171734380Y-104163047D01*
D13*
X163952380Y-108161904D02*
X162952380Y-108161904D01*
X162952380Y-108400000D01*
X163000000Y-108542857D01*
X163095238Y-108638095D01*
X163190476Y-108685714D01*
X163380952Y-108733333D01*
X163523809Y-108733333D01*
X163714285Y-108685714D01*
X163809523Y-108638095D01*
X163904761Y-108542857D01*
X163952380Y-108400000D01*
X163952380Y-108161904D01*
X162952380Y-109638095D02*
X162952380Y-109161904D01*
X163428571Y-109114285D01*
X163380952Y-109161904D01*
X163333333Y-109257142D01*
X163333333Y-109495238D01*
X163380952Y-109590476D01*
X163428571Y-109638095D01*
X163523809Y-109685714D01*
X163761904Y-109685714D01*
X163857142Y-109638095D01*
X163904761Y-109590476D01*
X163952380Y-109495238D01*
X163952380Y-109257142D01*
X163904761Y-109161904D01*
X163857142Y-109114285D01*
X178474857Y-112757142D02*
X178522476Y-112804761D01*
X178665333Y-112852380D01*
X178760571Y-112852380D01*
X178903428Y-112804761D01*
X178998666Y-112709523D01*
X179046285Y-112614285D01*
X179093904Y-112423809D01*
X179093904Y-112280952D01*
X179046285Y-112090476D01*
X178998666Y-111995238D01*
X178903428Y-111900000D01*
X178760571Y-111852380D01*
X178665333Y-111852380D01*
X178522476Y-111900000D01*
X178474857Y-111947619D01*
X177522476Y-112852380D02*
X178093904Y-112852380D01*
X177808190Y-112852380D02*
X177808190Y-111852380D01*
X177903428Y-111995238D01*
X177998666Y-112090476D01*
X178093904Y-112138095D01*
X176665333Y-112185714D02*
X176665333Y-112852380D01*
X176903428Y-111804761D02*
X177141523Y-112519047D01*
X176522476Y-112519047D01*
D14*
X181682000Y-108494000D02*
X181682000Y-109094000D01*
X182382000Y-109794000D02*
X183782000Y-109794000D01*
X184482000Y-109094000D02*
X184482000Y-108494000D01*
X183782000Y-107794000D02*
X182382000Y-107794000D01*
X181682000Y-109094000D02*
G75*
G03*
X182382000Y-109794000I700000J0D01*
G01*
X184482000Y-108494000D02*
G75*
G03*
X183782000Y-107794000I-700000J0D01*
G01*
X183782000Y-109794000D02*
G75*
G03*
X184482000Y-109094000I0J700000D01*
G01*
X182382000Y-107794000D02*
G75*
G03*
X181682000Y-108494000I0J-700000D01*
G01*
X173020000Y-103546359D02*
X173020000Y-103853641D01*
X173780000Y-103546359D02*
X173780000Y-103853641D01*
X182382000Y-112294000D02*
X183782000Y-112294000D01*
X184482000Y-111594000D02*
X184482000Y-110994000D01*
X183782000Y-110294000D02*
X182382000Y-110294000D01*
X181682000Y-110994000D02*
X181682000Y-111594000D01*
X183782000Y-112294000D02*
G75*
G03*
X184482000Y-111594000I0J700000D01*
G01*
X184482000Y-110994000D02*
G75*
G03*
X183782000Y-110294000I-700000J0D01*
G01*
X181682000Y-111594000D02*
G75*
G03*
X182382000Y-112294000I700000J0D01*
G01*
X182382000Y-110294000D02*
G75*
G03*
X181682000Y-110994000I0J-700000D01*
G01*
X161407836Y-106060000D02*
X161192164Y-106060000D01*
X161407836Y-105340000D02*
X161192164Y-105340000D01*
X176667000Y-108555252D02*
X176667000Y-108032748D01*
X175197000Y-108555252D02*
X175197000Y-108032748D01*
X180246359Y-111680000D02*
X180553641Y-111680000D01*
X180246359Y-110920000D02*
X180553641Y-110920000D01*
X183788000Y-105294000D02*
X182388000Y-105294000D01*
X184488000Y-106594000D02*
X184488000Y-105994000D01*
X182388000Y-107294000D02*
X183788000Y-107294000D01*
X181688000Y-105994000D02*
X181688000Y-106594000D01*
X183788000Y-107294000D02*
G75*
G03*
X184488000Y-106594000I0J700000D01*
G01*
X184488000Y-105994000D02*
G75*
G03*
X183788000Y-105294000I-700000J0D01*
G01*
X181688000Y-106594000D02*
G75*
G03*
X182388000Y-107294000I700000J0D01*
G01*
X182388000Y-105294000D02*
G75*
G03*
X181688000Y-105994000I0J-700000D01*
G01*
X163500000Y-100900000D02*
X163500000Y-100300000D01*
X162800000Y-99600000D02*
X161400000Y-99600000D01*
X160700000Y-100300000D02*
X160700000Y-100900000D01*
X161400000Y-101600000D02*
X162800000Y-101600000D01*
X161400000Y-99600000D02*
G75*
G03*
X160700000Y-100300000I0J-700000D01*
G01*
X163500000Y-100300000D02*
G75*
G03*
X162800000Y-99600000I-700000J0D01*
G01*
X160700000Y-100900000D02*
G75*
G03*
X161400000Y-101600000I700000J0D01*
G01*
X162800000Y-101600000D02*
G75*
G03*
X163500000Y-100900000I0J700000D01*
G01*
X162820000Y-106453641D02*
X162820000Y-106146359D01*
X163580000Y-106453641D02*
X163580000Y-106146359D01*
X170700000Y-106900000D02*
X173500000Y-106900000D01*
X173500000Y-104900000D02*
X170700000Y-104900000D01*
X174150000Y-106200000D02*
X174150000Y-105600000D01*
X170050000Y-105600000D02*
X170050000Y-106200000D01*
X173450000Y-106900000D02*
G75*
G03*
X174150000Y-106200000I0J700000D01*
G01*
X170050000Y-106200000D02*
G75*
G03*
X170750000Y-106900000I700000J0D01*
G01*
X170750000Y-104900000D02*
G75*
G03*
X170050000Y-105600000I0J-700000D01*
G01*
X174150000Y-105600000D02*
G75*
G03*
X173450000Y-104900000I-700000J0D01*
G01*
X160950000Y-106400000D02*
X160950000Y-108950000D01*
X162650000Y-106400000D02*
X162650000Y-108950000D01*
X160950000Y-106400000D02*
X162650000Y-106400000D01*
X180292164Y-112660000D02*
X180507836Y-112660000D01*
X180292164Y-111940000D02*
X180507836Y-111940000D01*
%LPC*%
D15*
X164375000Y-111600000D03*
D16*
X161835000Y-111600000D03*
D17*
X158475000Y-113284000D03*
D16*
X158475000Y-110744000D03*
X158475000Y-108204000D03*
X158475000Y-105664000D03*
X158475000Y-103124000D03*
X158475000Y-100584000D03*
D18*
X198650000Y-110150000D03*
X198650000Y-104400000D03*
D19*
X176225000Y-98600000D03*
D16*
X178765000Y-98600000D03*
D15*
X164375000Y-115200000D03*
D16*
X161835000Y-115200000D03*
D20*
X182432000Y-108794000D03*
D21*
X183732000Y-108794000D03*
D22*
X173400000Y-103190000D03*
X173400000Y-104210000D03*
D20*
X182432000Y-111294000D03*
D21*
X183732000Y-111294000D03*
D23*
X161780000Y-105700000D03*
X160820000Y-105700000D03*
D24*
X175932000Y-109244000D03*
X175932000Y-107344000D03*
D25*
X179890000Y-111300000D03*
X180910000Y-111300000D03*
D20*
X182438000Y-106294000D03*
D21*
X183738000Y-106294000D03*
D26*
X162750000Y-100600000D03*
D27*
X161450000Y-100600000D03*
D28*
X163200000Y-106810000D03*
X163200000Y-105790000D03*
D29*
X170800000Y-105900000D03*
D30*
X172100000Y-105900000D03*
D31*
X173400000Y-105900000D03*
D32*
X161800000Y-106800000D03*
X161800000Y-109000000D03*
D33*
X179920000Y-112300000D03*
X180880000Y-112300000D03*
M02*
