M48
; DRILL file {KiCad (5.99.0-12840-g99442350a4)} date Fr 05 Nov 2021 14:18:05 CET
; FORMAT={-:-/ absolute / metric / decimal}
; #@! TF.CreationDate,2021-11-05T14:18:05+01:00
; #@! TF.GenerationSoftware,Kicad,Pcbnew,(5.99.0-12840-g99442350a4)
; #@! TF.FileFunction,Plated,1,2,PTH
FMAT,2
METRIC
; #@! TA.AperFunction,Plated,PTH,ViaDrill
T1C0.300
; #@! TA.AperFunction,Plated,PTH,ViaDrill
T2C0.400
; #@! TA.AperFunction,Plated,PTH,ComponentDrill
T3C1.000
; #@! TA.AperFunction,Plated,PTH,ComponentDrill
T4C1.200
%
G90
G05
T1
X161.032Y-109.194
X164.332Y-104.594
X172.132Y-111.894
X172.632Y-116.494
X174.232Y-113.494
X175.332Y-110.294
X175.332Y-111.894
X176.026Y-114.198
X176.532Y-114.894
X176.932Y-110.294
X176.932Y-111.894
X176.951Y-107.994
X177.332Y-114.094
X178.232Y-114.094
X179.032Y-112.694
X179.132Y-113.594
X181.432Y-113.894
X181.532Y-116.394
X185.232Y-114.594
T2
X162.432Y-104.994
X165.432Y-109.294
X165.832Y-102.194
X168.532Y-109.294
X168.532Y-110.694
X168.632Y-114.094
X168.932Y-105.794
X170.832Y-103.994
X172.132Y-107.094
X173.232Y-108.894
X176.332Y-102.994
X179.532Y-103.594
X181.032Y-107.494
X183.732Y-103.794
X187.132Y-107.694
X187.132Y-111.394
X188.932Y-113.894
X189.129Y-102.184
X191.032Y-108.194
X192.132Y-100.494
X192.132Y-103.894
X195.132Y-102.194
T3
X158.475Y-100.584
X158.475Y-103.124
X158.475Y-105.664
X158.475Y-108.204
X158.475Y-110.744
X158.475Y-113.284
X161.835Y-111.6
X161.835Y-115.2
X164.375Y-111.6
X164.375Y-115.2
X176.225Y-98.6
X178.765Y-98.6
T4
X198.65Y-104.4
X198.65Y-110.15
T0
M30
